G04 #@! TF.GenerationSoftware,KiCad,Pcbnew,(5.1.0)-1*
G04 #@! TF.CreationDate,2019-06-28T09:21:03+02:00*
G04 #@! TF.ProjectId,Drop,44726f70-2e6b-4696-9361-645f70636258,rev?*
G04 #@! TF.SameCoordinates,Original*
G04 #@! TF.FileFunction,Legend,Top*
G04 #@! TF.FilePolarity,Positive*
%FSLAX46Y46*%
G04 Gerber Fmt 4.6, Leading zero omitted, Abs format (unit mm)*
G04 Created by KiCad (PCBNEW (5.1.0)-1) date 2019-06-28 09:21:03*
%MOMM*%
%LPD*%
G04 APERTURE LIST*
%ADD10C,0.150000*%
%ADD11C,0.120000*%
G04 APERTURE END LIST*
D10*
X133750000Y-58525001D02*
X143200000Y-58525001D01*
X143200000Y-58525001D02*
X143200000Y-53600001D01*
X143200000Y-53600001D02*
X133675000Y-53600001D01*
X133675000Y-53600001D02*
X133675000Y-58525001D01*
G36*
X133725000Y-58525001D02*
G01*
X133700000Y-53600001D01*
X143150000Y-53625001D01*
X143150000Y-58500001D01*
X133725000Y-58525001D01*
G37*
X133725000Y-58525001D02*
X133700000Y-53600001D01*
X143150000Y-53625001D01*
X143150000Y-58500001D01*
X133725000Y-58525001D01*
X133650000Y-53575001D02*
X144075000Y-53575001D01*
X144075000Y-53575001D02*
X144000000Y-67650001D01*
X144000000Y-67650001D02*
X133750000Y-67650001D01*
X133750000Y-67650001D02*
X133675000Y-53575001D01*
D11*
X131510000Y-64428733D02*
X131510000Y-64771267D01*
X130490000Y-64428733D02*
X130490000Y-64771267D01*
X140880000Y-70240000D02*
X139950000Y-70240000D01*
X137720000Y-70240000D02*
X138650000Y-70240000D01*
X137720000Y-70240000D02*
X137720000Y-72400000D01*
X140880000Y-70240000D02*
X140880000Y-71700000D01*
X147510000Y-55225000D02*
X146707530Y-55225000D01*
X146092470Y-55225000D02*
X145290000Y-55225000D01*
X147510000Y-60240000D02*
X147510000Y-55225000D01*
X145290000Y-60240000D02*
X145290000Y-55225000D01*
X147510000Y-60240000D02*
X146963471Y-60240000D01*
X145836529Y-60240000D02*
X145290000Y-60240000D01*
X147510000Y-61000000D02*
X147510000Y-61760000D01*
X147510000Y-61760000D02*
X146400000Y-61760000D01*
X144453733Y-70240000D02*
X144796267Y-70240000D01*
X144453733Y-71260000D02*
X144796267Y-71260000D01*
X130400000Y-69300000D02*
X132400000Y-69300000D01*
X130400000Y-72100000D02*
X130400000Y-69300000D01*
X132400000Y-72100000D02*
X130400000Y-72100000D01*
X132400000Y-69300000D02*
X132400000Y-72100000D01*
M02*
