G04 #@! TF.GenerationSoftware,KiCad,Pcbnew,(5.1.0)-1*
G04 #@! TF.CreationDate,2019-06-28T09:21:03+02:00*
G04 #@! TF.ProjectId,Drop,44726f70-2e6b-4696-9361-645f70636258,rev?*
G04 #@! TF.SameCoordinates,Original*
G04 #@! TF.FileFunction,Copper,L1,Top*
G04 #@! TF.FilePolarity,Positive*
%FSLAX46Y46*%
G04 Gerber Fmt 4.6, Leading zero omitted, Abs format (unit mm)*
G04 Created by KiCad (PCBNEW (5.1.0)-1) date 2019-06-28 09:21:03*
%MOMM*%
%LPD*%
G04 APERTURE LIST*
%ADD10R,1.200000X0.500000*%
%ADD11R,0.500000X1.200000*%
%ADD12C,0.100000*%
%ADD13C,0.950000*%
%ADD14R,0.800000X0.900000*%
%ADD15R,1.000000X1.000000*%
%ADD16O,1.000000X1.000000*%
%ADD17C,0.300000*%
%ADD18C,0.800000*%
%ADD19C,0.250000*%
%ADD20C,0.254000*%
G04 APERTURE END LIST*
D10*
X134000000Y-58775001D03*
X134000000Y-59525001D03*
X134000000Y-60275001D03*
X134000000Y-61025001D03*
X134000000Y-61775001D03*
X134000000Y-62525001D03*
X134000000Y-63275001D03*
X134000000Y-64025001D03*
X134000000Y-64775001D03*
X134000000Y-65525001D03*
X134000000Y-66275001D03*
X134000000Y-67025001D03*
D11*
X135150000Y-67475001D03*
X135900000Y-67475001D03*
X136650000Y-67475001D03*
X137400000Y-67475001D03*
X138150000Y-67475001D03*
X138900000Y-67475001D03*
X139650000Y-67475001D03*
X140400000Y-67475001D03*
X141150000Y-67475001D03*
X141900000Y-67475001D03*
X142650000Y-67475001D03*
D10*
X143800000Y-67025001D03*
X143800000Y-66275001D03*
X143800000Y-65525001D03*
X143800000Y-64775001D03*
X143800000Y-64025001D03*
X143800000Y-63275001D03*
X143800000Y-62525001D03*
X143800000Y-61775001D03*
X143800000Y-61025001D03*
X143800000Y-60275001D03*
X143800000Y-59525001D03*
X143800000Y-58775001D03*
X143800000Y-58025001D03*
X143800000Y-57275001D03*
X143800000Y-56525001D03*
X143800000Y-55775001D03*
D12*
G36*
X131260779Y-63201144D02*
G01*
X131283834Y-63204563D01*
X131306443Y-63210227D01*
X131328387Y-63218079D01*
X131349457Y-63228044D01*
X131369448Y-63240026D01*
X131388168Y-63253910D01*
X131405438Y-63269562D01*
X131421090Y-63286832D01*
X131434974Y-63305552D01*
X131446956Y-63325543D01*
X131456921Y-63346613D01*
X131464773Y-63368557D01*
X131470437Y-63391166D01*
X131473856Y-63414221D01*
X131475000Y-63437500D01*
X131475000Y-64012500D01*
X131473856Y-64035779D01*
X131470437Y-64058834D01*
X131464773Y-64081443D01*
X131456921Y-64103387D01*
X131446956Y-64124457D01*
X131434974Y-64144448D01*
X131421090Y-64163168D01*
X131405438Y-64180438D01*
X131388168Y-64196090D01*
X131369448Y-64209974D01*
X131349457Y-64221956D01*
X131328387Y-64231921D01*
X131306443Y-64239773D01*
X131283834Y-64245437D01*
X131260779Y-64248856D01*
X131237500Y-64250000D01*
X130762500Y-64250000D01*
X130739221Y-64248856D01*
X130716166Y-64245437D01*
X130693557Y-64239773D01*
X130671613Y-64231921D01*
X130650543Y-64221956D01*
X130630552Y-64209974D01*
X130611832Y-64196090D01*
X130594562Y-64180438D01*
X130578910Y-64163168D01*
X130565026Y-64144448D01*
X130553044Y-64124457D01*
X130543079Y-64103387D01*
X130535227Y-64081443D01*
X130529563Y-64058834D01*
X130526144Y-64035779D01*
X130525000Y-64012500D01*
X130525000Y-63437500D01*
X130526144Y-63414221D01*
X130529563Y-63391166D01*
X130535227Y-63368557D01*
X130543079Y-63346613D01*
X130553044Y-63325543D01*
X130565026Y-63305552D01*
X130578910Y-63286832D01*
X130594562Y-63269562D01*
X130611832Y-63253910D01*
X130630552Y-63240026D01*
X130650543Y-63228044D01*
X130671613Y-63218079D01*
X130693557Y-63210227D01*
X130716166Y-63204563D01*
X130739221Y-63201144D01*
X130762500Y-63200000D01*
X131237500Y-63200000D01*
X131260779Y-63201144D01*
X131260779Y-63201144D01*
G37*
D13*
X131000000Y-63725000D03*
D12*
G36*
X131260779Y-64951144D02*
G01*
X131283834Y-64954563D01*
X131306443Y-64960227D01*
X131328387Y-64968079D01*
X131349457Y-64978044D01*
X131369448Y-64990026D01*
X131388168Y-65003910D01*
X131405438Y-65019562D01*
X131421090Y-65036832D01*
X131434974Y-65055552D01*
X131446956Y-65075543D01*
X131456921Y-65096613D01*
X131464773Y-65118557D01*
X131470437Y-65141166D01*
X131473856Y-65164221D01*
X131475000Y-65187500D01*
X131475000Y-65762500D01*
X131473856Y-65785779D01*
X131470437Y-65808834D01*
X131464773Y-65831443D01*
X131456921Y-65853387D01*
X131446956Y-65874457D01*
X131434974Y-65894448D01*
X131421090Y-65913168D01*
X131405438Y-65930438D01*
X131388168Y-65946090D01*
X131369448Y-65959974D01*
X131349457Y-65971956D01*
X131328387Y-65981921D01*
X131306443Y-65989773D01*
X131283834Y-65995437D01*
X131260779Y-65998856D01*
X131237500Y-66000000D01*
X130762500Y-66000000D01*
X130739221Y-65998856D01*
X130716166Y-65995437D01*
X130693557Y-65989773D01*
X130671613Y-65981921D01*
X130650543Y-65971956D01*
X130630552Y-65959974D01*
X130611832Y-65946090D01*
X130594562Y-65930438D01*
X130578910Y-65913168D01*
X130565026Y-65894448D01*
X130553044Y-65874457D01*
X130543079Y-65853387D01*
X130535227Y-65831443D01*
X130529563Y-65808834D01*
X130526144Y-65785779D01*
X130525000Y-65762500D01*
X130525000Y-65187500D01*
X130526144Y-65164221D01*
X130529563Y-65141166D01*
X130535227Y-65118557D01*
X130543079Y-65096613D01*
X130553044Y-65075543D01*
X130565026Y-65055552D01*
X130578910Y-65036832D01*
X130594562Y-65019562D01*
X130611832Y-65003910D01*
X130630552Y-64990026D01*
X130650543Y-64978044D01*
X130671613Y-64968079D01*
X130693557Y-64960227D01*
X130716166Y-64954563D01*
X130739221Y-64951144D01*
X130762500Y-64950000D01*
X131237500Y-64950000D01*
X131260779Y-64951144D01*
X131260779Y-64951144D01*
G37*
D13*
X131000000Y-65475000D03*
D14*
X138350000Y-72000000D03*
X140250000Y-72000000D03*
X139300000Y-70000000D03*
D15*
X146400000Y-61000000D03*
D16*
X146400000Y-59730000D03*
X146400000Y-58460000D03*
X146400000Y-57190000D03*
X146400000Y-55920000D03*
D12*
G36*
X144060779Y-70276144D02*
G01*
X144083834Y-70279563D01*
X144106443Y-70285227D01*
X144128387Y-70293079D01*
X144149457Y-70303044D01*
X144169448Y-70315026D01*
X144188168Y-70328910D01*
X144205438Y-70344562D01*
X144221090Y-70361832D01*
X144234974Y-70380552D01*
X144246956Y-70400543D01*
X144256921Y-70421613D01*
X144264773Y-70443557D01*
X144270437Y-70466166D01*
X144273856Y-70489221D01*
X144275000Y-70512500D01*
X144275000Y-70987500D01*
X144273856Y-71010779D01*
X144270437Y-71033834D01*
X144264773Y-71056443D01*
X144256921Y-71078387D01*
X144246956Y-71099457D01*
X144234974Y-71119448D01*
X144221090Y-71138168D01*
X144205438Y-71155438D01*
X144188168Y-71171090D01*
X144169448Y-71184974D01*
X144149457Y-71196956D01*
X144128387Y-71206921D01*
X144106443Y-71214773D01*
X144083834Y-71220437D01*
X144060779Y-71223856D01*
X144037500Y-71225000D01*
X143462500Y-71225000D01*
X143439221Y-71223856D01*
X143416166Y-71220437D01*
X143393557Y-71214773D01*
X143371613Y-71206921D01*
X143350543Y-71196956D01*
X143330552Y-71184974D01*
X143311832Y-71171090D01*
X143294562Y-71155438D01*
X143278910Y-71138168D01*
X143265026Y-71119448D01*
X143253044Y-71099457D01*
X143243079Y-71078387D01*
X143235227Y-71056443D01*
X143229563Y-71033834D01*
X143226144Y-71010779D01*
X143225000Y-70987500D01*
X143225000Y-70512500D01*
X143226144Y-70489221D01*
X143229563Y-70466166D01*
X143235227Y-70443557D01*
X143243079Y-70421613D01*
X143253044Y-70400543D01*
X143265026Y-70380552D01*
X143278910Y-70361832D01*
X143294562Y-70344562D01*
X143311832Y-70328910D01*
X143330552Y-70315026D01*
X143350543Y-70303044D01*
X143371613Y-70293079D01*
X143393557Y-70285227D01*
X143416166Y-70279563D01*
X143439221Y-70276144D01*
X143462500Y-70275000D01*
X144037500Y-70275000D01*
X144060779Y-70276144D01*
X144060779Y-70276144D01*
G37*
D13*
X143750000Y-70750000D03*
D12*
G36*
X145810779Y-70276144D02*
G01*
X145833834Y-70279563D01*
X145856443Y-70285227D01*
X145878387Y-70293079D01*
X145899457Y-70303044D01*
X145919448Y-70315026D01*
X145938168Y-70328910D01*
X145955438Y-70344562D01*
X145971090Y-70361832D01*
X145984974Y-70380552D01*
X145996956Y-70400543D01*
X146006921Y-70421613D01*
X146014773Y-70443557D01*
X146020437Y-70466166D01*
X146023856Y-70489221D01*
X146025000Y-70512500D01*
X146025000Y-70987500D01*
X146023856Y-71010779D01*
X146020437Y-71033834D01*
X146014773Y-71056443D01*
X146006921Y-71078387D01*
X145996956Y-71099457D01*
X145984974Y-71119448D01*
X145971090Y-71138168D01*
X145955438Y-71155438D01*
X145938168Y-71171090D01*
X145919448Y-71184974D01*
X145899457Y-71196956D01*
X145878387Y-71206921D01*
X145856443Y-71214773D01*
X145833834Y-71220437D01*
X145810779Y-71223856D01*
X145787500Y-71225000D01*
X145212500Y-71225000D01*
X145189221Y-71223856D01*
X145166166Y-71220437D01*
X145143557Y-71214773D01*
X145121613Y-71206921D01*
X145100543Y-71196956D01*
X145080552Y-71184974D01*
X145061832Y-71171090D01*
X145044562Y-71155438D01*
X145028910Y-71138168D01*
X145015026Y-71119448D01*
X145003044Y-71099457D01*
X144993079Y-71078387D01*
X144985227Y-71056443D01*
X144979563Y-71033834D01*
X144976144Y-71010779D01*
X144975000Y-70987500D01*
X144975000Y-70512500D01*
X144976144Y-70489221D01*
X144979563Y-70466166D01*
X144985227Y-70443557D01*
X144993079Y-70421613D01*
X145003044Y-70400543D01*
X145015026Y-70380552D01*
X145028910Y-70361832D01*
X145044562Y-70344562D01*
X145061832Y-70328910D01*
X145080552Y-70315026D01*
X145100543Y-70303044D01*
X145121613Y-70293079D01*
X145143557Y-70285227D01*
X145166166Y-70279563D01*
X145189221Y-70276144D01*
X145212500Y-70275000D01*
X145787500Y-70275000D01*
X145810779Y-70276144D01*
X145810779Y-70276144D01*
G37*
D13*
X145500000Y-70750000D03*
D17*
X131400000Y-71425000D03*
D12*
G36*
X130650000Y-71925000D02*
G01*
X130650000Y-70775000D01*
X131400000Y-71275000D01*
X132150000Y-70775000D01*
X132150000Y-71925000D01*
X130650000Y-71925000D01*
X130650000Y-71925000D01*
G37*
D17*
X131400000Y-69975000D03*
D12*
G36*
X131400000Y-70975000D02*
G01*
X130650000Y-70475000D01*
X130650000Y-69475000D01*
X132150000Y-69475000D01*
X132150000Y-70475000D01*
X131400000Y-70975000D01*
X131400000Y-70975000D01*
G37*
D18*
X131000000Y-61400000D03*
X137000000Y-72000000D03*
X143200000Y-68800000D03*
X131500000Y-59250000D03*
X133200000Y-68000000D03*
X145000000Y-57000000D03*
D19*
X131000000Y-63725000D02*
X131000000Y-61400000D01*
X138350000Y-72000000D02*
X137000000Y-72000000D01*
X135250000Y-67575001D02*
X135150000Y-67475001D01*
X135150000Y-67825001D02*
X134775001Y-68200000D01*
X135150000Y-67475001D02*
X135150000Y-67825001D01*
X134775001Y-68200000D02*
X133325010Y-68200000D01*
X144650000Y-58775001D02*
X145000000Y-58425001D01*
X143800000Y-58775001D02*
X144650000Y-58775001D01*
X145000000Y-58425001D02*
X145000000Y-57000000D01*
X146400000Y-58525001D02*
X146400000Y-58460000D01*
X144650000Y-60275001D02*
X146400000Y-58525001D01*
X143800000Y-60275001D02*
X144650000Y-60275001D01*
X145900001Y-57689999D02*
X146400000Y-57190000D01*
X145450009Y-58139991D02*
X145900001Y-57689999D01*
X145450009Y-58611402D02*
X145450009Y-58139991D01*
X144536410Y-59525001D02*
X145450009Y-58611402D01*
X143800000Y-59525001D02*
X144536410Y-59525001D01*
X143125000Y-70750000D02*
X143750000Y-70750000D01*
X141438589Y-70750000D02*
X143125000Y-70750000D01*
X136489997Y-68750000D02*
X139438589Y-68750000D01*
X135900000Y-68160003D02*
X136489997Y-68750000D01*
X135900000Y-67475001D02*
X135900000Y-68160003D01*
X141094294Y-70455706D02*
X141144294Y-70455706D01*
X140250000Y-71300000D02*
X141094294Y-70455706D01*
X140250000Y-72000000D02*
X140250000Y-71300000D01*
X139438589Y-68750000D02*
X141144294Y-70455706D01*
X141144294Y-70455706D02*
X141438589Y-70750000D01*
X146400000Y-66500000D02*
X146400000Y-61000000D01*
X146400000Y-67200000D02*
X146400000Y-66500000D01*
X143750000Y-70750000D02*
X143750000Y-69850000D01*
X143750000Y-69850000D02*
X146400000Y-67200000D01*
X134000000Y-67025001D02*
X132674999Y-67025001D01*
X131400000Y-68300000D02*
X131400000Y-69975000D01*
X132674999Y-67025001D02*
X131400000Y-68300000D01*
D20*
G36*
X147544001Y-72544000D02*
G01*
X141019629Y-72544000D01*
X141025487Y-72524689D01*
X141032843Y-72450000D01*
X141032843Y-71550000D01*
X141025487Y-71475311D01*
X141003701Y-71403492D01*
X140968322Y-71337304D01*
X140950276Y-71315315D01*
X141121355Y-71144236D01*
X141156110Y-71172759D01*
X141244014Y-71219745D01*
X141339396Y-71248678D01*
X141413735Y-71256000D01*
X141413743Y-71256000D01*
X141438589Y-71258447D01*
X141463435Y-71256000D01*
X142906004Y-71256000D01*
X142946704Y-71332144D01*
X143023851Y-71426149D01*
X143117856Y-71503296D01*
X143225105Y-71560622D01*
X143341477Y-71595923D01*
X143462500Y-71607843D01*
X144037500Y-71607843D01*
X144158523Y-71595923D01*
X144274895Y-71560622D01*
X144382144Y-71503296D01*
X144397151Y-71490980D01*
X144444463Y-71579494D01*
X144523815Y-71676185D01*
X144620506Y-71755537D01*
X144730820Y-71814502D01*
X144850518Y-71850812D01*
X144975000Y-71863072D01*
X145214250Y-71860000D01*
X145373000Y-71701250D01*
X145373000Y-70877000D01*
X145627000Y-70877000D01*
X145627000Y-71701250D01*
X145785750Y-71860000D01*
X146025000Y-71863072D01*
X146149482Y-71850812D01*
X146269180Y-71814502D01*
X146379494Y-71755537D01*
X146476185Y-71676185D01*
X146555537Y-71579494D01*
X146614502Y-71469180D01*
X146650812Y-71349482D01*
X146663072Y-71225000D01*
X146660000Y-71035750D01*
X146501250Y-70877000D01*
X145627000Y-70877000D01*
X145373000Y-70877000D01*
X145353000Y-70877000D01*
X145353000Y-70623000D01*
X145373000Y-70623000D01*
X145373000Y-69798750D01*
X145627000Y-69798750D01*
X145627000Y-70623000D01*
X146501250Y-70623000D01*
X146660000Y-70464250D01*
X146663072Y-70275000D01*
X146650812Y-70150518D01*
X146614502Y-70030820D01*
X146555537Y-69920506D01*
X146476185Y-69823815D01*
X146379494Y-69744463D01*
X146269180Y-69685498D01*
X146149482Y-69649188D01*
X146025000Y-69636928D01*
X145785750Y-69640000D01*
X145627000Y-69798750D01*
X145373000Y-69798750D01*
X145214250Y-69640000D01*
X144975000Y-69636928D01*
X144850518Y-69649188D01*
X144730820Y-69685498D01*
X144620506Y-69744463D01*
X144523815Y-69823815D01*
X144444463Y-69920506D01*
X144397151Y-70009020D01*
X144382144Y-69996704D01*
X144340921Y-69974670D01*
X146740220Y-67575372D01*
X146759527Y-67559527D01*
X146822759Y-67482479D01*
X146869745Y-67394575D01*
X146898678Y-67299193D01*
X146906000Y-67224854D01*
X146906000Y-67224853D01*
X146908448Y-67200000D01*
X146906000Y-67175146D01*
X146906000Y-61882252D01*
X146974689Y-61875487D01*
X147046508Y-61853701D01*
X147112696Y-61818322D01*
X147170711Y-61770711D01*
X147218322Y-61712696D01*
X147253701Y-61646508D01*
X147275487Y-61574689D01*
X147282843Y-61500000D01*
X147282843Y-60500000D01*
X147275487Y-60425311D01*
X147253701Y-60353492D01*
X147218322Y-60287304D01*
X147170711Y-60229289D01*
X147143858Y-60207251D01*
X147217875Y-60068775D01*
X147268252Y-59902706D01*
X147285262Y-59730000D01*
X147268252Y-59557294D01*
X147217875Y-59391225D01*
X147136068Y-59238175D01*
X147025975Y-59104025D01*
X147014978Y-59095000D01*
X147025975Y-59085975D01*
X147136068Y-58951825D01*
X147217875Y-58798775D01*
X147268252Y-58632706D01*
X147285262Y-58460000D01*
X147268252Y-58287294D01*
X147217875Y-58121225D01*
X147136068Y-57968175D01*
X147025975Y-57834025D01*
X147014978Y-57825000D01*
X147025975Y-57815975D01*
X147136068Y-57681825D01*
X147217875Y-57528775D01*
X147268252Y-57362706D01*
X147285262Y-57190000D01*
X147268252Y-57017294D01*
X147217875Y-56851225D01*
X147164626Y-56751604D01*
X147258865Y-56662020D01*
X147387123Y-56480206D01*
X147477446Y-56276864D01*
X147494119Y-56221874D01*
X147367954Y-56047000D01*
X146527000Y-56047000D01*
X146527000Y-56067000D01*
X146273000Y-56067000D01*
X146273000Y-56047000D01*
X145432046Y-56047000D01*
X145305881Y-56221874D01*
X145322554Y-56276864D01*
X145328756Y-56290827D01*
X145227809Y-56249013D01*
X145076922Y-56219000D01*
X145004640Y-56219000D01*
X145023564Y-56160290D01*
X145035000Y-56056751D01*
X144876250Y-55898001D01*
X144459327Y-55898001D01*
X144400000Y-55892158D01*
X143709358Y-55892158D01*
X143715850Y-55048751D01*
X143927000Y-55048751D01*
X143927000Y-55652001D01*
X144876250Y-55652001D01*
X144910125Y-55618126D01*
X145305881Y-55618126D01*
X145432046Y-55793000D01*
X146273000Y-55793000D01*
X146273000Y-54950871D01*
X146527000Y-54950871D01*
X146527000Y-55793000D01*
X147367954Y-55793000D01*
X147494119Y-55618126D01*
X147477446Y-55563136D01*
X147387123Y-55359794D01*
X147258865Y-55177980D01*
X147097601Y-55024682D01*
X146909529Y-54905790D01*
X146701876Y-54825874D01*
X146527000Y-54950871D01*
X146273000Y-54950871D01*
X146098124Y-54825874D01*
X145890471Y-54905790D01*
X145702399Y-55024682D01*
X145541135Y-55177980D01*
X145412877Y-55359794D01*
X145322554Y-55563136D01*
X145305881Y-55618126D01*
X144910125Y-55618126D01*
X145035000Y-55493251D01*
X145023564Y-55389712D01*
X144985189Y-55270660D01*
X144924325Y-55161382D01*
X144843312Y-55066078D01*
X144745263Y-54988410D01*
X144633945Y-54931363D01*
X144513637Y-54897130D01*
X144388961Y-54887024D01*
X144085750Y-54890001D01*
X143927000Y-55048751D01*
X143715850Y-55048751D01*
X143724263Y-53956000D01*
X147544000Y-53956000D01*
X147544001Y-72544000D01*
X147544001Y-72544000D01*
G37*
X147544001Y-72544000D02*
X141019629Y-72544000D01*
X141025487Y-72524689D01*
X141032843Y-72450000D01*
X141032843Y-71550000D01*
X141025487Y-71475311D01*
X141003701Y-71403492D01*
X140968322Y-71337304D01*
X140950276Y-71315315D01*
X141121355Y-71144236D01*
X141156110Y-71172759D01*
X141244014Y-71219745D01*
X141339396Y-71248678D01*
X141413735Y-71256000D01*
X141413743Y-71256000D01*
X141438589Y-71258447D01*
X141463435Y-71256000D01*
X142906004Y-71256000D01*
X142946704Y-71332144D01*
X143023851Y-71426149D01*
X143117856Y-71503296D01*
X143225105Y-71560622D01*
X143341477Y-71595923D01*
X143462500Y-71607843D01*
X144037500Y-71607843D01*
X144158523Y-71595923D01*
X144274895Y-71560622D01*
X144382144Y-71503296D01*
X144397151Y-71490980D01*
X144444463Y-71579494D01*
X144523815Y-71676185D01*
X144620506Y-71755537D01*
X144730820Y-71814502D01*
X144850518Y-71850812D01*
X144975000Y-71863072D01*
X145214250Y-71860000D01*
X145373000Y-71701250D01*
X145373000Y-70877000D01*
X145627000Y-70877000D01*
X145627000Y-71701250D01*
X145785750Y-71860000D01*
X146025000Y-71863072D01*
X146149482Y-71850812D01*
X146269180Y-71814502D01*
X146379494Y-71755537D01*
X146476185Y-71676185D01*
X146555537Y-71579494D01*
X146614502Y-71469180D01*
X146650812Y-71349482D01*
X146663072Y-71225000D01*
X146660000Y-71035750D01*
X146501250Y-70877000D01*
X145627000Y-70877000D01*
X145373000Y-70877000D01*
X145353000Y-70877000D01*
X145353000Y-70623000D01*
X145373000Y-70623000D01*
X145373000Y-69798750D01*
X145627000Y-69798750D01*
X145627000Y-70623000D01*
X146501250Y-70623000D01*
X146660000Y-70464250D01*
X146663072Y-70275000D01*
X146650812Y-70150518D01*
X146614502Y-70030820D01*
X146555537Y-69920506D01*
X146476185Y-69823815D01*
X146379494Y-69744463D01*
X146269180Y-69685498D01*
X146149482Y-69649188D01*
X146025000Y-69636928D01*
X145785750Y-69640000D01*
X145627000Y-69798750D01*
X145373000Y-69798750D01*
X145214250Y-69640000D01*
X144975000Y-69636928D01*
X144850518Y-69649188D01*
X144730820Y-69685498D01*
X144620506Y-69744463D01*
X144523815Y-69823815D01*
X144444463Y-69920506D01*
X144397151Y-70009020D01*
X144382144Y-69996704D01*
X144340921Y-69974670D01*
X146740220Y-67575372D01*
X146759527Y-67559527D01*
X146822759Y-67482479D01*
X146869745Y-67394575D01*
X146898678Y-67299193D01*
X146906000Y-67224854D01*
X146906000Y-67224853D01*
X146908448Y-67200000D01*
X146906000Y-67175146D01*
X146906000Y-61882252D01*
X146974689Y-61875487D01*
X147046508Y-61853701D01*
X147112696Y-61818322D01*
X147170711Y-61770711D01*
X147218322Y-61712696D01*
X147253701Y-61646508D01*
X147275487Y-61574689D01*
X147282843Y-61500000D01*
X147282843Y-60500000D01*
X147275487Y-60425311D01*
X147253701Y-60353492D01*
X147218322Y-60287304D01*
X147170711Y-60229289D01*
X147143858Y-60207251D01*
X147217875Y-60068775D01*
X147268252Y-59902706D01*
X147285262Y-59730000D01*
X147268252Y-59557294D01*
X147217875Y-59391225D01*
X147136068Y-59238175D01*
X147025975Y-59104025D01*
X147014978Y-59095000D01*
X147025975Y-59085975D01*
X147136068Y-58951825D01*
X147217875Y-58798775D01*
X147268252Y-58632706D01*
X147285262Y-58460000D01*
X147268252Y-58287294D01*
X147217875Y-58121225D01*
X147136068Y-57968175D01*
X147025975Y-57834025D01*
X147014978Y-57825000D01*
X147025975Y-57815975D01*
X147136068Y-57681825D01*
X147217875Y-57528775D01*
X147268252Y-57362706D01*
X147285262Y-57190000D01*
X147268252Y-57017294D01*
X147217875Y-56851225D01*
X147164626Y-56751604D01*
X147258865Y-56662020D01*
X147387123Y-56480206D01*
X147477446Y-56276864D01*
X147494119Y-56221874D01*
X147367954Y-56047000D01*
X146527000Y-56047000D01*
X146527000Y-56067000D01*
X146273000Y-56067000D01*
X146273000Y-56047000D01*
X145432046Y-56047000D01*
X145305881Y-56221874D01*
X145322554Y-56276864D01*
X145328756Y-56290827D01*
X145227809Y-56249013D01*
X145076922Y-56219000D01*
X145004640Y-56219000D01*
X145023564Y-56160290D01*
X145035000Y-56056751D01*
X144876250Y-55898001D01*
X144459327Y-55898001D01*
X144400000Y-55892158D01*
X143709358Y-55892158D01*
X143715850Y-55048751D01*
X143927000Y-55048751D01*
X143927000Y-55652001D01*
X144876250Y-55652001D01*
X144910125Y-55618126D01*
X145305881Y-55618126D01*
X145432046Y-55793000D01*
X146273000Y-55793000D01*
X146273000Y-54950871D01*
X146527000Y-54950871D01*
X146527000Y-55793000D01*
X147367954Y-55793000D01*
X147494119Y-55618126D01*
X147477446Y-55563136D01*
X147387123Y-55359794D01*
X147258865Y-55177980D01*
X147097601Y-55024682D01*
X146909529Y-54905790D01*
X146701876Y-54825874D01*
X146527000Y-54950871D01*
X146273000Y-54950871D01*
X146098124Y-54825874D01*
X145890471Y-54905790D01*
X145702399Y-55024682D01*
X145541135Y-55177980D01*
X145412877Y-55359794D01*
X145322554Y-55563136D01*
X145305881Y-55618126D01*
X144910125Y-55618126D01*
X145035000Y-55493251D01*
X145023564Y-55389712D01*
X144985189Y-55270660D01*
X144924325Y-55161382D01*
X144843312Y-55066078D01*
X144745263Y-54988410D01*
X144633945Y-54931363D01*
X144513637Y-54897130D01*
X144388961Y-54887024D01*
X144085750Y-54890001D01*
X143927000Y-55048751D01*
X143715850Y-55048751D01*
X143724263Y-53956000D01*
X147544000Y-53956000D01*
X147544001Y-72544000D01*
G36*
X132923750Y-58652001D02*
G01*
X133873000Y-58652001D01*
X133873000Y-58628001D01*
X134127000Y-58628001D01*
X134127000Y-58652001D01*
X135076250Y-58652001D01*
X135101251Y-58627000D01*
X142817157Y-58627000D01*
X142817157Y-59025001D01*
X142824513Y-59099690D01*
X142839775Y-59150001D01*
X142824513Y-59200312D01*
X142817157Y-59275001D01*
X142817157Y-59775001D01*
X142824513Y-59849690D01*
X142839775Y-59900001D01*
X142824513Y-59950312D01*
X142817157Y-60025001D01*
X142817157Y-60525001D01*
X142824513Y-60599690D01*
X142839775Y-60650001D01*
X142824513Y-60700312D01*
X142817157Y-60775001D01*
X142817157Y-61275001D01*
X142824513Y-61349690D01*
X142839775Y-61400001D01*
X142824513Y-61450312D01*
X142817157Y-61525001D01*
X142817157Y-62025001D01*
X142824513Y-62099690D01*
X142839775Y-62150001D01*
X142824513Y-62200312D01*
X142817157Y-62275001D01*
X142817157Y-62775001D01*
X142824513Y-62849690D01*
X142839775Y-62900001D01*
X142824513Y-62950312D01*
X142817157Y-63025001D01*
X142817157Y-63525001D01*
X142824513Y-63599690D01*
X142839775Y-63650001D01*
X142824513Y-63700312D01*
X142817157Y-63775001D01*
X142817157Y-64275001D01*
X142824513Y-64349690D01*
X142839775Y-64400001D01*
X142824513Y-64450312D01*
X142817157Y-64525001D01*
X142817157Y-65025001D01*
X142824513Y-65099690D01*
X142839775Y-65150001D01*
X142824513Y-65200312D01*
X142817157Y-65275001D01*
X142817157Y-65775001D01*
X142824513Y-65849690D01*
X142839775Y-65900001D01*
X142824513Y-65950312D01*
X142817157Y-66025001D01*
X142817157Y-66268178D01*
X142756688Y-66316078D01*
X142675675Y-66411382D01*
X142630686Y-66492158D01*
X142400000Y-66492158D01*
X142325311Y-66499514D01*
X142275000Y-66514776D01*
X142224689Y-66499514D01*
X142150000Y-66492158D01*
X141650000Y-66492158D01*
X141575311Y-66499514D01*
X141525000Y-66514776D01*
X141474689Y-66499514D01*
X141400000Y-66492158D01*
X140900000Y-66492158D01*
X140825311Y-66499514D01*
X140775000Y-66514776D01*
X140724689Y-66499514D01*
X140650000Y-66492158D01*
X140150000Y-66492158D01*
X140075311Y-66499514D01*
X140025000Y-66514776D01*
X139974689Y-66499514D01*
X139900000Y-66492158D01*
X139400000Y-66492158D01*
X139325311Y-66499514D01*
X139275000Y-66514776D01*
X139224689Y-66499514D01*
X139150000Y-66492158D01*
X138650000Y-66492158D01*
X138575311Y-66499514D01*
X138525000Y-66514776D01*
X138474689Y-66499514D01*
X138400000Y-66492158D01*
X137900000Y-66492158D01*
X137825311Y-66499514D01*
X137775000Y-66514776D01*
X137724689Y-66499514D01*
X137650000Y-66492158D01*
X137150000Y-66492158D01*
X137075311Y-66499514D01*
X137025000Y-66514776D01*
X136974689Y-66499514D01*
X136900000Y-66492158D01*
X136400000Y-66492158D01*
X136325311Y-66499514D01*
X136275000Y-66514776D01*
X136224689Y-66499514D01*
X136150000Y-66492158D01*
X135906823Y-66492158D01*
X135858923Y-66431689D01*
X135763619Y-66350676D01*
X135654341Y-66289812D01*
X135535289Y-66251437D01*
X135431750Y-66240001D01*
X135273000Y-66398751D01*
X135273000Y-66815674D01*
X135267157Y-66875001D01*
X135267157Y-68075001D01*
X135273000Y-68134328D01*
X135273000Y-68551251D01*
X135431750Y-68710001D01*
X135535289Y-68698565D01*
X135654341Y-68660190D01*
X135673773Y-68649367D01*
X136114625Y-69090220D01*
X136130470Y-69109527D01*
X136207518Y-69172759D01*
X136295422Y-69219745D01*
X136390804Y-69248678D01*
X136489997Y-69258448D01*
X136514851Y-69256000D01*
X138337128Y-69256000D01*
X138310498Y-69305820D01*
X138274188Y-69425518D01*
X138261928Y-69550000D01*
X138265000Y-69714250D01*
X138423750Y-69873000D01*
X139173000Y-69873000D01*
X139173000Y-69853000D01*
X139427000Y-69853000D01*
X139427000Y-69873000D01*
X139447000Y-69873000D01*
X139447000Y-70127000D01*
X139427000Y-70127000D01*
X139427000Y-70926250D01*
X139585750Y-71085000D01*
X139700000Y-71088072D01*
X139794506Y-71078764D01*
X139780255Y-71105426D01*
X139757676Y-71179863D01*
X139703492Y-71196299D01*
X139637304Y-71231678D01*
X139579289Y-71279289D01*
X139531678Y-71337304D01*
X139496299Y-71403492D01*
X139474513Y-71475311D01*
X139467157Y-71550000D01*
X139467157Y-72450000D01*
X139474513Y-72524689D01*
X139480371Y-72544000D01*
X139119629Y-72544000D01*
X139125487Y-72524689D01*
X139132843Y-72450000D01*
X139132843Y-71550000D01*
X139125487Y-71475311D01*
X139103701Y-71403492D01*
X139068322Y-71337304D01*
X139020711Y-71279289D01*
X138962696Y-71231678D01*
X138896508Y-71196299D01*
X138824689Y-71174513D01*
X138750000Y-71167157D01*
X137950000Y-71167157D01*
X137875311Y-71174513D01*
X137803492Y-71196299D01*
X137737304Y-71231678D01*
X137679289Y-71279289D01*
X137631678Y-71337304D01*
X137596299Y-71403492D01*
X137575746Y-71471245D01*
X137497859Y-71393358D01*
X137369942Y-71307887D01*
X137227809Y-71249013D01*
X137076922Y-71219000D01*
X136923078Y-71219000D01*
X136772191Y-71249013D01*
X136630058Y-71307887D01*
X136502141Y-71393358D01*
X136393358Y-71502141D01*
X136307887Y-71630058D01*
X136249013Y-71772191D01*
X136219000Y-71923078D01*
X136219000Y-72076922D01*
X136249013Y-72227809D01*
X136307887Y-72369942D01*
X136393358Y-72497859D01*
X136439499Y-72544000D01*
X129956000Y-72544000D01*
X129956000Y-69475000D01*
X130267157Y-69475000D01*
X130267157Y-70475000D01*
X130274592Y-70550082D01*
X130296453Y-70621878D01*
X130331900Y-70688029D01*
X130379572Y-70745994D01*
X130437637Y-70793545D01*
X131187637Y-71293545D01*
X131253122Y-71328547D01*
X131324918Y-71350408D01*
X131399600Y-71357843D01*
X131474296Y-71350565D01*
X131546138Y-71328854D01*
X131612363Y-71293545D01*
X132362363Y-70793545D01*
X132420711Y-70745711D01*
X132468322Y-70687696D01*
X132503701Y-70621508D01*
X132525487Y-70549689D01*
X132532843Y-70475000D01*
X132532843Y-70450000D01*
X138261928Y-70450000D01*
X138274188Y-70574482D01*
X138310498Y-70694180D01*
X138369463Y-70804494D01*
X138448815Y-70901185D01*
X138545506Y-70980537D01*
X138655820Y-71039502D01*
X138775518Y-71075812D01*
X138900000Y-71088072D01*
X139014250Y-71085000D01*
X139173000Y-70926250D01*
X139173000Y-70127000D01*
X138423750Y-70127000D01*
X138265000Y-70285750D01*
X138261928Y-70450000D01*
X132532843Y-70450000D01*
X132532843Y-69475000D01*
X132525487Y-69400311D01*
X132503701Y-69328492D01*
X132468322Y-69262304D01*
X132420711Y-69204289D01*
X132362696Y-69156678D01*
X132296508Y-69121299D01*
X132224689Y-69099513D01*
X132150000Y-69092157D01*
X131906000Y-69092157D01*
X131906000Y-68509591D01*
X132884591Y-67531001D01*
X133117216Y-67531001D01*
X133129289Y-67545712D01*
X133187304Y-67593323D01*
X133253492Y-67628702D01*
X133325311Y-67650488D01*
X133400000Y-67657844D01*
X134367907Y-67657844D01*
X134265000Y-67760751D01*
X134262023Y-68063962D01*
X134272129Y-68188638D01*
X134306362Y-68308946D01*
X134363409Y-68420264D01*
X134441077Y-68518313D01*
X134536381Y-68599326D01*
X134645659Y-68660190D01*
X134764711Y-68698565D01*
X134868250Y-68710001D01*
X135027000Y-68551251D01*
X135027000Y-67602001D01*
X135003000Y-67602001D01*
X135003000Y-67348001D01*
X135027000Y-67348001D01*
X135027000Y-66398751D01*
X134982843Y-66354594D01*
X134982843Y-66025001D01*
X134975487Y-65950312D01*
X134960225Y-65900001D01*
X134975487Y-65849690D01*
X134982843Y-65775001D01*
X134982843Y-65275001D01*
X134975487Y-65200312D01*
X134960225Y-65150001D01*
X134975487Y-65099690D01*
X134982843Y-65025001D01*
X134982843Y-64525001D01*
X134975487Y-64450312D01*
X134960225Y-64400001D01*
X134975487Y-64349690D01*
X134982843Y-64275001D01*
X134982843Y-63775001D01*
X134975487Y-63700312D01*
X134960225Y-63650001D01*
X134975487Y-63599690D01*
X134982843Y-63525001D01*
X134982843Y-63025001D01*
X134975487Y-62950312D01*
X134960225Y-62900001D01*
X134975487Y-62849690D01*
X134982843Y-62775001D01*
X134982843Y-62275001D01*
X134975487Y-62200312D01*
X134960225Y-62150001D01*
X134975487Y-62099690D01*
X134982843Y-62025001D01*
X134982843Y-61525001D01*
X134975487Y-61450312D01*
X134960225Y-61400001D01*
X134975487Y-61349690D01*
X134982843Y-61275001D01*
X134982843Y-60775001D01*
X134975487Y-60700312D01*
X134960225Y-60650001D01*
X134975487Y-60599690D01*
X134982843Y-60525001D01*
X134982843Y-60025001D01*
X134975487Y-59950312D01*
X134960225Y-59900001D01*
X134975487Y-59849690D01*
X134982843Y-59775001D01*
X134982843Y-59531824D01*
X135043312Y-59483924D01*
X135124325Y-59388620D01*
X135185189Y-59279342D01*
X135223564Y-59160290D01*
X135235000Y-59056751D01*
X135076250Y-58898001D01*
X134659327Y-58898001D01*
X134600000Y-58892158D01*
X133400000Y-58892158D01*
X133340673Y-58898001D01*
X132923750Y-58898001D01*
X132765000Y-59056751D01*
X132776436Y-59160290D01*
X132814811Y-59279342D01*
X132875675Y-59388620D01*
X132956688Y-59483924D01*
X133017157Y-59531824D01*
X133017157Y-59775001D01*
X133024513Y-59849690D01*
X133039775Y-59900001D01*
X133024513Y-59950312D01*
X133017157Y-60025001D01*
X133017157Y-60525001D01*
X133024513Y-60599690D01*
X133039775Y-60650001D01*
X133024513Y-60700312D01*
X133017157Y-60775001D01*
X133017157Y-61275001D01*
X133024513Y-61349690D01*
X133039775Y-61400001D01*
X133024513Y-61450312D01*
X133017157Y-61525001D01*
X133017157Y-62025001D01*
X133024513Y-62099690D01*
X133039775Y-62150001D01*
X133024513Y-62200312D01*
X133017157Y-62275001D01*
X133017157Y-62775001D01*
X133024513Y-62849690D01*
X133039775Y-62900001D01*
X133024513Y-62950312D01*
X133017157Y-63025001D01*
X133017157Y-63525001D01*
X133024513Y-63599690D01*
X133039775Y-63650001D01*
X133024513Y-63700312D01*
X133017157Y-63775001D01*
X133017157Y-64275001D01*
X133024513Y-64349690D01*
X133039775Y-64400001D01*
X133024513Y-64450312D01*
X133017157Y-64525001D01*
X133017157Y-65025001D01*
X133024513Y-65099690D01*
X133039775Y-65150001D01*
X133024513Y-65200312D01*
X133017157Y-65275001D01*
X133017157Y-65775001D01*
X133024513Y-65849690D01*
X133039775Y-65900001D01*
X133024513Y-65950312D01*
X133017157Y-66025001D01*
X133017157Y-66519001D01*
X132699853Y-66519001D01*
X132674999Y-66516553D01*
X132589228Y-66525001D01*
X132575806Y-66526323D01*
X132480424Y-66555256D01*
X132392520Y-66602242D01*
X132315472Y-66665474D01*
X132299627Y-66684781D01*
X131059785Y-67924624D01*
X131040473Y-67940473D01*
X130977241Y-68017521D01*
X130930255Y-68105426D01*
X130901322Y-68200808D01*
X130894000Y-68275147D01*
X130894000Y-68275154D01*
X130891553Y-68300000D01*
X130894000Y-68324847D01*
X130894000Y-69092157D01*
X130650000Y-69092157D01*
X130575311Y-69099513D01*
X130503492Y-69121299D01*
X130437304Y-69156678D01*
X130379289Y-69204289D01*
X130331678Y-69262304D01*
X130296299Y-69328492D01*
X130274513Y-69400311D01*
X130267157Y-69475000D01*
X129956000Y-69475000D01*
X129956000Y-66282536D01*
X129994463Y-66354494D01*
X130073815Y-66451185D01*
X130170506Y-66530537D01*
X130280820Y-66589502D01*
X130400518Y-66625812D01*
X130525000Y-66638072D01*
X130714250Y-66635000D01*
X130873000Y-66476250D01*
X130873000Y-65602000D01*
X131127000Y-65602000D01*
X131127000Y-66476250D01*
X131285750Y-66635000D01*
X131475000Y-66638072D01*
X131599482Y-66625812D01*
X131719180Y-66589502D01*
X131829494Y-66530537D01*
X131926185Y-66451185D01*
X132005537Y-66354494D01*
X132064502Y-66244180D01*
X132100812Y-66124482D01*
X132113072Y-66000000D01*
X132110000Y-65760750D01*
X131951250Y-65602000D01*
X131127000Y-65602000D01*
X130873000Y-65602000D01*
X130853000Y-65602000D01*
X130853000Y-65348000D01*
X130873000Y-65348000D01*
X130873000Y-65328000D01*
X131127000Y-65328000D01*
X131127000Y-65348000D01*
X131951250Y-65348000D01*
X132110000Y-65189250D01*
X132113072Y-64950000D01*
X132100812Y-64825518D01*
X132064502Y-64705820D01*
X132005537Y-64595506D01*
X131926185Y-64498815D01*
X131829494Y-64419463D01*
X131740980Y-64372151D01*
X131753296Y-64357144D01*
X131810622Y-64249895D01*
X131845923Y-64133523D01*
X131857843Y-64012500D01*
X131857843Y-63437500D01*
X131845923Y-63316477D01*
X131810622Y-63200105D01*
X131753296Y-63092856D01*
X131676149Y-62998851D01*
X131582144Y-62921704D01*
X131506000Y-62881004D01*
X131506000Y-61998501D01*
X131606642Y-61897859D01*
X131692113Y-61769942D01*
X131750987Y-61627809D01*
X131781000Y-61476922D01*
X131781000Y-61323078D01*
X131750987Y-61172191D01*
X131692113Y-61030058D01*
X131606642Y-60902141D01*
X131497859Y-60793358D01*
X131369942Y-60707887D01*
X131227809Y-60649013D01*
X131076922Y-60619000D01*
X130923078Y-60619000D01*
X130772191Y-60649013D01*
X130630058Y-60707887D01*
X130502141Y-60793358D01*
X130393358Y-60902141D01*
X130307887Y-61030058D01*
X130249013Y-61172191D01*
X130219000Y-61323078D01*
X130219000Y-61476922D01*
X130249013Y-61627809D01*
X130307887Y-61769942D01*
X130393358Y-61897859D01*
X130494001Y-61998502D01*
X130494000Y-62881004D01*
X130417856Y-62921704D01*
X130323851Y-62998851D01*
X130246704Y-63092856D01*
X130189378Y-63200105D01*
X130154077Y-63316477D01*
X130142157Y-63437500D01*
X130142157Y-64012500D01*
X130154077Y-64133523D01*
X130189378Y-64249895D01*
X130246704Y-64357144D01*
X130259020Y-64372151D01*
X130170506Y-64419463D01*
X130073815Y-64498815D01*
X129994463Y-64595506D01*
X129956000Y-64667464D01*
X129956000Y-58627000D01*
X132898749Y-58627000D01*
X132923750Y-58652001D01*
X132923750Y-58652001D01*
G37*
X132923750Y-58652001D02*
X133873000Y-58652001D01*
X133873000Y-58628001D01*
X134127000Y-58628001D01*
X134127000Y-58652001D01*
X135076250Y-58652001D01*
X135101251Y-58627000D01*
X142817157Y-58627000D01*
X142817157Y-59025001D01*
X142824513Y-59099690D01*
X142839775Y-59150001D01*
X142824513Y-59200312D01*
X142817157Y-59275001D01*
X142817157Y-59775001D01*
X142824513Y-59849690D01*
X142839775Y-59900001D01*
X142824513Y-59950312D01*
X142817157Y-60025001D01*
X142817157Y-60525001D01*
X142824513Y-60599690D01*
X142839775Y-60650001D01*
X142824513Y-60700312D01*
X142817157Y-60775001D01*
X142817157Y-61275001D01*
X142824513Y-61349690D01*
X142839775Y-61400001D01*
X142824513Y-61450312D01*
X142817157Y-61525001D01*
X142817157Y-62025001D01*
X142824513Y-62099690D01*
X142839775Y-62150001D01*
X142824513Y-62200312D01*
X142817157Y-62275001D01*
X142817157Y-62775001D01*
X142824513Y-62849690D01*
X142839775Y-62900001D01*
X142824513Y-62950312D01*
X142817157Y-63025001D01*
X142817157Y-63525001D01*
X142824513Y-63599690D01*
X142839775Y-63650001D01*
X142824513Y-63700312D01*
X142817157Y-63775001D01*
X142817157Y-64275001D01*
X142824513Y-64349690D01*
X142839775Y-64400001D01*
X142824513Y-64450312D01*
X142817157Y-64525001D01*
X142817157Y-65025001D01*
X142824513Y-65099690D01*
X142839775Y-65150001D01*
X142824513Y-65200312D01*
X142817157Y-65275001D01*
X142817157Y-65775001D01*
X142824513Y-65849690D01*
X142839775Y-65900001D01*
X142824513Y-65950312D01*
X142817157Y-66025001D01*
X142817157Y-66268178D01*
X142756688Y-66316078D01*
X142675675Y-66411382D01*
X142630686Y-66492158D01*
X142400000Y-66492158D01*
X142325311Y-66499514D01*
X142275000Y-66514776D01*
X142224689Y-66499514D01*
X142150000Y-66492158D01*
X141650000Y-66492158D01*
X141575311Y-66499514D01*
X141525000Y-66514776D01*
X141474689Y-66499514D01*
X141400000Y-66492158D01*
X140900000Y-66492158D01*
X140825311Y-66499514D01*
X140775000Y-66514776D01*
X140724689Y-66499514D01*
X140650000Y-66492158D01*
X140150000Y-66492158D01*
X140075311Y-66499514D01*
X140025000Y-66514776D01*
X139974689Y-66499514D01*
X139900000Y-66492158D01*
X139400000Y-66492158D01*
X139325311Y-66499514D01*
X139275000Y-66514776D01*
X139224689Y-66499514D01*
X139150000Y-66492158D01*
X138650000Y-66492158D01*
X138575311Y-66499514D01*
X138525000Y-66514776D01*
X138474689Y-66499514D01*
X138400000Y-66492158D01*
X137900000Y-66492158D01*
X137825311Y-66499514D01*
X137775000Y-66514776D01*
X137724689Y-66499514D01*
X137650000Y-66492158D01*
X137150000Y-66492158D01*
X137075311Y-66499514D01*
X137025000Y-66514776D01*
X136974689Y-66499514D01*
X136900000Y-66492158D01*
X136400000Y-66492158D01*
X136325311Y-66499514D01*
X136275000Y-66514776D01*
X136224689Y-66499514D01*
X136150000Y-66492158D01*
X135906823Y-66492158D01*
X135858923Y-66431689D01*
X135763619Y-66350676D01*
X135654341Y-66289812D01*
X135535289Y-66251437D01*
X135431750Y-66240001D01*
X135273000Y-66398751D01*
X135273000Y-66815674D01*
X135267157Y-66875001D01*
X135267157Y-68075001D01*
X135273000Y-68134328D01*
X135273000Y-68551251D01*
X135431750Y-68710001D01*
X135535289Y-68698565D01*
X135654341Y-68660190D01*
X135673773Y-68649367D01*
X136114625Y-69090220D01*
X136130470Y-69109527D01*
X136207518Y-69172759D01*
X136295422Y-69219745D01*
X136390804Y-69248678D01*
X136489997Y-69258448D01*
X136514851Y-69256000D01*
X138337128Y-69256000D01*
X138310498Y-69305820D01*
X138274188Y-69425518D01*
X138261928Y-69550000D01*
X138265000Y-69714250D01*
X138423750Y-69873000D01*
X139173000Y-69873000D01*
X139173000Y-69853000D01*
X139427000Y-69853000D01*
X139427000Y-69873000D01*
X139447000Y-69873000D01*
X139447000Y-70127000D01*
X139427000Y-70127000D01*
X139427000Y-70926250D01*
X139585750Y-71085000D01*
X139700000Y-71088072D01*
X139794506Y-71078764D01*
X139780255Y-71105426D01*
X139757676Y-71179863D01*
X139703492Y-71196299D01*
X139637304Y-71231678D01*
X139579289Y-71279289D01*
X139531678Y-71337304D01*
X139496299Y-71403492D01*
X139474513Y-71475311D01*
X139467157Y-71550000D01*
X139467157Y-72450000D01*
X139474513Y-72524689D01*
X139480371Y-72544000D01*
X139119629Y-72544000D01*
X139125487Y-72524689D01*
X139132843Y-72450000D01*
X139132843Y-71550000D01*
X139125487Y-71475311D01*
X139103701Y-71403492D01*
X139068322Y-71337304D01*
X139020711Y-71279289D01*
X138962696Y-71231678D01*
X138896508Y-71196299D01*
X138824689Y-71174513D01*
X138750000Y-71167157D01*
X137950000Y-71167157D01*
X137875311Y-71174513D01*
X137803492Y-71196299D01*
X137737304Y-71231678D01*
X137679289Y-71279289D01*
X137631678Y-71337304D01*
X137596299Y-71403492D01*
X137575746Y-71471245D01*
X137497859Y-71393358D01*
X137369942Y-71307887D01*
X137227809Y-71249013D01*
X137076922Y-71219000D01*
X136923078Y-71219000D01*
X136772191Y-71249013D01*
X136630058Y-71307887D01*
X136502141Y-71393358D01*
X136393358Y-71502141D01*
X136307887Y-71630058D01*
X136249013Y-71772191D01*
X136219000Y-71923078D01*
X136219000Y-72076922D01*
X136249013Y-72227809D01*
X136307887Y-72369942D01*
X136393358Y-72497859D01*
X136439499Y-72544000D01*
X129956000Y-72544000D01*
X129956000Y-69475000D01*
X130267157Y-69475000D01*
X130267157Y-70475000D01*
X130274592Y-70550082D01*
X130296453Y-70621878D01*
X130331900Y-70688029D01*
X130379572Y-70745994D01*
X130437637Y-70793545D01*
X131187637Y-71293545D01*
X131253122Y-71328547D01*
X131324918Y-71350408D01*
X131399600Y-71357843D01*
X131474296Y-71350565D01*
X131546138Y-71328854D01*
X131612363Y-71293545D01*
X132362363Y-70793545D01*
X132420711Y-70745711D01*
X132468322Y-70687696D01*
X132503701Y-70621508D01*
X132525487Y-70549689D01*
X132532843Y-70475000D01*
X132532843Y-70450000D01*
X138261928Y-70450000D01*
X138274188Y-70574482D01*
X138310498Y-70694180D01*
X138369463Y-70804494D01*
X138448815Y-70901185D01*
X138545506Y-70980537D01*
X138655820Y-71039502D01*
X138775518Y-71075812D01*
X138900000Y-71088072D01*
X139014250Y-71085000D01*
X139173000Y-70926250D01*
X139173000Y-70127000D01*
X138423750Y-70127000D01*
X138265000Y-70285750D01*
X138261928Y-70450000D01*
X132532843Y-70450000D01*
X132532843Y-69475000D01*
X132525487Y-69400311D01*
X132503701Y-69328492D01*
X132468322Y-69262304D01*
X132420711Y-69204289D01*
X132362696Y-69156678D01*
X132296508Y-69121299D01*
X132224689Y-69099513D01*
X132150000Y-69092157D01*
X131906000Y-69092157D01*
X131906000Y-68509591D01*
X132884591Y-67531001D01*
X133117216Y-67531001D01*
X133129289Y-67545712D01*
X133187304Y-67593323D01*
X133253492Y-67628702D01*
X133325311Y-67650488D01*
X133400000Y-67657844D01*
X134367907Y-67657844D01*
X134265000Y-67760751D01*
X134262023Y-68063962D01*
X134272129Y-68188638D01*
X134306362Y-68308946D01*
X134363409Y-68420264D01*
X134441077Y-68518313D01*
X134536381Y-68599326D01*
X134645659Y-68660190D01*
X134764711Y-68698565D01*
X134868250Y-68710001D01*
X135027000Y-68551251D01*
X135027000Y-67602001D01*
X135003000Y-67602001D01*
X135003000Y-67348001D01*
X135027000Y-67348001D01*
X135027000Y-66398751D01*
X134982843Y-66354594D01*
X134982843Y-66025001D01*
X134975487Y-65950312D01*
X134960225Y-65900001D01*
X134975487Y-65849690D01*
X134982843Y-65775001D01*
X134982843Y-65275001D01*
X134975487Y-65200312D01*
X134960225Y-65150001D01*
X134975487Y-65099690D01*
X134982843Y-65025001D01*
X134982843Y-64525001D01*
X134975487Y-64450312D01*
X134960225Y-64400001D01*
X134975487Y-64349690D01*
X134982843Y-64275001D01*
X134982843Y-63775001D01*
X134975487Y-63700312D01*
X134960225Y-63650001D01*
X134975487Y-63599690D01*
X134982843Y-63525001D01*
X134982843Y-63025001D01*
X134975487Y-62950312D01*
X134960225Y-62900001D01*
X134975487Y-62849690D01*
X134982843Y-62775001D01*
X134982843Y-62275001D01*
X134975487Y-62200312D01*
X134960225Y-62150001D01*
X134975487Y-62099690D01*
X134982843Y-62025001D01*
X134982843Y-61525001D01*
X134975487Y-61450312D01*
X134960225Y-61400001D01*
X134975487Y-61349690D01*
X134982843Y-61275001D01*
X134982843Y-60775001D01*
X134975487Y-60700312D01*
X134960225Y-60650001D01*
X134975487Y-60599690D01*
X134982843Y-60525001D01*
X134982843Y-60025001D01*
X134975487Y-59950312D01*
X134960225Y-59900001D01*
X134975487Y-59849690D01*
X134982843Y-59775001D01*
X134982843Y-59531824D01*
X135043312Y-59483924D01*
X135124325Y-59388620D01*
X135185189Y-59279342D01*
X135223564Y-59160290D01*
X135235000Y-59056751D01*
X135076250Y-58898001D01*
X134659327Y-58898001D01*
X134600000Y-58892158D01*
X133400000Y-58892158D01*
X133340673Y-58898001D01*
X132923750Y-58898001D01*
X132765000Y-59056751D01*
X132776436Y-59160290D01*
X132814811Y-59279342D01*
X132875675Y-59388620D01*
X132956688Y-59483924D01*
X133017157Y-59531824D01*
X133017157Y-59775001D01*
X133024513Y-59849690D01*
X133039775Y-59900001D01*
X133024513Y-59950312D01*
X133017157Y-60025001D01*
X133017157Y-60525001D01*
X133024513Y-60599690D01*
X133039775Y-60650001D01*
X133024513Y-60700312D01*
X133017157Y-60775001D01*
X133017157Y-61275001D01*
X133024513Y-61349690D01*
X133039775Y-61400001D01*
X133024513Y-61450312D01*
X133017157Y-61525001D01*
X133017157Y-62025001D01*
X133024513Y-62099690D01*
X133039775Y-62150001D01*
X133024513Y-62200312D01*
X133017157Y-62275001D01*
X133017157Y-62775001D01*
X133024513Y-62849690D01*
X133039775Y-62900001D01*
X133024513Y-62950312D01*
X133017157Y-63025001D01*
X133017157Y-63525001D01*
X133024513Y-63599690D01*
X133039775Y-63650001D01*
X133024513Y-63700312D01*
X133017157Y-63775001D01*
X133017157Y-64275001D01*
X133024513Y-64349690D01*
X133039775Y-64400001D01*
X133024513Y-64450312D01*
X133017157Y-64525001D01*
X133017157Y-65025001D01*
X133024513Y-65099690D01*
X133039775Y-65150001D01*
X133024513Y-65200312D01*
X133017157Y-65275001D01*
X133017157Y-65775001D01*
X133024513Y-65849690D01*
X133039775Y-65900001D01*
X133024513Y-65950312D01*
X133017157Y-66025001D01*
X133017157Y-66519001D01*
X132699853Y-66519001D01*
X132674999Y-66516553D01*
X132589228Y-66525001D01*
X132575806Y-66526323D01*
X132480424Y-66555256D01*
X132392520Y-66602242D01*
X132315472Y-66665474D01*
X132299627Y-66684781D01*
X131059785Y-67924624D01*
X131040473Y-67940473D01*
X130977241Y-68017521D01*
X130930255Y-68105426D01*
X130901322Y-68200808D01*
X130894000Y-68275147D01*
X130894000Y-68275154D01*
X130891553Y-68300000D01*
X130894000Y-68324847D01*
X130894000Y-69092157D01*
X130650000Y-69092157D01*
X130575311Y-69099513D01*
X130503492Y-69121299D01*
X130437304Y-69156678D01*
X130379289Y-69204289D01*
X130331678Y-69262304D01*
X130296299Y-69328492D01*
X130274513Y-69400311D01*
X130267157Y-69475000D01*
X129956000Y-69475000D01*
X129956000Y-66282536D01*
X129994463Y-66354494D01*
X130073815Y-66451185D01*
X130170506Y-66530537D01*
X130280820Y-66589502D01*
X130400518Y-66625812D01*
X130525000Y-66638072D01*
X130714250Y-66635000D01*
X130873000Y-66476250D01*
X130873000Y-65602000D01*
X131127000Y-65602000D01*
X131127000Y-66476250D01*
X131285750Y-66635000D01*
X131475000Y-66638072D01*
X131599482Y-66625812D01*
X131719180Y-66589502D01*
X131829494Y-66530537D01*
X131926185Y-66451185D01*
X132005537Y-66354494D01*
X132064502Y-66244180D01*
X132100812Y-66124482D01*
X132113072Y-66000000D01*
X132110000Y-65760750D01*
X131951250Y-65602000D01*
X131127000Y-65602000D01*
X130873000Y-65602000D01*
X130853000Y-65602000D01*
X130853000Y-65348000D01*
X130873000Y-65348000D01*
X130873000Y-65328000D01*
X131127000Y-65328000D01*
X131127000Y-65348000D01*
X131951250Y-65348000D01*
X132110000Y-65189250D01*
X132113072Y-64950000D01*
X132100812Y-64825518D01*
X132064502Y-64705820D01*
X132005537Y-64595506D01*
X131926185Y-64498815D01*
X131829494Y-64419463D01*
X131740980Y-64372151D01*
X131753296Y-64357144D01*
X131810622Y-64249895D01*
X131845923Y-64133523D01*
X131857843Y-64012500D01*
X131857843Y-63437500D01*
X131845923Y-63316477D01*
X131810622Y-63200105D01*
X131753296Y-63092856D01*
X131676149Y-62998851D01*
X131582144Y-62921704D01*
X131506000Y-62881004D01*
X131506000Y-61998501D01*
X131606642Y-61897859D01*
X131692113Y-61769942D01*
X131750987Y-61627809D01*
X131781000Y-61476922D01*
X131781000Y-61323078D01*
X131750987Y-61172191D01*
X131692113Y-61030058D01*
X131606642Y-60902141D01*
X131497859Y-60793358D01*
X131369942Y-60707887D01*
X131227809Y-60649013D01*
X131076922Y-60619000D01*
X130923078Y-60619000D01*
X130772191Y-60649013D01*
X130630058Y-60707887D01*
X130502141Y-60793358D01*
X130393358Y-60902141D01*
X130307887Y-61030058D01*
X130249013Y-61172191D01*
X130219000Y-61323078D01*
X130219000Y-61476922D01*
X130249013Y-61627809D01*
X130307887Y-61769942D01*
X130393358Y-61897859D01*
X130494001Y-61998502D01*
X130494000Y-62881004D01*
X130417856Y-62921704D01*
X130323851Y-62998851D01*
X130246704Y-63092856D01*
X130189378Y-63200105D01*
X130154077Y-63316477D01*
X130142157Y-63437500D01*
X130142157Y-64012500D01*
X130154077Y-64133523D01*
X130189378Y-64249895D01*
X130246704Y-64357144D01*
X130259020Y-64372151D01*
X130170506Y-64419463D01*
X130073815Y-64498815D01*
X129994463Y-64595506D01*
X129956000Y-64667464D01*
X129956000Y-58627000D01*
X132898749Y-58627000D01*
X132923750Y-58652001D01*
G36*
X145582125Y-60068775D02*
G01*
X145656142Y-60207251D01*
X145629289Y-60229289D01*
X145581678Y-60287304D01*
X145546299Y-60353492D01*
X145524513Y-60425311D01*
X145517157Y-60500000D01*
X145517157Y-61500000D01*
X145524513Y-61574689D01*
X145546299Y-61646508D01*
X145581678Y-61712696D01*
X145629289Y-61770711D01*
X145687304Y-61818322D01*
X145753492Y-61853701D01*
X145825311Y-61875487D01*
X145894001Y-61882252D01*
X145894000Y-66524853D01*
X145894001Y-66524862D01*
X145894000Y-66990408D01*
X143409781Y-69474628D01*
X143390474Y-69490473D01*
X143327242Y-69567521D01*
X143302127Y-69614508D01*
X143280255Y-69655426D01*
X143251322Y-69750808D01*
X143241553Y-69850000D01*
X143244001Y-69874856D01*
X143244001Y-69933646D01*
X143225105Y-69939378D01*
X143117856Y-69996704D01*
X143023851Y-70073851D01*
X142946704Y-70167856D01*
X142906004Y-70244000D01*
X141648179Y-70244000D01*
X141519670Y-70115491D01*
X141503821Y-70096179D01*
X141484514Y-70080334D01*
X139862024Y-68457844D01*
X139900000Y-68457844D01*
X139974689Y-68450488D01*
X140025000Y-68435226D01*
X140075311Y-68450488D01*
X140150000Y-68457844D01*
X140650000Y-68457844D01*
X140724689Y-68450488D01*
X140775000Y-68435226D01*
X140825311Y-68450488D01*
X140900000Y-68457844D01*
X141400000Y-68457844D01*
X141474689Y-68450488D01*
X141525000Y-68435226D01*
X141575311Y-68450488D01*
X141650000Y-68457844D01*
X142150000Y-68457844D01*
X142224689Y-68450488D01*
X142275000Y-68435226D01*
X142325311Y-68450488D01*
X142400000Y-68457844D01*
X142900000Y-68457844D01*
X142974689Y-68450488D01*
X143046508Y-68428702D01*
X143112696Y-68393323D01*
X143170711Y-68345712D01*
X143218322Y-68287697D01*
X143253701Y-68221509D01*
X143275487Y-68149690D01*
X143282843Y-68075001D01*
X143282843Y-67912273D01*
X143514250Y-67910001D01*
X143673000Y-67751251D01*
X143673000Y-67148001D01*
X143927000Y-67148001D01*
X143927000Y-67751251D01*
X144085750Y-67910001D01*
X144388961Y-67912978D01*
X144513637Y-67902872D01*
X144633945Y-67868639D01*
X144745263Y-67811592D01*
X144843312Y-67733924D01*
X144924325Y-67638620D01*
X144985189Y-67529342D01*
X145023564Y-67410290D01*
X145035000Y-67306751D01*
X144876250Y-67148001D01*
X143927000Y-67148001D01*
X143673000Y-67148001D01*
X143653000Y-67148001D01*
X143653000Y-66907844D01*
X144400000Y-66907844D01*
X144459327Y-66902001D01*
X144876250Y-66902001D01*
X145035000Y-66743251D01*
X145023564Y-66639712D01*
X144985189Y-66520660D01*
X144924325Y-66411382D01*
X144843312Y-66316078D01*
X144782843Y-66268178D01*
X144782843Y-66025001D01*
X144775487Y-65950312D01*
X144760225Y-65900001D01*
X144775487Y-65849690D01*
X144782843Y-65775001D01*
X144782843Y-65275001D01*
X144775487Y-65200312D01*
X144760225Y-65150001D01*
X144775487Y-65099690D01*
X144782843Y-65025001D01*
X144782843Y-64525001D01*
X144775487Y-64450312D01*
X144760225Y-64400001D01*
X144775487Y-64349690D01*
X144782843Y-64275001D01*
X144782843Y-63775001D01*
X144775487Y-63700312D01*
X144760225Y-63650001D01*
X144775487Y-63599690D01*
X144782843Y-63525001D01*
X144782843Y-63025001D01*
X144775487Y-62950312D01*
X144760225Y-62900001D01*
X144775487Y-62849690D01*
X144782843Y-62775001D01*
X144782843Y-62275001D01*
X144775487Y-62200312D01*
X144760225Y-62150001D01*
X144775487Y-62099690D01*
X144782843Y-62025001D01*
X144782843Y-61525001D01*
X144775487Y-61450312D01*
X144760225Y-61400001D01*
X144775487Y-61349690D01*
X144782843Y-61275001D01*
X144782843Y-60775001D01*
X144781740Y-60763806D01*
X144844575Y-60744746D01*
X144932479Y-60697760D01*
X145009527Y-60634528D01*
X145025376Y-60615216D01*
X145579726Y-60060866D01*
X145582125Y-60068775D01*
X145582125Y-60068775D01*
G37*
X145582125Y-60068775D02*
X145656142Y-60207251D01*
X145629289Y-60229289D01*
X145581678Y-60287304D01*
X145546299Y-60353492D01*
X145524513Y-60425311D01*
X145517157Y-60500000D01*
X145517157Y-61500000D01*
X145524513Y-61574689D01*
X145546299Y-61646508D01*
X145581678Y-61712696D01*
X145629289Y-61770711D01*
X145687304Y-61818322D01*
X145753492Y-61853701D01*
X145825311Y-61875487D01*
X145894001Y-61882252D01*
X145894000Y-66524853D01*
X145894001Y-66524862D01*
X145894000Y-66990408D01*
X143409781Y-69474628D01*
X143390474Y-69490473D01*
X143327242Y-69567521D01*
X143302127Y-69614508D01*
X143280255Y-69655426D01*
X143251322Y-69750808D01*
X143241553Y-69850000D01*
X143244001Y-69874856D01*
X143244001Y-69933646D01*
X143225105Y-69939378D01*
X143117856Y-69996704D01*
X143023851Y-70073851D01*
X142946704Y-70167856D01*
X142906004Y-70244000D01*
X141648179Y-70244000D01*
X141519670Y-70115491D01*
X141503821Y-70096179D01*
X141484514Y-70080334D01*
X139862024Y-68457844D01*
X139900000Y-68457844D01*
X139974689Y-68450488D01*
X140025000Y-68435226D01*
X140075311Y-68450488D01*
X140150000Y-68457844D01*
X140650000Y-68457844D01*
X140724689Y-68450488D01*
X140775000Y-68435226D01*
X140825311Y-68450488D01*
X140900000Y-68457844D01*
X141400000Y-68457844D01*
X141474689Y-68450488D01*
X141525000Y-68435226D01*
X141575311Y-68450488D01*
X141650000Y-68457844D01*
X142150000Y-68457844D01*
X142224689Y-68450488D01*
X142275000Y-68435226D01*
X142325311Y-68450488D01*
X142400000Y-68457844D01*
X142900000Y-68457844D01*
X142974689Y-68450488D01*
X143046508Y-68428702D01*
X143112696Y-68393323D01*
X143170711Y-68345712D01*
X143218322Y-68287697D01*
X143253701Y-68221509D01*
X143275487Y-68149690D01*
X143282843Y-68075001D01*
X143282843Y-67912273D01*
X143514250Y-67910001D01*
X143673000Y-67751251D01*
X143673000Y-67148001D01*
X143927000Y-67148001D01*
X143927000Y-67751251D01*
X144085750Y-67910001D01*
X144388961Y-67912978D01*
X144513637Y-67902872D01*
X144633945Y-67868639D01*
X144745263Y-67811592D01*
X144843312Y-67733924D01*
X144924325Y-67638620D01*
X144985189Y-67529342D01*
X145023564Y-67410290D01*
X145035000Y-67306751D01*
X144876250Y-67148001D01*
X143927000Y-67148001D01*
X143673000Y-67148001D01*
X143653000Y-67148001D01*
X143653000Y-66907844D01*
X144400000Y-66907844D01*
X144459327Y-66902001D01*
X144876250Y-66902001D01*
X145035000Y-66743251D01*
X145023564Y-66639712D01*
X144985189Y-66520660D01*
X144924325Y-66411382D01*
X144843312Y-66316078D01*
X144782843Y-66268178D01*
X144782843Y-66025001D01*
X144775487Y-65950312D01*
X144760225Y-65900001D01*
X144775487Y-65849690D01*
X144782843Y-65775001D01*
X144782843Y-65275001D01*
X144775487Y-65200312D01*
X144760225Y-65150001D01*
X144775487Y-65099690D01*
X144782843Y-65025001D01*
X144782843Y-64525001D01*
X144775487Y-64450312D01*
X144760225Y-64400001D01*
X144775487Y-64349690D01*
X144782843Y-64275001D01*
X144782843Y-63775001D01*
X144775487Y-63700312D01*
X144760225Y-63650001D01*
X144775487Y-63599690D01*
X144782843Y-63525001D01*
X144782843Y-63025001D01*
X144775487Y-62950312D01*
X144760225Y-62900001D01*
X144775487Y-62849690D01*
X144782843Y-62775001D01*
X144782843Y-62275001D01*
X144775487Y-62200312D01*
X144760225Y-62150001D01*
X144775487Y-62099690D01*
X144782843Y-62025001D01*
X144782843Y-61525001D01*
X144775487Y-61450312D01*
X144760225Y-61400001D01*
X144775487Y-61349690D01*
X144782843Y-61275001D01*
X144782843Y-60775001D01*
X144781740Y-60763806D01*
X144844575Y-60744746D01*
X144932479Y-60697760D01*
X145009527Y-60634528D01*
X145025376Y-60615216D01*
X145579726Y-60060866D01*
X145582125Y-60068775D01*
M02*
