G04 #@! TF.GenerationSoftware,KiCad,Pcbnew,(5.1.0)-1*
G04 #@! TF.CreationDate,2019-05-02T11:49:17+02:00*
G04 #@! TF.ProjectId,expansion,65787061-6e73-4696-9f6e-2e6b69636164,rev?*
G04 #@! TF.SameCoordinates,Original*
G04 #@! TF.FileFunction,Paste,Top*
G04 #@! TF.FilePolarity,Positive*
%FSLAX46Y46*%
G04 Gerber Fmt 4.6, Leading zero omitted, Abs format (unit mm)*
G04 Created by KiCad (PCBNEW (5.1.0)-1) date 2019-05-02 11:49:17*
%MOMM*%
%LPD*%
G04 APERTURE LIST*
%ADD10R,1.200000X0.500000*%
%ADD11R,0.500000X1.200000*%
%ADD12C,0.100000*%
%ADD13C,0.950000*%
%ADD14R,0.800000X0.900000*%
G04 APERTURE END LIST*
D10*
X134000000Y-58775001D03*
X134000000Y-59525001D03*
X134000000Y-60275001D03*
X134000000Y-61025001D03*
X134000000Y-61775001D03*
X134000000Y-62525001D03*
X134000000Y-63275001D03*
X134000000Y-64025001D03*
X134000000Y-64775001D03*
X134000000Y-65525001D03*
X134000000Y-66275001D03*
X134000000Y-67025001D03*
D11*
X135150000Y-67475001D03*
X135900000Y-67475001D03*
X136650000Y-67475001D03*
X137400000Y-67475001D03*
X138150000Y-67475001D03*
X138900000Y-67475001D03*
X139650000Y-67475001D03*
X140400000Y-67475001D03*
X141150000Y-67475001D03*
X141900000Y-67475001D03*
X142650000Y-67475001D03*
D10*
X143800000Y-67025001D03*
X143800000Y-66275001D03*
X143800000Y-65525001D03*
X143800000Y-64775001D03*
X143800000Y-64025001D03*
X143800000Y-63275001D03*
X143800000Y-62525001D03*
X143800000Y-61775001D03*
X143800000Y-61025001D03*
X143800000Y-60275001D03*
X143800000Y-59525001D03*
X143800000Y-58775001D03*
X143800000Y-58025001D03*
X143800000Y-57275001D03*
X143800000Y-56525001D03*
X143800000Y-55775001D03*
D12*
G36*
X136085779Y-85626144D02*
G01*
X136108834Y-85629563D01*
X136131443Y-85635227D01*
X136153387Y-85643079D01*
X136174457Y-85653044D01*
X136194448Y-85665026D01*
X136213168Y-85678910D01*
X136230438Y-85694562D01*
X136246090Y-85711832D01*
X136259974Y-85730552D01*
X136271956Y-85750543D01*
X136281921Y-85771613D01*
X136289773Y-85793557D01*
X136295437Y-85816166D01*
X136298856Y-85839221D01*
X136300000Y-85862500D01*
X136300000Y-86337500D01*
X136298856Y-86360779D01*
X136295437Y-86383834D01*
X136289773Y-86406443D01*
X136281921Y-86428387D01*
X136271956Y-86449457D01*
X136259974Y-86469448D01*
X136246090Y-86488168D01*
X136230438Y-86505438D01*
X136213168Y-86521090D01*
X136194448Y-86534974D01*
X136174457Y-86546956D01*
X136153387Y-86556921D01*
X136131443Y-86564773D01*
X136108834Y-86570437D01*
X136085779Y-86573856D01*
X136062500Y-86575000D01*
X135487500Y-86575000D01*
X135464221Y-86573856D01*
X135441166Y-86570437D01*
X135418557Y-86564773D01*
X135396613Y-86556921D01*
X135375543Y-86546956D01*
X135355552Y-86534974D01*
X135336832Y-86521090D01*
X135319562Y-86505438D01*
X135303910Y-86488168D01*
X135290026Y-86469448D01*
X135278044Y-86449457D01*
X135268079Y-86428387D01*
X135260227Y-86406443D01*
X135254563Y-86383834D01*
X135251144Y-86360779D01*
X135250000Y-86337500D01*
X135250000Y-85862500D01*
X135251144Y-85839221D01*
X135254563Y-85816166D01*
X135260227Y-85793557D01*
X135268079Y-85771613D01*
X135278044Y-85750543D01*
X135290026Y-85730552D01*
X135303910Y-85711832D01*
X135319562Y-85694562D01*
X135336832Y-85678910D01*
X135355552Y-85665026D01*
X135375543Y-85653044D01*
X135396613Y-85643079D01*
X135418557Y-85635227D01*
X135441166Y-85629563D01*
X135464221Y-85626144D01*
X135487500Y-85625000D01*
X136062500Y-85625000D01*
X136085779Y-85626144D01*
X136085779Y-85626144D01*
G37*
D13*
X135775000Y-86100000D03*
D12*
G36*
X134335779Y-85626144D02*
G01*
X134358834Y-85629563D01*
X134381443Y-85635227D01*
X134403387Y-85643079D01*
X134424457Y-85653044D01*
X134444448Y-85665026D01*
X134463168Y-85678910D01*
X134480438Y-85694562D01*
X134496090Y-85711832D01*
X134509974Y-85730552D01*
X134521956Y-85750543D01*
X134531921Y-85771613D01*
X134539773Y-85793557D01*
X134545437Y-85816166D01*
X134548856Y-85839221D01*
X134550000Y-85862500D01*
X134550000Y-86337500D01*
X134548856Y-86360779D01*
X134545437Y-86383834D01*
X134539773Y-86406443D01*
X134531921Y-86428387D01*
X134521956Y-86449457D01*
X134509974Y-86469448D01*
X134496090Y-86488168D01*
X134480438Y-86505438D01*
X134463168Y-86521090D01*
X134444448Y-86534974D01*
X134424457Y-86546956D01*
X134403387Y-86556921D01*
X134381443Y-86564773D01*
X134358834Y-86570437D01*
X134335779Y-86573856D01*
X134312500Y-86575000D01*
X133737500Y-86575000D01*
X133714221Y-86573856D01*
X133691166Y-86570437D01*
X133668557Y-86564773D01*
X133646613Y-86556921D01*
X133625543Y-86546956D01*
X133605552Y-86534974D01*
X133586832Y-86521090D01*
X133569562Y-86505438D01*
X133553910Y-86488168D01*
X133540026Y-86469448D01*
X133528044Y-86449457D01*
X133518079Y-86428387D01*
X133510227Y-86406443D01*
X133504563Y-86383834D01*
X133501144Y-86360779D01*
X133500000Y-86337500D01*
X133500000Y-85862500D01*
X133501144Y-85839221D01*
X133504563Y-85816166D01*
X133510227Y-85793557D01*
X133518079Y-85771613D01*
X133528044Y-85750543D01*
X133540026Y-85730552D01*
X133553910Y-85711832D01*
X133569562Y-85694562D01*
X133586832Y-85678910D01*
X133605552Y-85665026D01*
X133625543Y-85653044D01*
X133646613Y-85643079D01*
X133668557Y-85635227D01*
X133691166Y-85629563D01*
X133714221Y-85626144D01*
X133737500Y-85625000D01*
X134312500Y-85625000D01*
X134335779Y-85626144D01*
X134335779Y-85626144D01*
G37*
D13*
X134025000Y-86100000D03*
D14*
X144050000Y-96100000D03*
X142150000Y-96100000D03*
X143100000Y-98100000D03*
X140350000Y-96100000D03*
X138450000Y-96100000D03*
X139400000Y-98100000D03*
X136450000Y-96100000D03*
X134550000Y-96100000D03*
X135500000Y-98500000D03*
M02*
