G04 #@! TF.GenerationSoftware,KiCad,Pcbnew,(5.1.0)-1*
G04 #@! TF.CreationDate,2019-05-15T12:27:27+02:00*
G04 #@! TF.ProjectId,expansion,65787061-6e73-4696-9f6e-2e6b69636164,rev?*
G04 #@! TF.SameCoordinates,Original*
G04 #@! TF.FileFunction,Copper,L2,Bot*
G04 #@! TF.FilePolarity,Positive*
%FSLAX46Y46*%
G04 Gerber Fmt 4.6, Leading zero omitted, Abs format (unit mm)*
G04 Created by KiCad (PCBNEW (5.1.0)-1) date 2019-05-15 12:27:27*
%MOMM*%
%LPD*%
G04 APERTURE LIST*
%ADD10R,2.500000X5.100000*%
%ADD11C,10.200000*%
%ADD12R,1.000000X1.000000*%
%ADD13O,1.000000X1.000000*%
%ADD14C,0.800000*%
%ADD15C,0.250000*%
%ADD16C,0.254000*%
G04 APERTURE END LIST*
D10*
X131050000Y-65000000D03*
X146350000Y-65000000D03*
D11*
X138750000Y-65000000D03*
D12*
X146400000Y-61000000D03*
D13*
X146400000Y-59730000D03*
X146400000Y-58460000D03*
X146400000Y-57190000D03*
X146400000Y-55920000D03*
D14*
X134000000Y-72000000D03*
X131000000Y-61400000D03*
X131000000Y-68400000D03*
X134200000Y-69674990D03*
X143200000Y-68800000D03*
X131500000Y-59250000D03*
X133200000Y-68000000D03*
X137600000Y-70800000D03*
X142000000Y-71874990D03*
X144800000Y-69599986D03*
X145000000Y-57000000D03*
D15*
X131000000Y-67750000D02*
X131000000Y-64550000D01*
X131000000Y-64550000D02*
X131050000Y-64500000D01*
X145500010Y-72599990D02*
X146350000Y-71750000D01*
X131000000Y-67750000D02*
X131000000Y-72000000D01*
X131000000Y-72000000D02*
X131599990Y-72599990D01*
X146350000Y-67300000D02*
X146350000Y-64500000D01*
X133999990Y-72565695D02*
X133999990Y-72599990D01*
X134000000Y-72565685D02*
X133999990Y-72565695D01*
X134000000Y-72000000D02*
X134000000Y-72565685D01*
X131599990Y-72599990D02*
X133999990Y-72599990D01*
X133999990Y-72599990D02*
X145500010Y-72599990D01*
X146350000Y-71750000D02*
X146350000Y-64500000D01*
X131000000Y-64950000D02*
X131050000Y-65000000D01*
X131000000Y-61400000D02*
X131000000Y-64950000D01*
X146400000Y-64950000D02*
X146350000Y-65000000D01*
X146400000Y-61000000D02*
X146400000Y-64950000D01*
X142000000Y-71309305D02*
X142000000Y-70800000D01*
X142000000Y-71874990D02*
X142000000Y-71309305D01*
X142000000Y-70800000D02*
X137600000Y-70800000D01*
X143599986Y-70800000D02*
X144400001Y-69999985D01*
X142000000Y-70800000D02*
X143599986Y-70800000D01*
X144400001Y-69999985D02*
X144800000Y-69599986D01*
X145000000Y-58330000D02*
X145200000Y-58530000D01*
X145000000Y-57000000D02*
X145000000Y-58330000D01*
X145200000Y-58530000D02*
X146400000Y-59730000D01*
D16*
G36*
X147544000Y-62067157D02*
G01*
X146906000Y-62067157D01*
X146906000Y-61882252D01*
X146974689Y-61875487D01*
X147046508Y-61853701D01*
X147112696Y-61818322D01*
X147170711Y-61770711D01*
X147218322Y-61712696D01*
X147253701Y-61646508D01*
X147275487Y-61574689D01*
X147282843Y-61500000D01*
X147282843Y-60500000D01*
X147275487Y-60425311D01*
X147253701Y-60353492D01*
X147218322Y-60287304D01*
X147170711Y-60229289D01*
X147143858Y-60207251D01*
X147217875Y-60068775D01*
X147268252Y-59902706D01*
X147285262Y-59730000D01*
X147268252Y-59557294D01*
X147217875Y-59391225D01*
X147136068Y-59238175D01*
X147025975Y-59104025D01*
X147014978Y-59095000D01*
X147025975Y-59085975D01*
X147136068Y-58951825D01*
X147217875Y-58798775D01*
X147268252Y-58632706D01*
X147285262Y-58460000D01*
X147268252Y-58287294D01*
X147217875Y-58121225D01*
X147136068Y-57968175D01*
X147025975Y-57834025D01*
X147014978Y-57825000D01*
X147025975Y-57815975D01*
X147136068Y-57681825D01*
X147217875Y-57528775D01*
X147268252Y-57362706D01*
X147285262Y-57190000D01*
X147268252Y-57017294D01*
X147217875Y-56851225D01*
X147164626Y-56751604D01*
X147258865Y-56662020D01*
X147387123Y-56480206D01*
X147477446Y-56276864D01*
X147494119Y-56221874D01*
X147367954Y-56047000D01*
X146527000Y-56047000D01*
X146527000Y-56067000D01*
X146273000Y-56067000D01*
X146273000Y-56047000D01*
X145432046Y-56047000D01*
X145305881Y-56221874D01*
X145322554Y-56276864D01*
X145328756Y-56290827D01*
X145227809Y-56249013D01*
X145076922Y-56219000D01*
X144923078Y-56219000D01*
X144772191Y-56249013D01*
X144630058Y-56307887D01*
X144502141Y-56393358D01*
X144393358Y-56502141D01*
X144307887Y-56630058D01*
X144249013Y-56772191D01*
X144219000Y-56923078D01*
X144219000Y-57076922D01*
X144249013Y-57227809D01*
X144307887Y-57369942D01*
X144393358Y-57497859D01*
X144494000Y-57598501D01*
X144494001Y-58305144D01*
X144491553Y-58330000D01*
X144501322Y-58429192D01*
X144530255Y-58524574D01*
X144543098Y-58548601D01*
X144577242Y-58612479D01*
X144640474Y-58689527D01*
X144659781Y-58705372D01*
X145529951Y-59575542D01*
X145514738Y-59730000D01*
X145531748Y-59902706D01*
X145582125Y-60068775D01*
X145656142Y-60207251D01*
X145629289Y-60229289D01*
X145581678Y-60287304D01*
X145546299Y-60353492D01*
X145524513Y-60425311D01*
X145517157Y-60500000D01*
X145517157Y-61500000D01*
X145524513Y-61574689D01*
X145546299Y-61646508D01*
X145581678Y-61712696D01*
X145629289Y-61770711D01*
X145687304Y-61818322D01*
X145753492Y-61853701D01*
X145825311Y-61875487D01*
X145894000Y-61882252D01*
X145894000Y-62067157D01*
X145100000Y-62067157D01*
X145025311Y-62074513D01*
X144953492Y-62096299D01*
X144887304Y-62131678D01*
X144829289Y-62179289D01*
X144781678Y-62237304D01*
X144746299Y-62303492D01*
X144724513Y-62375311D01*
X144717157Y-62450000D01*
X144717157Y-67550000D01*
X144724513Y-67624689D01*
X144746299Y-67696508D01*
X144781678Y-67762696D01*
X144829289Y-67820711D01*
X144887304Y-67868322D01*
X144953492Y-67903701D01*
X145025311Y-67925487D01*
X145100000Y-67932843D01*
X145844001Y-67932843D01*
X145844000Y-71540408D01*
X145290419Y-72093990D01*
X142752739Y-72093990D01*
X142781000Y-71951912D01*
X142781000Y-71798068D01*
X142750987Y-71647181D01*
X142692113Y-71505048D01*
X142606642Y-71377131D01*
X142535511Y-71306000D01*
X143575140Y-71306000D01*
X143599986Y-71308447D01*
X143624832Y-71306000D01*
X143624840Y-71306000D01*
X143699179Y-71298678D01*
X143794561Y-71269745D01*
X143882465Y-71222759D01*
X143959513Y-71159527D01*
X143975362Y-71140215D01*
X144734592Y-70380986D01*
X144876922Y-70380986D01*
X145027809Y-70350973D01*
X145169942Y-70292099D01*
X145297859Y-70206628D01*
X145406642Y-70097845D01*
X145492113Y-69969928D01*
X145550987Y-69827795D01*
X145581000Y-69676908D01*
X145581000Y-69523064D01*
X145550987Y-69372177D01*
X145492113Y-69230044D01*
X145406642Y-69102127D01*
X145297859Y-68993344D01*
X145169942Y-68907873D01*
X145027809Y-68848999D01*
X144876922Y-68818986D01*
X144723078Y-68818986D01*
X144572191Y-68848999D01*
X144430058Y-68907873D01*
X144302141Y-68993344D01*
X144193358Y-69102127D01*
X144107887Y-69230044D01*
X144049013Y-69372177D01*
X144019000Y-69523064D01*
X144019000Y-69665394D01*
X143390395Y-70294000D01*
X142024854Y-70294000D01*
X142000000Y-70291552D01*
X141975146Y-70294000D01*
X140994532Y-70294000D01*
X141868581Y-69845999D01*
X142033691Y-69735678D01*
X142621806Y-69051411D01*
X138750000Y-65179605D01*
X134878194Y-69051411D01*
X135466309Y-69735678D01*
X136453289Y-70285299D01*
X136907251Y-70431594D01*
X136849013Y-70572191D01*
X136819000Y-70723078D01*
X136819000Y-70876922D01*
X136849013Y-71027809D01*
X136907887Y-71169942D01*
X136993358Y-71297859D01*
X137102141Y-71406642D01*
X137230058Y-71492113D01*
X137372191Y-71550987D01*
X137523078Y-71581000D01*
X137676922Y-71581000D01*
X137827809Y-71550987D01*
X137969942Y-71492113D01*
X138097859Y-71406642D01*
X138198501Y-71306000D01*
X141464489Y-71306000D01*
X141393358Y-71377131D01*
X141307887Y-71505048D01*
X141249013Y-71647181D01*
X141219000Y-71798068D01*
X141219000Y-71951912D01*
X141247261Y-72093990D01*
X134777605Y-72093990D01*
X134781000Y-72076922D01*
X134781000Y-71923078D01*
X134750987Y-71772191D01*
X134692113Y-71630058D01*
X134606642Y-71502141D01*
X134497859Y-71393358D01*
X134369942Y-71307887D01*
X134227809Y-71249013D01*
X134076922Y-71219000D01*
X133923078Y-71219000D01*
X133772191Y-71249013D01*
X133630058Y-71307887D01*
X133502141Y-71393358D01*
X133393358Y-71502141D01*
X133307887Y-71630058D01*
X133249013Y-71772191D01*
X133219000Y-71923078D01*
X133219000Y-72076922D01*
X133222395Y-72093990D01*
X131809582Y-72093990D01*
X131506000Y-71790409D01*
X131506000Y-68998501D01*
X131606642Y-68897859D01*
X131692113Y-68769942D01*
X131750987Y-68627809D01*
X131781000Y-68476922D01*
X131781000Y-68323078D01*
X131750987Y-68172191D01*
X131692113Y-68030058D01*
X131627156Y-67932843D01*
X132300000Y-67932843D01*
X132374689Y-67925487D01*
X132446508Y-67903701D01*
X132512696Y-67868322D01*
X132570711Y-67820711D01*
X132618322Y-67762696D01*
X132653701Y-67696508D01*
X132675487Y-67624689D01*
X132682843Y-67550000D01*
X132682843Y-64900712D01*
X132988108Y-64900712D01*
X133079451Y-66026710D01*
X133388711Y-67113251D01*
X133904001Y-68118581D01*
X134014322Y-68283691D01*
X134698589Y-68871806D01*
X138570395Y-65000000D01*
X138929605Y-65000000D01*
X142801411Y-68871806D01*
X143485678Y-68283691D01*
X144035299Y-67296711D01*
X144381809Y-66221470D01*
X144511892Y-65099288D01*
X144420549Y-63973290D01*
X144111289Y-62886749D01*
X143595999Y-61881419D01*
X143485678Y-61716309D01*
X142801411Y-61128194D01*
X138929605Y-65000000D01*
X138570395Y-65000000D01*
X134698589Y-61128194D01*
X134014322Y-61716309D01*
X133464701Y-62703289D01*
X133118191Y-63778530D01*
X132988108Y-64900712D01*
X132682843Y-64900712D01*
X132682843Y-62450000D01*
X132675487Y-62375311D01*
X132653701Y-62303492D01*
X132618322Y-62237304D01*
X132570711Y-62179289D01*
X132512696Y-62131678D01*
X132446508Y-62096299D01*
X132374689Y-62074513D01*
X132300000Y-62067157D01*
X131506000Y-62067157D01*
X131506000Y-61998501D01*
X131606642Y-61897859D01*
X131692113Y-61769942D01*
X131750987Y-61627809D01*
X131781000Y-61476922D01*
X131781000Y-61323078D01*
X131750987Y-61172191D01*
X131692113Y-61030058D01*
X131637678Y-60948589D01*
X134878194Y-60948589D01*
X138750000Y-64820395D01*
X142621806Y-60948589D01*
X142033691Y-60264322D01*
X141046711Y-59714701D01*
X139971470Y-59368191D01*
X138849288Y-59238108D01*
X137723290Y-59329451D01*
X136636749Y-59638711D01*
X135631419Y-60154001D01*
X135466309Y-60264322D01*
X134878194Y-60948589D01*
X131637678Y-60948589D01*
X131606642Y-60902141D01*
X131497859Y-60793358D01*
X131369942Y-60707887D01*
X131227809Y-60649013D01*
X131076922Y-60619000D01*
X130923078Y-60619000D01*
X130772191Y-60649013D01*
X130630058Y-60707887D01*
X130502141Y-60793358D01*
X130393358Y-60902141D01*
X130307887Y-61030058D01*
X130249013Y-61172191D01*
X130219000Y-61323078D01*
X130219000Y-61476922D01*
X130249013Y-61627809D01*
X130307887Y-61769942D01*
X130393358Y-61897859D01*
X130494000Y-61998501D01*
X130494000Y-62067157D01*
X129956000Y-62067157D01*
X129956000Y-58627000D01*
X143500000Y-58627000D01*
X143524776Y-58624560D01*
X143548601Y-58617333D01*
X143570557Y-58605597D01*
X143589803Y-58589803D01*
X143605597Y-58570557D01*
X143617333Y-58548601D01*
X143624560Y-58524776D01*
X143627000Y-58500000D01*
X143627000Y-58459377D01*
X143633175Y-58456137D01*
X143652542Y-58440491D01*
X143668483Y-58421368D01*
X143680388Y-58399503D01*
X143687798Y-58375735D01*
X143690429Y-58350978D01*
X143711467Y-55618126D01*
X145305881Y-55618126D01*
X145432046Y-55793000D01*
X146273000Y-55793000D01*
X146273000Y-54950871D01*
X146527000Y-54950871D01*
X146527000Y-55793000D01*
X147367954Y-55793000D01*
X147494119Y-55618126D01*
X147477446Y-55563136D01*
X147387123Y-55359794D01*
X147258865Y-55177980D01*
X147097601Y-55024682D01*
X146909529Y-54905790D01*
X146701876Y-54825874D01*
X146527000Y-54950871D01*
X146273000Y-54950871D01*
X146098124Y-54825874D01*
X145890471Y-54905790D01*
X145702399Y-55024682D01*
X145541135Y-55177980D01*
X145412877Y-55359794D01*
X145322554Y-55563136D01*
X145305881Y-55618126D01*
X143711467Y-55618126D01*
X143724263Y-53956000D01*
X147544000Y-53956000D01*
X147544000Y-62067157D01*
X147544000Y-62067157D01*
G37*
X147544000Y-62067157D02*
X146906000Y-62067157D01*
X146906000Y-61882252D01*
X146974689Y-61875487D01*
X147046508Y-61853701D01*
X147112696Y-61818322D01*
X147170711Y-61770711D01*
X147218322Y-61712696D01*
X147253701Y-61646508D01*
X147275487Y-61574689D01*
X147282843Y-61500000D01*
X147282843Y-60500000D01*
X147275487Y-60425311D01*
X147253701Y-60353492D01*
X147218322Y-60287304D01*
X147170711Y-60229289D01*
X147143858Y-60207251D01*
X147217875Y-60068775D01*
X147268252Y-59902706D01*
X147285262Y-59730000D01*
X147268252Y-59557294D01*
X147217875Y-59391225D01*
X147136068Y-59238175D01*
X147025975Y-59104025D01*
X147014978Y-59095000D01*
X147025975Y-59085975D01*
X147136068Y-58951825D01*
X147217875Y-58798775D01*
X147268252Y-58632706D01*
X147285262Y-58460000D01*
X147268252Y-58287294D01*
X147217875Y-58121225D01*
X147136068Y-57968175D01*
X147025975Y-57834025D01*
X147014978Y-57825000D01*
X147025975Y-57815975D01*
X147136068Y-57681825D01*
X147217875Y-57528775D01*
X147268252Y-57362706D01*
X147285262Y-57190000D01*
X147268252Y-57017294D01*
X147217875Y-56851225D01*
X147164626Y-56751604D01*
X147258865Y-56662020D01*
X147387123Y-56480206D01*
X147477446Y-56276864D01*
X147494119Y-56221874D01*
X147367954Y-56047000D01*
X146527000Y-56047000D01*
X146527000Y-56067000D01*
X146273000Y-56067000D01*
X146273000Y-56047000D01*
X145432046Y-56047000D01*
X145305881Y-56221874D01*
X145322554Y-56276864D01*
X145328756Y-56290827D01*
X145227809Y-56249013D01*
X145076922Y-56219000D01*
X144923078Y-56219000D01*
X144772191Y-56249013D01*
X144630058Y-56307887D01*
X144502141Y-56393358D01*
X144393358Y-56502141D01*
X144307887Y-56630058D01*
X144249013Y-56772191D01*
X144219000Y-56923078D01*
X144219000Y-57076922D01*
X144249013Y-57227809D01*
X144307887Y-57369942D01*
X144393358Y-57497859D01*
X144494000Y-57598501D01*
X144494001Y-58305144D01*
X144491553Y-58330000D01*
X144501322Y-58429192D01*
X144530255Y-58524574D01*
X144543098Y-58548601D01*
X144577242Y-58612479D01*
X144640474Y-58689527D01*
X144659781Y-58705372D01*
X145529951Y-59575542D01*
X145514738Y-59730000D01*
X145531748Y-59902706D01*
X145582125Y-60068775D01*
X145656142Y-60207251D01*
X145629289Y-60229289D01*
X145581678Y-60287304D01*
X145546299Y-60353492D01*
X145524513Y-60425311D01*
X145517157Y-60500000D01*
X145517157Y-61500000D01*
X145524513Y-61574689D01*
X145546299Y-61646508D01*
X145581678Y-61712696D01*
X145629289Y-61770711D01*
X145687304Y-61818322D01*
X145753492Y-61853701D01*
X145825311Y-61875487D01*
X145894000Y-61882252D01*
X145894000Y-62067157D01*
X145100000Y-62067157D01*
X145025311Y-62074513D01*
X144953492Y-62096299D01*
X144887304Y-62131678D01*
X144829289Y-62179289D01*
X144781678Y-62237304D01*
X144746299Y-62303492D01*
X144724513Y-62375311D01*
X144717157Y-62450000D01*
X144717157Y-67550000D01*
X144724513Y-67624689D01*
X144746299Y-67696508D01*
X144781678Y-67762696D01*
X144829289Y-67820711D01*
X144887304Y-67868322D01*
X144953492Y-67903701D01*
X145025311Y-67925487D01*
X145100000Y-67932843D01*
X145844001Y-67932843D01*
X145844000Y-71540408D01*
X145290419Y-72093990D01*
X142752739Y-72093990D01*
X142781000Y-71951912D01*
X142781000Y-71798068D01*
X142750987Y-71647181D01*
X142692113Y-71505048D01*
X142606642Y-71377131D01*
X142535511Y-71306000D01*
X143575140Y-71306000D01*
X143599986Y-71308447D01*
X143624832Y-71306000D01*
X143624840Y-71306000D01*
X143699179Y-71298678D01*
X143794561Y-71269745D01*
X143882465Y-71222759D01*
X143959513Y-71159527D01*
X143975362Y-71140215D01*
X144734592Y-70380986D01*
X144876922Y-70380986D01*
X145027809Y-70350973D01*
X145169942Y-70292099D01*
X145297859Y-70206628D01*
X145406642Y-70097845D01*
X145492113Y-69969928D01*
X145550987Y-69827795D01*
X145581000Y-69676908D01*
X145581000Y-69523064D01*
X145550987Y-69372177D01*
X145492113Y-69230044D01*
X145406642Y-69102127D01*
X145297859Y-68993344D01*
X145169942Y-68907873D01*
X145027809Y-68848999D01*
X144876922Y-68818986D01*
X144723078Y-68818986D01*
X144572191Y-68848999D01*
X144430058Y-68907873D01*
X144302141Y-68993344D01*
X144193358Y-69102127D01*
X144107887Y-69230044D01*
X144049013Y-69372177D01*
X144019000Y-69523064D01*
X144019000Y-69665394D01*
X143390395Y-70294000D01*
X142024854Y-70294000D01*
X142000000Y-70291552D01*
X141975146Y-70294000D01*
X140994532Y-70294000D01*
X141868581Y-69845999D01*
X142033691Y-69735678D01*
X142621806Y-69051411D01*
X138750000Y-65179605D01*
X134878194Y-69051411D01*
X135466309Y-69735678D01*
X136453289Y-70285299D01*
X136907251Y-70431594D01*
X136849013Y-70572191D01*
X136819000Y-70723078D01*
X136819000Y-70876922D01*
X136849013Y-71027809D01*
X136907887Y-71169942D01*
X136993358Y-71297859D01*
X137102141Y-71406642D01*
X137230058Y-71492113D01*
X137372191Y-71550987D01*
X137523078Y-71581000D01*
X137676922Y-71581000D01*
X137827809Y-71550987D01*
X137969942Y-71492113D01*
X138097859Y-71406642D01*
X138198501Y-71306000D01*
X141464489Y-71306000D01*
X141393358Y-71377131D01*
X141307887Y-71505048D01*
X141249013Y-71647181D01*
X141219000Y-71798068D01*
X141219000Y-71951912D01*
X141247261Y-72093990D01*
X134777605Y-72093990D01*
X134781000Y-72076922D01*
X134781000Y-71923078D01*
X134750987Y-71772191D01*
X134692113Y-71630058D01*
X134606642Y-71502141D01*
X134497859Y-71393358D01*
X134369942Y-71307887D01*
X134227809Y-71249013D01*
X134076922Y-71219000D01*
X133923078Y-71219000D01*
X133772191Y-71249013D01*
X133630058Y-71307887D01*
X133502141Y-71393358D01*
X133393358Y-71502141D01*
X133307887Y-71630058D01*
X133249013Y-71772191D01*
X133219000Y-71923078D01*
X133219000Y-72076922D01*
X133222395Y-72093990D01*
X131809582Y-72093990D01*
X131506000Y-71790409D01*
X131506000Y-68998501D01*
X131606642Y-68897859D01*
X131692113Y-68769942D01*
X131750987Y-68627809D01*
X131781000Y-68476922D01*
X131781000Y-68323078D01*
X131750987Y-68172191D01*
X131692113Y-68030058D01*
X131627156Y-67932843D01*
X132300000Y-67932843D01*
X132374689Y-67925487D01*
X132446508Y-67903701D01*
X132512696Y-67868322D01*
X132570711Y-67820711D01*
X132618322Y-67762696D01*
X132653701Y-67696508D01*
X132675487Y-67624689D01*
X132682843Y-67550000D01*
X132682843Y-64900712D01*
X132988108Y-64900712D01*
X133079451Y-66026710D01*
X133388711Y-67113251D01*
X133904001Y-68118581D01*
X134014322Y-68283691D01*
X134698589Y-68871806D01*
X138570395Y-65000000D01*
X138929605Y-65000000D01*
X142801411Y-68871806D01*
X143485678Y-68283691D01*
X144035299Y-67296711D01*
X144381809Y-66221470D01*
X144511892Y-65099288D01*
X144420549Y-63973290D01*
X144111289Y-62886749D01*
X143595999Y-61881419D01*
X143485678Y-61716309D01*
X142801411Y-61128194D01*
X138929605Y-65000000D01*
X138570395Y-65000000D01*
X134698589Y-61128194D01*
X134014322Y-61716309D01*
X133464701Y-62703289D01*
X133118191Y-63778530D01*
X132988108Y-64900712D01*
X132682843Y-64900712D01*
X132682843Y-62450000D01*
X132675487Y-62375311D01*
X132653701Y-62303492D01*
X132618322Y-62237304D01*
X132570711Y-62179289D01*
X132512696Y-62131678D01*
X132446508Y-62096299D01*
X132374689Y-62074513D01*
X132300000Y-62067157D01*
X131506000Y-62067157D01*
X131506000Y-61998501D01*
X131606642Y-61897859D01*
X131692113Y-61769942D01*
X131750987Y-61627809D01*
X131781000Y-61476922D01*
X131781000Y-61323078D01*
X131750987Y-61172191D01*
X131692113Y-61030058D01*
X131637678Y-60948589D01*
X134878194Y-60948589D01*
X138750000Y-64820395D01*
X142621806Y-60948589D01*
X142033691Y-60264322D01*
X141046711Y-59714701D01*
X139971470Y-59368191D01*
X138849288Y-59238108D01*
X137723290Y-59329451D01*
X136636749Y-59638711D01*
X135631419Y-60154001D01*
X135466309Y-60264322D01*
X134878194Y-60948589D01*
X131637678Y-60948589D01*
X131606642Y-60902141D01*
X131497859Y-60793358D01*
X131369942Y-60707887D01*
X131227809Y-60649013D01*
X131076922Y-60619000D01*
X130923078Y-60619000D01*
X130772191Y-60649013D01*
X130630058Y-60707887D01*
X130502141Y-60793358D01*
X130393358Y-60902141D01*
X130307887Y-61030058D01*
X130249013Y-61172191D01*
X130219000Y-61323078D01*
X130219000Y-61476922D01*
X130249013Y-61627809D01*
X130307887Y-61769942D01*
X130393358Y-61897859D01*
X130494000Y-61998501D01*
X130494000Y-62067157D01*
X129956000Y-62067157D01*
X129956000Y-58627000D01*
X143500000Y-58627000D01*
X143524776Y-58624560D01*
X143548601Y-58617333D01*
X143570557Y-58605597D01*
X143589803Y-58589803D01*
X143605597Y-58570557D01*
X143617333Y-58548601D01*
X143624560Y-58524776D01*
X143627000Y-58500000D01*
X143627000Y-58459377D01*
X143633175Y-58456137D01*
X143652542Y-58440491D01*
X143668483Y-58421368D01*
X143680388Y-58399503D01*
X143687798Y-58375735D01*
X143690429Y-58350978D01*
X143711467Y-55618126D01*
X145305881Y-55618126D01*
X145432046Y-55793000D01*
X146273000Y-55793000D01*
X146273000Y-54950871D01*
X146527000Y-54950871D01*
X146527000Y-55793000D01*
X147367954Y-55793000D01*
X147494119Y-55618126D01*
X147477446Y-55563136D01*
X147387123Y-55359794D01*
X147258865Y-55177980D01*
X147097601Y-55024682D01*
X146909529Y-54905790D01*
X146701876Y-54825874D01*
X146527000Y-54950871D01*
X146273000Y-54950871D01*
X146098124Y-54825874D01*
X145890471Y-54905790D01*
X145702399Y-55024682D01*
X145541135Y-55177980D01*
X145412877Y-55359794D01*
X145322554Y-55563136D01*
X145305881Y-55618126D01*
X143711467Y-55618126D01*
X143724263Y-53956000D01*
X147544000Y-53956000D01*
X147544000Y-62067157D01*
M02*
