G04 #@! TF.GenerationSoftware,KiCad,Pcbnew,(5.1.0)-1*
G04 #@! TF.CreationDate,2019-05-15T12:27:27+02:00*
G04 #@! TF.ProjectId,expansion,65787061-6e73-4696-9f6e-2e6b69636164,rev?*
G04 #@! TF.SameCoordinates,Original*
G04 #@! TF.FileFunction,Copper,L1,Top*
G04 #@! TF.FilePolarity,Positive*
%FSLAX46Y46*%
G04 Gerber Fmt 4.6, Leading zero omitted, Abs format (unit mm)*
G04 Created by KiCad (PCBNEW (5.1.0)-1) date 2019-05-15 12:27:27*
%MOMM*%
%LPD*%
G04 APERTURE LIST*
%ADD10C,0.300000*%
%ADD11C,0.100000*%
%ADD12R,1.200000X0.500000*%
%ADD13R,0.500000X1.200000*%
%ADD14C,0.950000*%
%ADD15R,0.800000X0.900000*%
%ADD16R,1.000000X1.000000*%
%ADD17O,1.000000X1.000000*%
%ADD18C,0.800000*%
%ADD19C,0.250000*%
%ADD20C,0.254000*%
G04 APERTURE END LIST*
D10*
X140725000Y-71400000D03*
D11*
G36*
X141225000Y-72150000D02*
G01*
X140075000Y-72150000D01*
X140575000Y-71400000D01*
X140075000Y-70650000D01*
X141225000Y-70650000D01*
X141225000Y-72150000D01*
X141225000Y-72150000D01*
G37*
D10*
X139275000Y-71400000D03*
D11*
G36*
X140275000Y-71400000D02*
G01*
X139775000Y-72150000D01*
X138775000Y-72150000D01*
X138775000Y-70650000D01*
X139775000Y-70650000D01*
X140275000Y-71400000D01*
X140275000Y-71400000D01*
G37*
D12*
X134000000Y-58775001D03*
X134000000Y-59525001D03*
X134000000Y-60275001D03*
X134000000Y-61025001D03*
X134000000Y-61775001D03*
X134000000Y-62525001D03*
X134000000Y-63275001D03*
X134000000Y-64025001D03*
X134000000Y-64775001D03*
X134000000Y-65525001D03*
X134000000Y-66275001D03*
X134000000Y-67025001D03*
D13*
X135150000Y-67475001D03*
X135900000Y-67475001D03*
X136650000Y-67475001D03*
X137400000Y-67475001D03*
X138150000Y-67475001D03*
X138900000Y-67475001D03*
X139650000Y-67475001D03*
X140400000Y-67475001D03*
X141150000Y-67475001D03*
X141900000Y-67475001D03*
X142650000Y-67475001D03*
D12*
X143800000Y-67025001D03*
X143800000Y-66275001D03*
X143800000Y-65525001D03*
X143800000Y-64775001D03*
X143800000Y-64025001D03*
X143800000Y-63275001D03*
X143800000Y-62525001D03*
X143800000Y-61775001D03*
X143800000Y-61025001D03*
X143800000Y-60275001D03*
X143800000Y-59525001D03*
X143800000Y-58775001D03*
X143800000Y-58025001D03*
X143800000Y-57275001D03*
X143800000Y-56525001D03*
X143800000Y-55775001D03*
D11*
G36*
X131260779Y-63201144D02*
G01*
X131283834Y-63204563D01*
X131306443Y-63210227D01*
X131328387Y-63218079D01*
X131349457Y-63228044D01*
X131369448Y-63240026D01*
X131388168Y-63253910D01*
X131405438Y-63269562D01*
X131421090Y-63286832D01*
X131434974Y-63305552D01*
X131446956Y-63325543D01*
X131456921Y-63346613D01*
X131464773Y-63368557D01*
X131470437Y-63391166D01*
X131473856Y-63414221D01*
X131475000Y-63437500D01*
X131475000Y-64012500D01*
X131473856Y-64035779D01*
X131470437Y-64058834D01*
X131464773Y-64081443D01*
X131456921Y-64103387D01*
X131446956Y-64124457D01*
X131434974Y-64144448D01*
X131421090Y-64163168D01*
X131405438Y-64180438D01*
X131388168Y-64196090D01*
X131369448Y-64209974D01*
X131349457Y-64221956D01*
X131328387Y-64231921D01*
X131306443Y-64239773D01*
X131283834Y-64245437D01*
X131260779Y-64248856D01*
X131237500Y-64250000D01*
X130762500Y-64250000D01*
X130739221Y-64248856D01*
X130716166Y-64245437D01*
X130693557Y-64239773D01*
X130671613Y-64231921D01*
X130650543Y-64221956D01*
X130630552Y-64209974D01*
X130611832Y-64196090D01*
X130594562Y-64180438D01*
X130578910Y-64163168D01*
X130565026Y-64144448D01*
X130553044Y-64124457D01*
X130543079Y-64103387D01*
X130535227Y-64081443D01*
X130529563Y-64058834D01*
X130526144Y-64035779D01*
X130525000Y-64012500D01*
X130525000Y-63437500D01*
X130526144Y-63414221D01*
X130529563Y-63391166D01*
X130535227Y-63368557D01*
X130543079Y-63346613D01*
X130553044Y-63325543D01*
X130565026Y-63305552D01*
X130578910Y-63286832D01*
X130594562Y-63269562D01*
X130611832Y-63253910D01*
X130630552Y-63240026D01*
X130650543Y-63228044D01*
X130671613Y-63218079D01*
X130693557Y-63210227D01*
X130716166Y-63204563D01*
X130739221Y-63201144D01*
X130762500Y-63200000D01*
X131237500Y-63200000D01*
X131260779Y-63201144D01*
X131260779Y-63201144D01*
G37*
D14*
X131000000Y-63725000D03*
D11*
G36*
X131260779Y-64951144D02*
G01*
X131283834Y-64954563D01*
X131306443Y-64960227D01*
X131328387Y-64968079D01*
X131349457Y-64978044D01*
X131369448Y-64990026D01*
X131388168Y-65003910D01*
X131405438Y-65019562D01*
X131421090Y-65036832D01*
X131434974Y-65055552D01*
X131446956Y-65075543D01*
X131456921Y-65096613D01*
X131464773Y-65118557D01*
X131470437Y-65141166D01*
X131473856Y-65164221D01*
X131475000Y-65187500D01*
X131475000Y-65762500D01*
X131473856Y-65785779D01*
X131470437Y-65808834D01*
X131464773Y-65831443D01*
X131456921Y-65853387D01*
X131446956Y-65874457D01*
X131434974Y-65894448D01*
X131421090Y-65913168D01*
X131405438Y-65930438D01*
X131388168Y-65946090D01*
X131369448Y-65959974D01*
X131349457Y-65971956D01*
X131328387Y-65981921D01*
X131306443Y-65989773D01*
X131283834Y-65995437D01*
X131260779Y-65998856D01*
X131237500Y-66000000D01*
X130762500Y-66000000D01*
X130739221Y-65998856D01*
X130716166Y-65995437D01*
X130693557Y-65989773D01*
X130671613Y-65981921D01*
X130650543Y-65971956D01*
X130630552Y-65959974D01*
X130611832Y-65946090D01*
X130594562Y-65930438D01*
X130578910Y-65913168D01*
X130565026Y-65894448D01*
X130553044Y-65874457D01*
X130543079Y-65853387D01*
X130535227Y-65831443D01*
X130529563Y-65808834D01*
X130526144Y-65785779D01*
X130525000Y-65762500D01*
X130525000Y-65187500D01*
X130526144Y-65164221D01*
X130529563Y-65141166D01*
X130535227Y-65118557D01*
X130543079Y-65096613D01*
X130553044Y-65075543D01*
X130565026Y-65055552D01*
X130578910Y-65036832D01*
X130594562Y-65019562D01*
X130611832Y-65003910D01*
X130630552Y-64990026D01*
X130650543Y-64978044D01*
X130671613Y-64968079D01*
X130693557Y-64960227D01*
X130716166Y-64954563D01*
X130739221Y-64951144D01*
X130762500Y-64950000D01*
X131237500Y-64950000D01*
X131260779Y-64951144D01*
X131260779Y-64951144D01*
G37*
D14*
X131000000Y-65475000D03*
D15*
X135450000Y-72000000D03*
X137350000Y-72000000D03*
X136400000Y-70000000D03*
D10*
X146400000Y-67675000D03*
D11*
G36*
X147150000Y-67175000D02*
G01*
X147150000Y-68325000D01*
X146400000Y-67825000D01*
X145650000Y-68325000D01*
X145650000Y-67175000D01*
X147150000Y-67175000D01*
X147150000Y-67175000D01*
G37*
D10*
X146400000Y-69125000D03*
D11*
G36*
X146400000Y-68125000D02*
G01*
X147150000Y-68625000D01*
X147150000Y-69625000D01*
X145650000Y-69625000D01*
X145650000Y-68625000D01*
X146400000Y-68125000D01*
X146400000Y-68125000D01*
G37*
D10*
X143075000Y-71400000D03*
D11*
G36*
X144075000Y-71400000D02*
G01*
X143575000Y-72150000D01*
X142575000Y-72150000D01*
X142575000Y-70650000D01*
X143575000Y-70650000D01*
X144075000Y-71400000D01*
X144075000Y-71400000D01*
G37*
D10*
X144525000Y-71400000D03*
D11*
G36*
X145025000Y-72150000D02*
G01*
X143875000Y-72150000D01*
X144375000Y-71400000D01*
X143875000Y-70650000D01*
X145025000Y-70650000D01*
X145025000Y-72150000D01*
X145025000Y-72150000D01*
G37*
D15*
X130850000Y-72000000D03*
X132750000Y-72000000D03*
X131800000Y-69600000D03*
D16*
X146400000Y-61000000D03*
D17*
X146400000Y-59730000D03*
X146400000Y-58460000D03*
X146400000Y-57190000D03*
X146400000Y-55920000D03*
D18*
X134000000Y-72000000D03*
X131000000Y-61400000D03*
X131000000Y-68400000D03*
X134200000Y-69674990D03*
X143200000Y-68800000D03*
X131500000Y-59250000D03*
X133200000Y-68000000D03*
X137600000Y-70800000D03*
X142000000Y-71874990D03*
X144800000Y-69599986D03*
X145000000Y-57000000D03*
D19*
X135450000Y-72000000D02*
X134000000Y-72000000D01*
X131000000Y-63725000D02*
X131000000Y-61400000D01*
X135900000Y-67475001D02*
X135900000Y-68325001D01*
X135900000Y-68325001D02*
X135400002Y-68824999D01*
X135400002Y-68824999D02*
X131424999Y-68824999D01*
X131399999Y-68799999D02*
X131000000Y-68400000D01*
X131424999Y-68824999D02*
X131399999Y-68799999D01*
X135250000Y-67575001D02*
X135150000Y-67475001D01*
X135150000Y-67825001D02*
X134775001Y-68200000D01*
X135150000Y-67475001D02*
X135150000Y-67825001D01*
X133325010Y-68200000D02*
X132400000Y-67274990D01*
X134775001Y-68200000D02*
X133325010Y-68200000D01*
X139650000Y-68325001D02*
X139650000Y-67475001D01*
X140924999Y-69600000D02*
X139650000Y-68325001D01*
X143526996Y-69600000D02*
X140924999Y-69600000D01*
X146400000Y-67675000D02*
X145451996Y-67675000D01*
X145451996Y-67675000D02*
X143526996Y-69600000D01*
X138675000Y-72000000D02*
X139275000Y-71400000D01*
X137350000Y-72000000D02*
X138675000Y-72000000D01*
X137600000Y-71750000D02*
X137350000Y-72000000D01*
X137600000Y-70800000D02*
X137600000Y-71750000D01*
X143075000Y-71600000D02*
X142274990Y-71600000D01*
X142274990Y-71600000D02*
X142000000Y-71874990D01*
X145074986Y-69325000D02*
X144800000Y-69599986D01*
X146400000Y-69325000D02*
X145074986Y-69325000D01*
X132450000Y-69600000D02*
X133650000Y-70800000D01*
X131800000Y-69600000D02*
X132450000Y-69600000D01*
X133650000Y-70800000D02*
X137600000Y-70800000D01*
X138900000Y-68536411D02*
X140413600Y-70050011D01*
X140413600Y-70050011D02*
X143825011Y-70050011D01*
X143825011Y-70050011D02*
X144525000Y-70750000D01*
X138900000Y-67475001D02*
X138900000Y-68536411D01*
X144525000Y-70750000D02*
X144525000Y-71600000D01*
X140725000Y-71400000D02*
X140725000Y-70997822D01*
X138150000Y-68422822D02*
X138150000Y-68325001D01*
X140725000Y-70997822D02*
X138150000Y-68422822D01*
X138150000Y-68325001D02*
X138150000Y-67475001D01*
X144650000Y-58775001D02*
X145000000Y-58425001D01*
X143800000Y-58775001D02*
X144650000Y-58775001D01*
X145000000Y-58425001D02*
X145000000Y-57000000D01*
X146400000Y-58525001D02*
X146400000Y-58460000D01*
X144650000Y-60275001D02*
X146400000Y-58525001D01*
X143800000Y-60275001D02*
X144650000Y-60275001D01*
X145900001Y-57689999D02*
X146400000Y-57190000D01*
X145450009Y-58139991D02*
X145900001Y-57689999D01*
X145450009Y-58611402D02*
X145450009Y-58139991D01*
X144536410Y-59525001D02*
X145450009Y-58611402D01*
X143800000Y-59525001D02*
X144536410Y-59525001D01*
D20*
G36*
X147544001Y-72544000D02*
G01*
X142404518Y-72544000D01*
X142453484Y-72511282D01*
X142500311Y-72525487D01*
X142575000Y-72532843D01*
X143575000Y-72532843D01*
X143650082Y-72525408D01*
X143721878Y-72503547D01*
X143725037Y-72501854D01*
X143728492Y-72503701D01*
X143800311Y-72525487D01*
X143875000Y-72532843D01*
X145025000Y-72532843D01*
X145099689Y-72525487D01*
X145171508Y-72503701D01*
X145237696Y-72468322D01*
X145295711Y-72420711D01*
X145343322Y-72362696D01*
X145378701Y-72296508D01*
X145400487Y-72224689D01*
X145407843Y-72150000D01*
X145407843Y-70650000D01*
X145400487Y-70575311D01*
X145378701Y-70503492D01*
X145343322Y-70437304D01*
X145295711Y-70379289D01*
X145237696Y-70331678D01*
X145171508Y-70296299D01*
X145164751Y-70294249D01*
X145169942Y-70292099D01*
X145297859Y-70206628D01*
X145406642Y-70097845D01*
X145490788Y-69971911D01*
X145503492Y-69978701D01*
X145575311Y-70000487D01*
X145650000Y-70007843D01*
X147150000Y-70007843D01*
X147224689Y-70000487D01*
X147296508Y-69978701D01*
X147362696Y-69943322D01*
X147420711Y-69895711D01*
X147468322Y-69837696D01*
X147503701Y-69771508D01*
X147525487Y-69699689D01*
X147532843Y-69625000D01*
X147532843Y-68625000D01*
X147525408Y-68549918D01*
X147503547Y-68478122D01*
X147501854Y-68474963D01*
X147503701Y-68471508D01*
X147525487Y-68399689D01*
X147532843Y-68325000D01*
X147532843Y-67175000D01*
X147525487Y-67100311D01*
X147503701Y-67028492D01*
X147468322Y-66962304D01*
X147420711Y-66904289D01*
X147362696Y-66856678D01*
X147296508Y-66821299D01*
X147224689Y-66799513D01*
X147150000Y-66792157D01*
X145650000Y-66792157D01*
X145575311Y-66799513D01*
X145503492Y-66821299D01*
X145437304Y-66856678D01*
X145379289Y-66904289D01*
X145331678Y-66962304D01*
X145296299Y-67028492D01*
X145274513Y-67100311D01*
X145267157Y-67175000D01*
X145267157Y-67202302D01*
X145257421Y-67205255D01*
X145169517Y-67252241D01*
X145092469Y-67315473D01*
X145076624Y-67334780D01*
X145026352Y-67385053D01*
X145035000Y-67306751D01*
X144876250Y-67148001D01*
X143927000Y-67148001D01*
X143927000Y-67751251D01*
X144085750Y-67910001D01*
X144388961Y-67912978D01*
X144508082Y-67903322D01*
X143317405Y-69094000D01*
X141134591Y-69094000D01*
X140498434Y-68457844D01*
X140650000Y-68457844D01*
X140724689Y-68450488D01*
X140775000Y-68435226D01*
X140825311Y-68450488D01*
X140900000Y-68457844D01*
X141400000Y-68457844D01*
X141474689Y-68450488D01*
X141525000Y-68435226D01*
X141575311Y-68450488D01*
X141650000Y-68457844D01*
X142150000Y-68457844D01*
X142224689Y-68450488D01*
X142275000Y-68435226D01*
X142325311Y-68450488D01*
X142400000Y-68457844D01*
X142900000Y-68457844D01*
X142974689Y-68450488D01*
X143046508Y-68428702D01*
X143112696Y-68393323D01*
X143170711Y-68345712D01*
X143218322Y-68287697D01*
X143253701Y-68221509D01*
X143275487Y-68149690D01*
X143282843Y-68075001D01*
X143282843Y-67912273D01*
X143514250Y-67910001D01*
X143673000Y-67751251D01*
X143673000Y-67148001D01*
X143653000Y-67148001D01*
X143653000Y-66907844D01*
X144400000Y-66907844D01*
X144459327Y-66902001D01*
X144876250Y-66902001D01*
X145035000Y-66743251D01*
X145023564Y-66639712D01*
X144985189Y-66520660D01*
X144924325Y-66411382D01*
X144843312Y-66316078D01*
X144782843Y-66268178D01*
X144782843Y-66025001D01*
X144775487Y-65950312D01*
X144760225Y-65900001D01*
X144775487Y-65849690D01*
X144782843Y-65775001D01*
X144782843Y-65275001D01*
X144775487Y-65200312D01*
X144760225Y-65150001D01*
X144775487Y-65099690D01*
X144782843Y-65025001D01*
X144782843Y-64525001D01*
X144775487Y-64450312D01*
X144760225Y-64400001D01*
X144775487Y-64349690D01*
X144782843Y-64275001D01*
X144782843Y-63775001D01*
X144775487Y-63700312D01*
X144760225Y-63650001D01*
X144775487Y-63599690D01*
X144782843Y-63525001D01*
X144782843Y-63025001D01*
X144775487Y-62950312D01*
X144760225Y-62900001D01*
X144775487Y-62849690D01*
X144782843Y-62775001D01*
X144782843Y-62275001D01*
X144775487Y-62200312D01*
X144760225Y-62150001D01*
X144775487Y-62099690D01*
X144782843Y-62025001D01*
X144782843Y-61525001D01*
X144775487Y-61450312D01*
X144760225Y-61400001D01*
X144775487Y-61349690D01*
X144782843Y-61275001D01*
X144782843Y-60775001D01*
X144781740Y-60763806D01*
X144844575Y-60744746D01*
X144932479Y-60697760D01*
X145009527Y-60634528D01*
X145025376Y-60615216D01*
X145579726Y-60060866D01*
X145582125Y-60068775D01*
X145656142Y-60207251D01*
X145629289Y-60229289D01*
X145581678Y-60287304D01*
X145546299Y-60353492D01*
X145524513Y-60425311D01*
X145517157Y-60500000D01*
X145517157Y-61500000D01*
X145524513Y-61574689D01*
X145546299Y-61646508D01*
X145581678Y-61712696D01*
X145629289Y-61770711D01*
X145687304Y-61818322D01*
X145753492Y-61853701D01*
X145825311Y-61875487D01*
X145900000Y-61882843D01*
X146900000Y-61882843D01*
X146974689Y-61875487D01*
X147046508Y-61853701D01*
X147112696Y-61818322D01*
X147170711Y-61770711D01*
X147218322Y-61712696D01*
X147253701Y-61646508D01*
X147275487Y-61574689D01*
X147282843Y-61500000D01*
X147282843Y-60500000D01*
X147275487Y-60425311D01*
X147253701Y-60353492D01*
X147218322Y-60287304D01*
X147170711Y-60229289D01*
X147143858Y-60207251D01*
X147217875Y-60068775D01*
X147268252Y-59902706D01*
X147285262Y-59730000D01*
X147268252Y-59557294D01*
X147217875Y-59391225D01*
X147136068Y-59238175D01*
X147025975Y-59104025D01*
X147014978Y-59095000D01*
X147025975Y-59085975D01*
X147136068Y-58951825D01*
X147217875Y-58798775D01*
X147268252Y-58632706D01*
X147285262Y-58460000D01*
X147268252Y-58287294D01*
X147217875Y-58121225D01*
X147136068Y-57968175D01*
X147025975Y-57834025D01*
X147014978Y-57825000D01*
X147025975Y-57815975D01*
X147136068Y-57681825D01*
X147217875Y-57528775D01*
X147268252Y-57362706D01*
X147285262Y-57190000D01*
X147268252Y-57017294D01*
X147217875Y-56851225D01*
X147164626Y-56751604D01*
X147258865Y-56662020D01*
X147387123Y-56480206D01*
X147477446Y-56276864D01*
X147494119Y-56221874D01*
X147367954Y-56047000D01*
X146527000Y-56047000D01*
X146527000Y-56067000D01*
X146273000Y-56067000D01*
X146273000Y-56047000D01*
X145432046Y-56047000D01*
X145305881Y-56221874D01*
X145322554Y-56276864D01*
X145328756Y-56290827D01*
X145227809Y-56249013D01*
X145076922Y-56219000D01*
X145004640Y-56219000D01*
X145023564Y-56160290D01*
X145035000Y-56056751D01*
X144876250Y-55898001D01*
X144459327Y-55898001D01*
X144400000Y-55892158D01*
X143709358Y-55892158D01*
X143715850Y-55048751D01*
X143927000Y-55048751D01*
X143927000Y-55652001D01*
X144876250Y-55652001D01*
X144910125Y-55618126D01*
X145305881Y-55618126D01*
X145432046Y-55793000D01*
X146273000Y-55793000D01*
X146273000Y-54950871D01*
X146527000Y-54950871D01*
X146527000Y-55793000D01*
X147367954Y-55793000D01*
X147494119Y-55618126D01*
X147477446Y-55563136D01*
X147387123Y-55359794D01*
X147258865Y-55177980D01*
X147097601Y-55024682D01*
X146909529Y-54905790D01*
X146701876Y-54825874D01*
X146527000Y-54950871D01*
X146273000Y-54950871D01*
X146098124Y-54825874D01*
X145890471Y-54905790D01*
X145702399Y-55024682D01*
X145541135Y-55177980D01*
X145412877Y-55359794D01*
X145322554Y-55563136D01*
X145305881Y-55618126D01*
X144910125Y-55618126D01*
X145035000Y-55493251D01*
X145023564Y-55389712D01*
X144985189Y-55270660D01*
X144924325Y-55161382D01*
X144843312Y-55066078D01*
X144745263Y-54988410D01*
X144633945Y-54931363D01*
X144513637Y-54897130D01*
X144388961Y-54887024D01*
X144085750Y-54890001D01*
X143927000Y-55048751D01*
X143715850Y-55048751D01*
X143724263Y-53956000D01*
X147544000Y-53956000D01*
X147544001Y-72544000D01*
X147544001Y-72544000D01*
G37*
X147544001Y-72544000D02*
X142404518Y-72544000D01*
X142453484Y-72511282D01*
X142500311Y-72525487D01*
X142575000Y-72532843D01*
X143575000Y-72532843D01*
X143650082Y-72525408D01*
X143721878Y-72503547D01*
X143725037Y-72501854D01*
X143728492Y-72503701D01*
X143800311Y-72525487D01*
X143875000Y-72532843D01*
X145025000Y-72532843D01*
X145099689Y-72525487D01*
X145171508Y-72503701D01*
X145237696Y-72468322D01*
X145295711Y-72420711D01*
X145343322Y-72362696D01*
X145378701Y-72296508D01*
X145400487Y-72224689D01*
X145407843Y-72150000D01*
X145407843Y-70650000D01*
X145400487Y-70575311D01*
X145378701Y-70503492D01*
X145343322Y-70437304D01*
X145295711Y-70379289D01*
X145237696Y-70331678D01*
X145171508Y-70296299D01*
X145164751Y-70294249D01*
X145169942Y-70292099D01*
X145297859Y-70206628D01*
X145406642Y-70097845D01*
X145490788Y-69971911D01*
X145503492Y-69978701D01*
X145575311Y-70000487D01*
X145650000Y-70007843D01*
X147150000Y-70007843D01*
X147224689Y-70000487D01*
X147296508Y-69978701D01*
X147362696Y-69943322D01*
X147420711Y-69895711D01*
X147468322Y-69837696D01*
X147503701Y-69771508D01*
X147525487Y-69699689D01*
X147532843Y-69625000D01*
X147532843Y-68625000D01*
X147525408Y-68549918D01*
X147503547Y-68478122D01*
X147501854Y-68474963D01*
X147503701Y-68471508D01*
X147525487Y-68399689D01*
X147532843Y-68325000D01*
X147532843Y-67175000D01*
X147525487Y-67100311D01*
X147503701Y-67028492D01*
X147468322Y-66962304D01*
X147420711Y-66904289D01*
X147362696Y-66856678D01*
X147296508Y-66821299D01*
X147224689Y-66799513D01*
X147150000Y-66792157D01*
X145650000Y-66792157D01*
X145575311Y-66799513D01*
X145503492Y-66821299D01*
X145437304Y-66856678D01*
X145379289Y-66904289D01*
X145331678Y-66962304D01*
X145296299Y-67028492D01*
X145274513Y-67100311D01*
X145267157Y-67175000D01*
X145267157Y-67202302D01*
X145257421Y-67205255D01*
X145169517Y-67252241D01*
X145092469Y-67315473D01*
X145076624Y-67334780D01*
X145026352Y-67385053D01*
X145035000Y-67306751D01*
X144876250Y-67148001D01*
X143927000Y-67148001D01*
X143927000Y-67751251D01*
X144085750Y-67910001D01*
X144388961Y-67912978D01*
X144508082Y-67903322D01*
X143317405Y-69094000D01*
X141134591Y-69094000D01*
X140498434Y-68457844D01*
X140650000Y-68457844D01*
X140724689Y-68450488D01*
X140775000Y-68435226D01*
X140825311Y-68450488D01*
X140900000Y-68457844D01*
X141400000Y-68457844D01*
X141474689Y-68450488D01*
X141525000Y-68435226D01*
X141575311Y-68450488D01*
X141650000Y-68457844D01*
X142150000Y-68457844D01*
X142224689Y-68450488D01*
X142275000Y-68435226D01*
X142325311Y-68450488D01*
X142400000Y-68457844D01*
X142900000Y-68457844D01*
X142974689Y-68450488D01*
X143046508Y-68428702D01*
X143112696Y-68393323D01*
X143170711Y-68345712D01*
X143218322Y-68287697D01*
X143253701Y-68221509D01*
X143275487Y-68149690D01*
X143282843Y-68075001D01*
X143282843Y-67912273D01*
X143514250Y-67910001D01*
X143673000Y-67751251D01*
X143673000Y-67148001D01*
X143653000Y-67148001D01*
X143653000Y-66907844D01*
X144400000Y-66907844D01*
X144459327Y-66902001D01*
X144876250Y-66902001D01*
X145035000Y-66743251D01*
X145023564Y-66639712D01*
X144985189Y-66520660D01*
X144924325Y-66411382D01*
X144843312Y-66316078D01*
X144782843Y-66268178D01*
X144782843Y-66025001D01*
X144775487Y-65950312D01*
X144760225Y-65900001D01*
X144775487Y-65849690D01*
X144782843Y-65775001D01*
X144782843Y-65275001D01*
X144775487Y-65200312D01*
X144760225Y-65150001D01*
X144775487Y-65099690D01*
X144782843Y-65025001D01*
X144782843Y-64525001D01*
X144775487Y-64450312D01*
X144760225Y-64400001D01*
X144775487Y-64349690D01*
X144782843Y-64275001D01*
X144782843Y-63775001D01*
X144775487Y-63700312D01*
X144760225Y-63650001D01*
X144775487Y-63599690D01*
X144782843Y-63525001D01*
X144782843Y-63025001D01*
X144775487Y-62950312D01*
X144760225Y-62900001D01*
X144775487Y-62849690D01*
X144782843Y-62775001D01*
X144782843Y-62275001D01*
X144775487Y-62200312D01*
X144760225Y-62150001D01*
X144775487Y-62099690D01*
X144782843Y-62025001D01*
X144782843Y-61525001D01*
X144775487Y-61450312D01*
X144760225Y-61400001D01*
X144775487Y-61349690D01*
X144782843Y-61275001D01*
X144782843Y-60775001D01*
X144781740Y-60763806D01*
X144844575Y-60744746D01*
X144932479Y-60697760D01*
X145009527Y-60634528D01*
X145025376Y-60615216D01*
X145579726Y-60060866D01*
X145582125Y-60068775D01*
X145656142Y-60207251D01*
X145629289Y-60229289D01*
X145581678Y-60287304D01*
X145546299Y-60353492D01*
X145524513Y-60425311D01*
X145517157Y-60500000D01*
X145517157Y-61500000D01*
X145524513Y-61574689D01*
X145546299Y-61646508D01*
X145581678Y-61712696D01*
X145629289Y-61770711D01*
X145687304Y-61818322D01*
X145753492Y-61853701D01*
X145825311Y-61875487D01*
X145900000Y-61882843D01*
X146900000Y-61882843D01*
X146974689Y-61875487D01*
X147046508Y-61853701D01*
X147112696Y-61818322D01*
X147170711Y-61770711D01*
X147218322Y-61712696D01*
X147253701Y-61646508D01*
X147275487Y-61574689D01*
X147282843Y-61500000D01*
X147282843Y-60500000D01*
X147275487Y-60425311D01*
X147253701Y-60353492D01*
X147218322Y-60287304D01*
X147170711Y-60229289D01*
X147143858Y-60207251D01*
X147217875Y-60068775D01*
X147268252Y-59902706D01*
X147285262Y-59730000D01*
X147268252Y-59557294D01*
X147217875Y-59391225D01*
X147136068Y-59238175D01*
X147025975Y-59104025D01*
X147014978Y-59095000D01*
X147025975Y-59085975D01*
X147136068Y-58951825D01*
X147217875Y-58798775D01*
X147268252Y-58632706D01*
X147285262Y-58460000D01*
X147268252Y-58287294D01*
X147217875Y-58121225D01*
X147136068Y-57968175D01*
X147025975Y-57834025D01*
X147014978Y-57825000D01*
X147025975Y-57815975D01*
X147136068Y-57681825D01*
X147217875Y-57528775D01*
X147268252Y-57362706D01*
X147285262Y-57190000D01*
X147268252Y-57017294D01*
X147217875Y-56851225D01*
X147164626Y-56751604D01*
X147258865Y-56662020D01*
X147387123Y-56480206D01*
X147477446Y-56276864D01*
X147494119Y-56221874D01*
X147367954Y-56047000D01*
X146527000Y-56047000D01*
X146527000Y-56067000D01*
X146273000Y-56067000D01*
X146273000Y-56047000D01*
X145432046Y-56047000D01*
X145305881Y-56221874D01*
X145322554Y-56276864D01*
X145328756Y-56290827D01*
X145227809Y-56249013D01*
X145076922Y-56219000D01*
X145004640Y-56219000D01*
X145023564Y-56160290D01*
X145035000Y-56056751D01*
X144876250Y-55898001D01*
X144459327Y-55898001D01*
X144400000Y-55892158D01*
X143709358Y-55892158D01*
X143715850Y-55048751D01*
X143927000Y-55048751D01*
X143927000Y-55652001D01*
X144876250Y-55652001D01*
X144910125Y-55618126D01*
X145305881Y-55618126D01*
X145432046Y-55793000D01*
X146273000Y-55793000D01*
X146273000Y-54950871D01*
X146527000Y-54950871D01*
X146527000Y-55793000D01*
X147367954Y-55793000D01*
X147494119Y-55618126D01*
X147477446Y-55563136D01*
X147387123Y-55359794D01*
X147258865Y-55177980D01*
X147097601Y-55024682D01*
X146909529Y-54905790D01*
X146701876Y-54825874D01*
X146527000Y-54950871D01*
X146273000Y-54950871D01*
X146098124Y-54825874D01*
X145890471Y-54905790D01*
X145702399Y-55024682D01*
X145541135Y-55177980D01*
X145412877Y-55359794D01*
X145322554Y-55563136D01*
X145305881Y-55618126D01*
X144910125Y-55618126D01*
X145035000Y-55493251D01*
X145023564Y-55389712D01*
X144985189Y-55270660D01*
X144924325Y-55161382D01*
X144843312Y-55066078D01*
X144745263Y-54988410D01*
X144633945Y-54931363D01*
X144513637Y-54897130D01*
X144388961Y-54887024D01*
X144085750Y-54890001D01*
X143927000Y-55048751D01*
X143715850Y-55048751D01*
X143724263Y-53956000D01*
X147544000Y-53956000D01*
X147544001Y-72544000D01*
G36*
X132923750Y-58652001D02*
G01*
X133873000Y-58652001D01*
X133873000Y-58628001D01*
X134127000Y-58628001D01*
X134127000Y-58652001D01*
X135076250Y-58652001D01*
X135101251Y-58627000D01*
X142817157Y-58627000D01*
X142817157Y-59025001D01*
X142824513Y-59099690D01*
X142839775Y-59150001D01*
X142824513Y-59200312D01*
X142817157Y-59275001D01*
X142817157Y-59775001D01*
X142824513Y-59849690D01*
X142839775Y-59900001D01*
X142824513Y-59950312D01*
X142817157Y-60025001D01*
X142817157Y-60525001D01*
X142824513Y-60599690D01*
X142839775Y-60650001D01*
X142824513Y-60700312D01*
X142817157Y-60775001D01*
X142817157Y-61275001D01*
X142824513Y-61349690D01*
X142839775Y-61400001D01*
X142824513Y-61450312D01*
X142817157Y-61525001D01*
X142817157Y-62025001D01*
X142824513Y-62099690D01*
X142839775Y-62150001D01*
X142824513Y-62200312D01*
X142817157Y-62275001D01*
X142817157Y-62775001D01*
X142824513Y-62849690D01*
X142839775Y-62900001D01*
X142824513Y-62950312D01*
X142817157Y-63025001D01*
X142817157Y-63525001D01*
X142824513Y-63599690D01*
X142839775Y-63650001D01*
X142824513Y-63700312D01*
X142817157Y-63775001D01*
X142817157Y-64275001D01*
X142824513Y-64349690D01*
X142839775Y-64400001D01*
X142824513Y-64450312D01*
X142817157Y-64525001D01*
X142817157Y-65025001D01*
X142824513Y-65099690D01*
X142839775Y-65150001D01*
X142824513Y-65200312D01*
X142817157Y-65275001D01*
X142817157Y-65775001D01*
X142824513Y-65849690D01*
X142839775Y-65900001D01*
X142824513Y-65950312D01*
X142817157Y-66025001D01*
X142817157Y-66268178D01*
X142756688Y-66316078D01*
X142675675Y-66411382D01*
X142630686Y-66492158D01*
X142400000Y-66492158D01*
X142325311Y-66499514D01*
X142275000Y-66514776D01*
X142224689Y-66499514D01*
X142150000Y-66492158D01*
X141650000Y-66492158D01*
X141575311Y-66499514D01*
X141525000Y-66514776D01*
X141474689Y-66499514D01*
X141400000Y-66492158D01*
X140900000Y-66492158D01*
X140825311Y-66499514D01*
X140775000Y-66514776D01*
X140724689Y-66499514D01*
X140650000Y-66492158D01*
X140150000Y-66492158D01*
X140075311Y-66499514D01*
X140025000Y-66514776D01*
X139974689Y-66499514D01*
X139900000Y-66492158D01*
X139400000Y-66492158D01*
X139325311Y-66499514D01*
X139275000Y-66514776D01*
X139224689Y-66499514D01*
X139150000Y-66492158D01*
X138650000Y-66492158D01*
X138575311Y-66499514D01*
X138525000Y-66514776D01*
X138474689Y-66499514D01*
X138400000Y-66492158D01*
X137900000Y-66492158D01*
X137825311Y-66499514D01*
X137775000Y-66514776D01*
X137724689Y-66499514D01*
X137650000Y-66492158D01*
X137150000Y-66492158D01*
X137075311Y-66499514D01*
X137025000Y-66514776D01*
X136974689Y-66499514D01*
X136900000Y-66492158D01*
X136400000Y-66492158D01*
X136325311Y-66499514D01*
X136275000Y-66514776D01*
X136224689Y-66499514D01*
X136150000Y-66492158D01*
X135906823Y-66492158D01*
X135858923Y-66431689D01*
X135763619Y-66350676D01*
X135654341Y-66289812D01*
X135535289Y-66251437D01*
X135431750Y-66240001D01*
X135273000Y-66398751D01*
X135273000Y-66815674D01*
X135267157Y-66875001D01*
X135267157Y-67622001D01*
X135027000Y-67622001D01*
X135027000Y-67602001D01*
X135003000Y-67602001D01*
X135003000Y-67348001D01*
X135027000Y-67348001D01*
X135027000Y-66398751D01*
X134982843Y-66354594D01*
X134982843Y-66025001D01*
X134975487Y-65950312D01*
X134960225Y-65900001D01*
X134975487Y-65849690D01*
X134982843Y-65775001D01*
X134982843Y-65275001D01*
X134975487Y-65200312D01*
X134960225Y-65150001D01*
X134975487Y-65099690D01*
X134982843Y-65025001D01*
X134982843Y-64525001D01*
X134975487Y-64450312D01*
X134960225Y-64400001D01*
X134975487Y-64349690D01*
X134982843Y-64275001D01*
X134982843Y-63775001D01*
X134975487Y-63700312D01*
X134960225Y-63650001D01*
X134975487Y-63599690D01*
X134982843Y-63525001D01*
X134982843Y-63025001D01*
X134975487Y-62950312D01*
X134960225Y-62900001D01*
X134975487Y-62849690D01*
X134982843Y-62775001D01*
X134982843Y-62275001D01*
X134975487Y-62200312D01*
X134960225Y-62150001D01*
X134975487Y-62099690D01*
X134982843Y-62025001D01*
X134982843Y-61525001D01*
X134975487Y-61450312D01*
X134960225Y-61400001D01*
X134975487Y-61349690D01*
X134982843Y-61275001D01*
X134982843Y-60775001D01*
X134975487Y-60700312D01*
X134960225Y-60650001D01*
X134975487Y-60599690D01*
X134982843Y-60525001D01*
X134982843Y-60025001D01*
X134975487Y-59950312D01*
X134960225Y-59900001D01*
X134975487Y-59849690D01*
X134982843Y-59775001D01*
X134982843Y-59531824D01*
X135043312Y-59483924D01*
X135124325Y-59388620D01*
X135185189Y-59279342D01*
X135223564Y-59160290D01*
X135235000Y-59056751D01*
X135076250Y-58898001D01*
X134659327Y-58898001D01*
X134600000Y-58892158D01*
X133400000Y-58892158D01*
X133340673Y-58898001D01*
X132923750Y-58898001D01*
X132765000Y-59056751D01*
X132776436Y-59160290D01*
X132814811Y-59279342D01*
X132875675Y-59388620D01*
X132956688Y-59483924D01*
X133017157Y-59531824D01*
X133017157Y-59775001D01*
X133024513Y-59849690D01*
X133039775Y-59900001D01*
X133024513Y-59950312D01*
X133017157Y-60025001D01*
X133017157Y-60525001D01*
X133024513Y-60599690D01*
X133039775Y-60650001D01*
X133024513Y-60700312D01*
X133017157Y-60775001D01*
X133017157Y-61275001D01*
X133024513Y-61349690D01*
X133039775Y-61400001D01*
X133024513Y-61450312D01*
X133017157Y-61525001D01*
X133017157Y-62025001D01*
X133024513Y-62099690D01*
X133039775Y-62150001D01*
X133024513Y-62200312D01*
X133017157Y-62275001D01*
X133017157Y-62775001D01*
X133024513Y-62849690D01*
X133039775Y-62900001D01*
X133024513Y-62950312D01*
X133017157Y-63025001D01*
X133017157Y-63525001D01*
X133024513Y-63599690D01*
X133039775Y-63650001D01*
X133024513Y-63700312D01*
X133017157Y-63775001D01*
X133017157Y-64275001D01*
X133024513Y-64349690D01*
X133039775Y-64400001D01*
X133024513Y-64450312D01*
X133017157Y-64525001D01*
X133017157Y-65025001D01*
X133024513Y-65099690D01*
X133039775Y-65150001D01*
X133024513Y-65200312D01*
X133017157Y-65275001D01*
X133017157Y-65775001D01*
X133024513Y-65849690D01*
X133039775Y-65900001D01*
X133024513Y-65950312D01*
X133017157Y-66025001D01*
X133017157Y-66525001D01*
X133024513Y-66599690D01*
X133039775Y-66650001D01*
X133024513Y-66700312D01*
X133017157Y-66775001D01*
X133017157Y-67275001D01*
X133024513Y-67349690D01*
X133046299Y-67421509D01*
X133081678Y-67487697D01*
X133129289Y-67545712D01*
X133187304Y-67593323D01*
X133253492Y-67628702D01*
X133325311Y-67650488D01*
X133400000Y-67657844D01*
X134367907Y-67657844D01*
X134265000Y-67760751D01*
X134262023Y-68063962D01*
X134272129Y-68188638D01*
X134306362Y-68308946D01*
X134311514Y-68318999D01*
X131780189Y-68318999D01*
X131750987Y-68172191D01*
X131692113Y-68030058D01*
X131606642Y-67902141D01*
X131497859Y-67793358D01*
X131369942Y-67707887D01*
X131227809Y-67649013D01*
X131076922Y-67619000D01*
X130923078Y-67619000D01*
X130772191Y-67649013D01*
X130630058Y-67707887D01*
X130502141Y-67793358D01*
X130393358Y-67902141D01*
X130307887Y-68030058D01*
X130249013Y-68172191D01*
X130219000Y-68323078D01*
X130219000Y-68476922D01*
X130249013Y-68627809D01*
X130307887Y-68769942D01*
X130393358Y-68897859D01*
X130502141Y-69006642D01*
X130630058Y-69092113D01*
X130772191Y-69150987D01*
X130923078Y-69181000D01*
X131017157Y-69181000D01*
X131017157Y-70050000D01*
X131024513Y-70124689D01*
X131046299Y-70196508D01*
X131081678Y-70262696D01*
X131129289Y-70320711D01*
X131187304Y-70368322D01*
X131253492Y-70403701D01*
X131325311Y-70425487D01*
X131400000Y-70432843D01*
X132200000Y-70432843D01*
X132274689Y-70425487D01*
X132346508Y-70403701D01*
X132412696Y-70368322D01*
X132462147Y-70327739D01*
X133049051Y-70914642D01*
X133035750Y-70915000D01*
X132877000Y-71073750D01*
X132877000Y-71873000D01*
X132897000Y-71873000D01*
X132897000Y-72127000D01*
X132877000Y-72127000D01*
X132877000Y-72147000D01*
X132623000Y-72147000D01*
X132623000Y-72127000D01*
X131873750Y-72127000D01*
X131715000Y-72285750D01*
X131711928Y-72450000D01*
X131721186Y-72544000D01*
X131619629Y-72544000D01*
X131625487Y-72524689D01*
X131632843Y-72450000D01*
X131632843Y-71550000D01*
X131711928Y-71550000D01*
X131715000Y-71714250D01*
X131873750Y-71873000D01*
X132623000Y-71873000D01*
X132623000Y-71073750D01*
X132464250Y-70915000D01*
X132350000Y-70911928D01*
X132225518Y-70924188D01*
X132105820Y-70960498D01*
X131995506Y-71019463D01*
X131898815Y-71098815D01*
X131819463Y-71195506D01*
X131760498Y-71305820D01*
X131724188Y-71425518D01*
X131711928Y-71550000D01*
X131632843Y-71550000D01*
X131625487Y-71475311D01*
X131603701Y-71403492D01*
X131568322Y-71337304D01*
X131520711Y-71279289D01*
X131462696Y-71231678D01*
X131396508Y-71196299D01*
X131324689Y-71174513D01*
X131250000Y-71167157D01*
X130450000Y-71167157D01*
X130375311Y-71174513D01*
X130303492Y-71196299D01*
X130237304Y-71231678D01*
X130179289Y-71279289D01*
X130131678Y-71337304D01*
X130096299Y-71403492D01*
X130074513Y-71475311D01*
X130067157Y-71550000D01*
X130067157Y-72450000D01*
X130074513Y-72524689D01*
X130080371Y-72544000D01*
X129956000Y-72544000D01*
X129956000Y-66282536D01*
X129994463Y-66354494D01*
X130073815Y-66451185D01*
X130170506Y-66530537D01*
X130280820Y-66589502D01*
X130400518Y-66625812D01*
X130525000Y-66638072D01*
X130714250Y-66635000D01*
X130873000Y-66476250D01*
X130873000Y-65602000D01*
X131127000Y-65602000D01*
X131127000Y-66476250D01*
X131285750Y-66635000D01*
X131475000Y-66638072D01*
X131599482Y-66625812D01*
X131719180Y-66589502D01*
X131829494Y-66530537D01*
X131926185Y-66451185D01*
X132005537Y-66354494D01*
X132064502Y-66244180D01*
X132100812Y-66124482D01*
X132113072Y-66000000D01*
X132110000Y-65760750D01*
X131951250Y-65602000D01*
X131127000Y-65602000D01*
X130873000Y-65602000D01*
X130853000Y-65602000D01*
X130853000Y-65348000D01*
X130873000Y-65348000D01*
X130873000Y-65328000D01*
X131127000Y-65328000D01*
X131127000Y-65348000D01*
X131951250Y-65348000D01*
X132110000Y-65189250D01*
X132113072Y-64950000D01*
X132100812Y-64825518D01*
X132064502Y-64705820D01*
X132005537Y-64595506D01*
X131926185Y-64498815D01*
X131829494Y-64419463D01*
X131740980Y-64372151D01*
X131753296Y-64357144D01*
X131810622Y-64249895D01*
X131845923Y-64133523D01*
X131857843Y-64012500D01*
X131857843Y-63437500D01*
X131845923Y-63316477D01*
X131810622Y-63200105D01*
X131753296Y-63092856D01*
X131676149Y-62998851D01*
X131582144Y-62921704D01*
X131506000Y-62881004D01*
X131506000Y-61998501D01*
X131606642Y-61897859D01*
X131692113Y-61769942D01*
X131750987Y-61627809D01*
X131781000Y-61476922D01*
X131781000Y-61323078D01*
X131750987Y-61172191D01*
X131692113Y-61030058D01*
X131606642Y-60902141D01*
X131497859Y-60793358D01*
X131369942Y-60707887D01*
X131227809Y-60649013D01*
X131076922Y-60619000D01*
X130923078Y-60619000D01*
X130772191Y-60649013D01*
X130630058Y-60707887D01*
X130502141Y-60793358D01*
X130393358Y-60902141D01*
X130307887Y-61030058D01*
X130249013Y-61172191D01*
X130219000Y-61323078D01*
X130219000Y-61476922D01*
X130249013Y-61627809D01*
X130307887Y-61769942D01*
X130393358Y-61897859D01*
X130494001Y-61998502D01*
X130494000Y-62881004D01*
X130417856Y-62921704D01*
X130323851Y-62998851D01*
X130246704Y-63092856D01*
X130189378Y-63200105D01*
X130154077Y-63316477D01*
X130142157Y-63437500D01*
X130142157Y-64012500D01*
X130154077Y-64133523D01*
X130189378Y-64249895D01*
X130246704Y-64357144D01*
X130259020Y-64372151D01*
X130170506Y-64419463D01*
X130073815Y-64498815D01*
X129994463Y-64595506D01*
X129956000Y-64667464D01*
X129956000Y-58627000D01*
X132898749Y-58627000D01*
X132923750Y-58652001D01*
X132923750Y-58652001D01*
G37*
X132923750Y-58652001D02*
X133873000Y-58652001D01*
X133873000Y-58628001D01*
X134127000Y-58628001D01*
X134127000Y-58652001D01*
X135076250Y-58652001D01*
X135101251Y-58627000D01*
X142817157Y-58627000D01*
X142817157Y-59025001D01*
X142824513Y-59099690D01*
X142839775Y-59150001D01*
X142824513Y-59200312D01*
X142817157Y-59275001D01*
X142817157Y-59775001D01*
X142824513Y-59849690D01*
X142839775Y-59900001D01*
X142824513Y-59950312D01*
X142817157Y-60025001D01*
X142817157Y-60525001D01*
X142824513Y-60599690D01*
X142839775Y-60650001D01*
X142824513Y-60700312D01*
X142817157Y-60775001D01*
X142817157Y-61275001D01*
X142824513Y-61349690D01*
X142839775Y-61400001D01*
X142824513Y-61450312D01*
X142817157Y-61525001D01*
X142817157Y-62025001D01*
X142824513Y-62099690D01*
X142839775Y-62150001D01*
X142824513Y-62200312D01*
X142817157Y-62275001D01*
X142817157Y-62775001D01*
X142824513Y-62849690D01*
X142839775Y-62900001D01*
X142824513Y-62950312D01*
X142817157Y-63025001D01*
X142817157Y-63525001D01*
X142824513Y-63599690D01*
X142839775Y-63650001D01*
X142824513Y-63700312D01*
X142817157Y-63775001D01*
X142817157Y-64275001D01*
X142824513Y-64349690D01*
X142839775Y-64400001D01*
X142824513Y-64450312D01*
X142817157Y-64525001D01*
X142817157Y-65025001D01*
X142824513Y-65099690D01*
X142839775Y-65150001D01*
X142824513Y-65200312D01*
X142817157Y-65275001D01*
X142817157Y-65775001D01*
X142824513Y-65849690D01*
X142839775Y-65900001D01*
X142824513Y-65950312D01*
X142817157Y-66025001D01*
X142817157Y-66268178D01*
X142756688Y-66316078D01*
X142675675Y-66411382D01*
X142630686Y-66492158D01*
X142400000Y-66492158D01*
X142325311Y-66499514D01*
X142275000Y-66514776D01*
X142224689Y-66499514D01*
X142150000Y-66492158D01*
X141650000Y-66492158D01*
X141575311Y-66499514D01*
X141525000Y-66514776D01*
X141474689Y-66499514D01*
X141400000Y-66492158D01*
X140900000Y-66492158D01*
X140825311Y-66499514D01*
X140775000Y-66514776D01*
X140724689Y-66499514D01*
X140650000Y-66492158D01*
X140150000Y-66492158D01*
X140075311Y-66499514D01*
X140025000Y-66514776D01*
X139974689Y-66499514D01*
X139900000Y-66492158D01*
X139400000Y-66492158D01*
X139325311Y-66499514D01*
X139275000Y-66514776D01*
X139224689Y-66499514D01*
X139150000Y-66492158D01*
X138650000Y-66492158D01*
X138575311Y-66499514D01*
X138525000Y-66514776D01*
X138474689Y-66499514D01*
X138400000Y-66492158D01*
X137900000Y-66492158D01*
X137825311Y-66499514D01*
X137775000Y-66514776D01*
X137724689Y-66499514D01*
X137650000Y-66492158D01*
X137150000Y-66492158D01*
X137075311Y-66499514D01*
X137025000Y-66514776D01*
X136974689Y-66499514D01*
X136900000Y-66492158D01*
X136400000Y-66492158D01*
X136325311Y-66499514D01*
X136275000Y-66514776D01*
X136224689Y-66499514D01*
X136150000Y-66492158D01*
X135906823Y-66492158D01*
X135858923Y-66431689D01*
X135763619Y-66350676D01*
X135654341Y-66289812D01*
X135535289Y-66251437D01*
X135431750Y-66240001D01*
X135273000Y-66398751D01*
X135273000Y-66815674D01*
X135267157Y-66875001D01*
X135267157Y-67622001D01*
X135027000Y-67622001D01*
X135027000Y-67602001D01*
X135003000Y-67602001D01*
X135003000Y-67348001D01*
X135027000Y-67348001D01*
X135027000Y-66398751D01*
X134982843Y-66354594D01*
X134982843Y-66025001D01*
X134975487Y-65950312D01*
X134960225Y-65900001D01*
X134975487Y-65849690D01*
X134982843Y-65775001D01*
X134982843Y-65275001D01*
X134975487Y-65200312D01*
X134960225Y-65150001D01*
X134975487Y-65099690D01*
X134982843Y-65025001D01*
X134982843Y-64525001D01*
X134975487Y-64450312D01*
X134960225Y-64400001D01*
X134975487Y-64349690D01*
X134982843Y-64275001D01*
X134982843Y-63775001D01*
X134975487Y-63700312D01*
X134960225Y-63650001D01*
X134975487Y-63599690D01*
X134982843Y-63525001D01*
X134982843Y-63025001D01*
X134975487Y-62950312D01*
X134960225Y-62900001D01*
X134975487Y-62849690D01*
X134982843Y-62775001D01*
X134982843Y-62275001D01*
X134975487Y-62200312D01*
X134960225Y-62150001D01*
X134975487Y-62099690D01*
X134982843Y-62025001D01*
X134982843Y-61525001D01*
X134975487Y-61450312D01*
X134960225Y-61400001D01*
X134975487Y-61349690D01*
X134982843Y-61275001D01*
X134982843Y-60775001D01*
X134975487Y-60700312D01*
X134960225Y-60650001D01*
X134975487Y-60599690D01*
X134982843Y-60525001D01*
X134982843Y-60025001D01*
X134975487Y-59950312D01*
X134960225Y-59900001D01*
X134975487Y-59849690D01*
X134982843Y-59775001D01*
X134982843Y-59531824D01*
X135043312Y-59483924D01*
X135124325Y-59388620D01*
X135185189Y-59279342D01*
X135223564Y-59160290D01*
X135235000Y-59056751D01*
X135076250Y-58898001D01*
X134659327Y-58898001D01*
X134600000Y-58892158D01*
X133400000Y-58892158D01*
X133340673Y-58898001D01*
X132923750Y-58898001D01*
X132765000Y-59056751D01*
X132776436Y-59160290D01*
X132814811Y-59279342D01*
X132875675Y-59388620D01*
X132956688Y-59483924D01*
X133017157Y-59531824D01*
X133017157Y-59775001D01*
X133024513Y-59849690D01*
X133039775Y-59900001D01*
X133024513Y-59950312D01*
X133017157Y-60025001D01*
X133017157Y-60525001D01*
X133024513Y-60599690D01*
X133039775Y-60650001D01*
X133024513Y-60700312D01*
X133017157Y-60775001D01*
X133017157Y-61275001D01*
X133024513Y-61349690D01*
X133039775Y-61400001D01*
X133024513Y-61450312D01*
X133017157Y-61525001D01*
X133017157Y-62025001D01*
X133024513Y-62099690D01*
X133039775Y-62150001D01*
X133024513Y-62200312D01*
X133017157Y-62275001D01*
X133017157Y-62775001D01*
X133024513Y-62849690D01*
X133039775Y-62900001D01*
X133024513Y-62950312D01*
X133017157Y-63025001D01*
X133017157Y-63525001D01*
X133024513Y-63599690D01*
X133039775Y-63650001D01*
X133024513Y-63700312D01*
X133017157Y-63775001D01*
X133017157Y-64275001D01*
X133024513Y-64349690D01*
X133039775Y-64400001D01*
X133024513Y-64450312D01*
X133017157Y-64525001D01*
X133017157Y-65025001D01*
X133024513Y-65099690D01*
X133039775Y-65150001D01*
X133024513Y-65200312D01*
X133017157Y-65275001D01*
X133017157Y-65775001D01*
X133024513Y-65849690D01*
X133039775Y-65900001D01*
X133024513Y-65950312D01*
X133017157Y-66025001D01*
X133017157Y-66525001D01*
X133024513Y-66599690D01*
X133039775Y-66650001D01*
X133024513Y-66700312D01*
X133017157Y-66775001D01*
X133017157Y-67275001D01*
X133024513Y-67349690D01*
X133046299Y-67421509D01*
X133081678Y-67487697D01*
X133129289Y-67545712D01*
X133187304Y-67593323D01*
X133253492Y-67628702D01*
X133325311Y-67650488D01*
X133400000Y-67657844D01*
X134367907Y-67657844D01*
X134265000Y-67760751D01*
X134262023Y-68063962D01*
X134272129Y-68188638D01*
X134306362Y-68308946D01*
X134311514Y-68318999D01*
X131780189Y-68318999D01*
X131750987Y-68172191D01*
X131692113Y-68030058D01*
X131606642Y-67902141D01*
X131497859Y-67793358D01*
X131369942Y-67707887D01*
X131227809Y-67649013D01*
X131076922Y-67619000D01*
X130923078Y-67619000D01*
X130772191Y-67649013D01*
X130630058Y-67707887D01*
X130502141Y-67793358D01*
X130393358Y-67902141D01*
X130307887Y-68030058D01*
X130249013Y-68172191D01*
X130219000Y-68323078D01*
X130219000Y-68476922D01*
X130249013Y-68627809D01*
X130307887Y-68769942D01*
X130393358Y-68897859D01*
X130502141Y-69006642D01*
X130630058Y-69092113D01*
X130772191Y-69150987D01*
X130923078Y-69181000D01*
X131017157Y-69181000D01*
X131017157Y-70050000D01*
X131024513Y-70124689D01*
X131046299Y-70196508D01*
X131081678Y-70262696D01*
X131129289Y-70320711D01*
X131187304Y-70368322D01*
X131253492Y-70403701D01*
X131325311Y-70425487D01*
X131400000Y-70432843D01*
X132200000Y-70432843D01*
X132274689Y-70425487D01*
X132346508Y-70403701D01*
X132412696Y-70368322D01*
X132462147Y-70327739D01*
X133049051Y-70914642D01*
X133035750Y-70915000D01*
X132877000Y-71073750D01*
X132877000Y-71873000D01*
X132897000Y-71873000D01*
X132897000Y-72127000D01*
X132877000Y-72127000D01*
X132877000Y-72147000D01*
X132623000Y-72147000D01*
X132623000Y-72127000D01*
X131873750Y-72127000D01*
X131715000Y-72285750D01*
X131711928Y-72450000D01*
X131721186Y-72544000D01*
X131619629Y-72544000D01*
X131625487Y-72524689D01*
X131632843Y-72450000D01*
X131632843Y-71550000D01*
X131711928Y-71550000D01*
X131715000Y-71714250D01*
X131873750Y-71873000D01*
X132623000Y-71873000D01*
X132623000Y-71073750D01*
X132464250Y-70915000D01*
X132350000Y-70911928D01*
X132225518Y-70924188D01*
X132105820Y-70960498D01*
X131995506Y-71019463D01*
X131898815Y-71098815D01*
X131819463Y-71195506D01*
X131760498Y-71305820D01*
X131724188Y-71425518D01*
X131711928Y-71550000D01*
X131632843Y-71550000D01*
X131625487Y-71475311D01*
X131603701Y-71403492D01*
X131568322Y-71337304D01*
X131520711Y-71279289D01*
X131462696Y-71231678D01*
X131396508Y-71196299D01*
X131324689Y-71174513D01*
X131250000Y-71167157D01*
X130450000Y-71167157D01*
X130375311Y-71174513D01*
X130303492Y-71196299D01*
X130237304Y-71231678D01*
X130179289Y-71279289D01*
X130131678Y-71337304D01*
X130096299Y-71403492D01*
X130074513Y-71475311D01*
X130067157Y-71550000D01*
X130067157Y-72450000D01*
X130074513Y-72524689D01*
X130080371Y-72544000D01*
X129956000Y-72544000D01*
X129956000Y-66282536D01*
X129994463Y-66354494D01*
X130073815Y-66451185D01*
X130170506Y-66530537D01*
X130280820Y-66589502D01*
X130400518Y-66625812D01*
X130525000Y-66638072D01*
X130714250Y-66635000D01*
X130873000Y-66476250D01*
X130873000Y-65602000D01*
X131127000Y-65602000D01*
X131127000Y-66476250D01*
X131285750Y-66635000D01*
X131475000Y-66638072D01*
X131599482Y-66625812D01*
X131719180Y-66589502D01*
X131829494Y-66530537D01*
X131926185Y-66451185D01*
X132005537Y-66354494D01*
X132064502Y-66244180D01*
X132100812Y-66124482D01*
X132113072Y-66000000D01*
X132110000Y-65760750D01*
X131951250Y-65602000D01*
X131127000Y-65602000D01*
X130873000Y-65602000D01*
X130853000Y-65602000D01*
X130853000Y-65348000D01*
X130873000Y-65348000D01*
X130873000Y-65328000D01*
X131127000Y-65328000D01*
X131127000Y-65348000D01*
X131951250Y-65348000D01*
X132110000Y-65189250D01*
X132113072Y-64950000D01*
X132100812Y-64825518D01*
X132064502Y-64705820D01*
X132005537Y-64595506D01*
X131926185Y-64498815D01*
X131829494Y-64419463D01*
X131740980Y-64372151D01*
X131753296Y-64357144D01*
X131810622Y-64249895D01*
X131845923Y-64133523D01*
X131857843Y-64012500D01*
X131857843Y-63437500D01*
X131845923Y-63316477D01*
X131810622Y-63200105D01*
X131753296Y-63092856D01*
X131676149Y-62998851D01*
X131582144Y-62921704D01*
X131506000Y-62881004D01*
X131506000Y-61998501D01*
X131606642Y-61897859D01*
X131692113Y-61769942D01*
X131750987Y-61627809D01*
X131781000Y-61476922D01*
X131781000Y-61323078D01*
X131750987Y-61172191D01*
X131692113Y-61030058D01*
X131606642Y-60902141D01*
X131497859Y-60793358D01*
X131369942Y-60707887D01*
X131227809Y-60649013D01*
X131076922Y-60619000D01*
X130923078Y-60619000D01*
X130772191Y-60649013D01*
X130630058Y-60707887D01*
X130502141Y-60793358D01*
X130393358Y-60902141D01*
X130307887Y-61030058D01*
X130249013Y-61172191D01*
X130219000Y-61323078D01*
X130219000Y-61476922D01*
X130249013Y-61627809D01*
X130307887Y-61769942D01*
X130393358Y-61897859D01*
X130494001Y-61998502D01*
X130494000Y-62881004D01*
X130417856Y-62921704D01*
X130323851Y-62998851D01*
X130246704Y-63092856D01*
X130189378Y-63200105D01*
X130154077Y-63316477D01*
X130142157Y-63437500D01*
X130142157Y-64012500D01*
X130154077Y-64133523D01*
X130189378Y-64249895D01*
X130246704Y-64357144D01*
X130259020Y-64372151D01*
X130170506Y-64419463D01*
X130073815Y-64498815D01*
X129994463Y-64595506D01*
X129956000Y-64667464D01*
X129956000Y-58627000D01*
X132898749Y-58627000D01*
X132923750Y-58652001D01*
G36*
X137075311Y-68450488D02*
G01*
X137150000Y-68457844D01*
X137645002Y-68457844D01*
X137651322Y-68522014D01*
X137680255Y-68617396D01*
X137727241Y-68705301D01*
X137790473Y-68782349D01*
X137809785Y-68798198D01*
X139278743Y-70267157D01*
X138775000Y-70267157D01*
X138700311Y-70274513D01*
X138628492Y-70296299D01*
X138562304Y-70331678D01*
X138504289Y-70379289D01*
X138456678Y-70437304D01*
X138421299Y-70503492D01*
X138399513Y-70575311D01*
X138392157Y-70650000D01*
X138392157Y-71494000D01*
X138127328Y-71494000D01*
X138125487Y-71475311D01*
X138106000Y-71411071D01*
X138106000Y-71398501D01*
X138206642Y-71297859D01*
X138292113Y-71169942D01*
X138350987Y-71027809D01*
X138381000Y-70876922D01*
X138381000Y-70723078D01*
X138350987Y-70572191D01*
X138292113Y-70430058D01*
X138206642Y-70302141D01*
X138097859Y-70193358D01*
X137969942Y-70107887D01*
X137827809Y-70049013D01*
X137676922Y-70019000D01*
X137523078Y-70019000D01*
X137372191Y-70049013D01*
X137230058Y-70107887D01*
X137201453Y-70127000D01*
X136527000Y-70127000D01*
X136527000Y-70147000D01*
X136273000Y-70147000D01*
X136273000Y-70127000D01*
X135523750Y-70127000D01*
X135365000Y-70285750D01*
X135364846Y-70294000D01*
X133859592Y-70294000D01*
X132896590Y-69330999D01*
X135375156Y-69330999D01*
X135400002Y-69333446D01*
X135402183Y-69333231D01*
X135374188Y-69425518D01*
X135361928Y-69550000D01*
X135365000Y-69714250D01*
X135523750Y-69873000D01*
X136273000Y-69873000D01*
X136273000Y-69073750D01*
X136527000Y-69073750D01*
X136527000Y-69873000D01*
X137276250Y-69873000D01*
X137435000Y-69714250D01*
X137438072Y-69550000D01*
X137425812Y-69425518D01*
X137389502Y-69305820D01*
X137330537Y-69195506D01*
X137251185Y-69098815D01*
X137154494Y-69019463D01*
X137044180Y-68960498D01*
X136924482Y-68924188D01*
X136800000Y-68911928D01*
X136685750Y-68915000D01*
X136527000Y-69073750D01*
X136273000Y-69073750D01*
X136114250Y-68915000D01*
X136027914Y-68912679D01*
X136240220Y-68700373D01*
X136259527Y-68684528D01*
X136322759Y-68607480D01*
X136369745Y-68519576D01*
X136388805Y-68456741D01*
X136400000Y-68457844D01*
X136900000Y-68457844D01*
X136974689Y-68450488D01*
X137025000Y-68435226D01*
X137075311Y-68450488D01*
X137075311Y-68450488D01*
G37*
X137075311Y-68450488D02*
X137150000Y-68457844D01*
X137645002Y-68457844D01*
X137651322Y-68522014D01*
X137680255Y-68617396D01*
X137727241Y-68705301D01*
X137790473Y-68782349D01*
X137809785Y-68798198D01*
X139278743Y-70267157D01*
X138775000Y-70267157D01*
X138700311Y-70274513D01*
X138628492Y-70296299D01*
X138562304Y-70331678D01*
X138504289Y-70379289D01*
X138456678Y-70437304D01*
X138421299Y-70503492D01*
X138399513Y-70575311D01*
X138392157Y-70650000D01*
X138392157Y-71494000D01*
X138127328Y-71494000D01*
X138125487Y-71475311D01*
X138106000Y-71411071D01*
X138106000Y-71398501D01*
X138206642Y-71297859D01*
X138292113Y-71169942D01*
X138350987Y-71027809D01*
X138381000Y-70876922D01*
X138381000Y-70723078D01*
X138350987Y-70572191D01*
X138292113Y-70430058D01*
X138206642Y-70302141D01*
X138097859Y-70193358D01*
X137969942Y-70107887D01*
X137827809Y-70049013D01*
X137676922Y-70019000D01*
X137523078Y-70019000D01*
X137372191Y-70049013D01*
X137230058Y-70107887D01*
X137201453Y-70127000D01*
X136527000Y-70127000D01*
X136527000Y-70147000D01*
X136273000Y-70147000D01*
X136273000Y-70127000D01*
X135523750Y-70127000D01*
X135365000Y-70285750D01*
X135364846Y-70294000D01*
X133859592Y-70294000D01*
X132896590Y-69330999D01*
X135375156Y-69330999D01*
X135400002Y-69333446D01*
X135402183Y-69333231D01*
X135374188Y-69425518D01*
X135361928Y-69550000D01*
X135365000Y-69714250D01*
X135523750Y-69873000D01*
X136273000Y-69873000D01*
X136273000Y-69073750D01*
X136527000Y-69073750D01*
X136527000Y-69873000D01*
X137276250Y-69873000D01*
X137435000Y-69714250D01*
X137438072Y-69550000D01*
X137425812Y-69425518D01*
X137389502Y-69305820D01*
X137330537Y-69195506D01*
X137251185Y-69098815D01*
X137154494Y-69019463D01*
X137044180Y-68960498D01*
X136924482Y-68924188D01*
X136800000Y-68911928D01*
X136685750Y-68915000D01*
X136527000Y-69073750D01*
X136273000Y-69073750D01*
X136114250Y-68915000D01*
X136027914Y-68912679D01*
X136240220Y-68700373D01*
X136259527Y-68684528D01*
X136322759Y-68607480D01*
X136369745Y-68519576D01*
X136388805Y-68456741D01*
X136400000Y-68457844D01*
X136900000Y-68457844D01*
X136974689Y-68450488D01*
X137025000Y-68435226D01*
X137075311Y-68450488D01*
M02*
