G04 #@! TF.GenerationSoftware,KiCad,Pcbnew,(5.1.0)-1*
G04 #@! TF.CreationDate,2019-05-15T12:27:27+02:00*
G04 #@! TF.ProjectId,expansion,65787061-6e73-4696-9f6e-2e6b69636164,rev?*
G04 #@! TF.SameCoordinates,Original*
G04 #@! TF.FileFunction,Soldermask,Bot*
G04 #@! TF.FilePolarity,Negative*
%FSLAX46Y46*%
G04 Gerber Fmt 4.6, Leading zero omitted, Abs format (unit mm)*
G04 Created by KiCad (PCBNEW (5.1.0)-1) date 2019-05-15 12:27:27*
%MOMM*%
%LPD*%
G04 APERTURE LIST*
%ADD10C,0.100000*%
G04 APERTURE END LIST*
D10*
G36*
X140252490Y-60046950D02*
G01*
X140722226Y-60241521D01*
X141189913Y-60435243D01*
X142033571Y-60998957D01*
X142751043Y-61716429D01*
X143314757Y-62560087D01*
X143314757Y-62560088D01*
X143703050Y-63497510D01*
X143901000Y-64492669D01*
X143901000Y-65507331D01*
X143703050Y-66502490D01*
X143475593Y-67051620D01*
X143314757Y-67439913D01*
X142751043Y-68283571D01*
X142033571Y-69001043D01*
X141189913Y-69564757D01*
X140801620Y-69725593D01*
X140252490Y-69953050D01*
X139257331Y-70151000D01*
X138242669Y-70151000D01*
X137247510Y-69953050D01*
X136698380Y-69725593D01*
X136310087Y-69564757D01*
X135466429Y-69001043D01*
X134748957Y-68283571D01*
X134185243Y-67439913D01*
X134024407Y-67051620D01*
X133796950Y-66502490D01*
X133599000Y-65507331D01*
X133599000Y-64492669D01*
X133796950Y-63497510D01*
X134185243Y-62560088D01*
X134185243Y-62560087D01*
X134748957Y-61716429D01*
X135466429Y-60998957D01*
X136310087Y-60435243D01*
X136777774Y-60241521D01*
X137247510Y-60046950D01*
X138242669Y-59849000D01*
X139257331Y-59849000D01*
X140252490Y-60046950D01*
X140252490Y-60046950D01*
G37*
G36*
X147651000Y-67601000D02*
G01*
X145049000Y-67601000D01*
X145049000Y-62399000D01*
X147651000Y-62399000D01*
X147651000Y-67601000D01*
X147651000Y-67601000D01*
G37*
G36*
X132351000Y-67601000D02*
G01*
X129749000Y-67601000D01*
X129749000Y-62399000D01*
X132351000Y-62399000D01*
X132351000Y-67601000D01*
X132351000Y-67601000D01*
G37*
G36*
X146508015Y-55376973D02*
G01*
X146611879Y-55408479D01*
X146639055Y-55423005D01*
X146707600Y-55459643D01*
X146791501Y-55528499D01*
X146860357Y-55612400D01*
X146896995Y-55680945D01*
X146911521Y-55708121D01*
X146943027Y-55811985D01*
X146953666Y-55920000D01*
X146943027Y-56028015D01*
X146911521Y-56131879D01*
X146911519Y-56131882D01*
X146860357Y-56227600D01*
X146791501Y-56311501D01*
X146707600Y-56380357D01*
X146639055Y-56416995D01*
X146611879Y-56431521D01*
X146599131Y-56435388D01*
X146576504Y-56444760D01*
X146556130Y-56458374D01*
X146538803Y-56475701D01*
X146525189Y-56496075D01*
X146515812Y-56518714D01*
X146511031Y-56542747D01*
X146511031Y-56567251D01*
X146515811Y-56591285D01*
X146525188Y-56613924D01*
X146538802Y-56634298D01*
X146556129Y-56651625D01*
X146576503Y-56665239D01*
X146599131Y-56674612D01*
X146611879Y-56678479D01*
X146639055Y-56693005D01*
X146707600Y-56729643D01*
X146791501Y-56798499D01*
X146860357Y-56882400D01*
X146896995Y-56950945D01*
X146911521Y-56978121D01*
X146943027Y-57081985D01*
X146953666Y-57190000D01*
X146943027Y-57298015D01*
X146911521Y-57401879D01*
X146911519Y-57401882D01*
X146860357Y-57497600D01*
X146791501Y-57581501D01*
X146707600Y-57650357D01*
X146639055Y-57686995D01*
X146611879Y-57701521D01*
X146599131Y-57705388D01*
X146576504Y-57714760D01*
X146556130Y-57728374D01*
X146538803Y-57745701D01*
X146525189Y-57766075D01*
X146515812Y-57788714D01*
X146511031Y-57812747D01*
X146511031Y-57837251D01*
X146515811Y-57861285D01*
X146525188Y-57883924D01*
X146538802Y-57904298D01*
X146556129Y-57921625D01*
X146576503Y-57935239D01*
X146599131Y-57944612D01*
X146611879Y-57948479D01*
X146639055Y-57963005D01*
X146707600Y-57999643D01*
X146791501Y-58068499D01*
X146860357Y-58152400D01*
X146896995Y-58220945D01*
X146911521Y-58248121D01*
X146943027Y-58351985D01*
X146953666Y-58460000D01*
X146943027Y-58568015D01*
X146911521Y-58671879D01*
X146911519Y-58671882D01*
X146860357Y-58767600D01*
X146791501Y-58851501D01*
X146707600Y-58920357D01*
X146639055Y-58956995D01*
X146611879Y-58971521D01*
X146599131Y-58975388D01*
X146576504Y-58984760D01*
X146556130Y-58998374D01*
X146538803Y-59015701D01*
X146525189Y-59036075D01*
X146515812Y-59058714D01*
X146511031Y-59082747D01*
X146511031Y-59107251D01*
X146515811Y-59131285D01*
X146525188Y-59153924D01*
X146538802Y-59174298D01*
X146556129Y-59191625D01*
X146576503Y-59205239D01*
X146599131Y-59214612D01*
X146611879Y-59218479D01*
X146639055Y-59233005D01*
X146707600Y-59269643D01*
X146791501Y-59338499D01*
X146860357Y-59422400D01*
X146896995Y-59490945D01*
X146911521Y-59518121D01*
X146943027Y-59621985D01*
X146953666Y-59730000D01*
X146943027Y-59838015D01*
X146911521Y-59941879D01*
X146911519Y-59941882D01*
X146860357Y-60037600D01*
X146791501Y-60121501D01*
X146707600Y-60190356D01*
X146663807Y-60213764D01*
X146643437Y-60227375D01*
X146626110Y-60244702D01*
X146612496Y-60265076D01*
X146603119Y-60287715D01*
X146598338Y-60311748D01*
X146598338Y-60336252D01*
X146603118Y-60360286D01*
X146612495Y-60382924D01*
X146626109Y-60403299D01*
X146643436Y-60420626D01*
X146663810Y-60434240D01*
X146686449Y-60443617D01*
X146710482Y-60448398D01*
X146722735Y-60449000D01*
X146951000Y-60449000D01*
X146951000Y-61551000D01*
X145849000Y-61551000D01*
X145849000Y-60449000D01*
X146077265Y-60449000D01*
X146101651Y-60446598D01*
X146125100Y-60439485D01*
X146146711Y-60427934D01*
X146165653Y-60412389D01*
X146181198Y-60393447D01*
X146192749Y-60371836D01*
X146199862Y-60348387D01*
X146202264Y-60324001D01*
X146199862Y-60299615D01*
X146192749Y-60276166D01*
X146181198Y-60254555D01*
X146165653Y-60235613D01*
X146146711Y-60220068D01*
X146136198Y-60213767D01*
X146092400Y-60190356D01*
X146008499Y-60121501D01*
X145939643Y-60037600D01*
X145888481Y-59941882D01*
X145888479Y-59941879D01*
X145856973Y-59838015D01*
X145846334Y-59730000D01*
X145856973Y-59621985D01*
X145888479Y-59518121D01*
X145903005Y-59490945D01*
X145939643Y-59422400D01*
X146008499Y-59338499D01*
X146092400Y-59269643D01*
X146160945Y-59233005D01*
X146188121Y-59218479D01*
X146200869Y-59214612D01*
X146223496Y-59205240D01*
X146243870Y-59191626D01*
X146261197Y-59174299D01*
X146274811Y-59153925D01*
X146284188Y-59131286D01*
X146288969Y-59107253D01*
X146288969Y-59082749D01*
X146284189Y-59058715D01*
X146274812Y-59036076D01*
X146261198Y-59015702D01*
X146243871Y-58998375D01*
X146223497Y-58984761D01*
X146200869Y-58975388D01*
X146188121Y-58971521D01*
X146160945Y-58956995D01*
X146092400Y-58920357D01*
X146008499Y-58851501D01*
X145939643Y-58767600D01*
X145888481Y-58671882D01*
X145888479Y-58671879D01*
X145856973Y-58568015D01*
X145846334Y-58460000D01*
X145856973Y-58351985D01*
X145888479Y-58248121D01*
X145903005Y-58220945D01*
X145939643Y-58152400D01*
X146008499Y-58068499D01*
X146092400Y-57999643D01*
X146160945Y-57963005D01*
X146188121Y-57948479D01*
X146200869Y-57944612D01*
X146223496Y-57935240D01*
X146243870Y-57921626D01*
X146261197Y-57904299D01*
X146274811Y-57883925D01*
X146284188Y-57861286D01*
X146288969Y-57837253D01*
X146288969Y-57812749D01*
X146284189Y-57788715D01*
X146274812Y-57766076D01*
X146261198Y-57745702D01*
X146243871Y-57728375D01*
X146223497Y-57714761D01*
X146200869Y-57705388D01*
X146188121Y-57701521D01*
X146160945Y-57686995D01*
X146092400Y-57650357D01*
X146008499Y-57581501D01*
X145939643Y-57497600D01*
X145888481Y-57401882D01*
X145888479Y-57401879D01*
X145856973Y-57298015D01*
X145846334Y-57190000D01*
X145856973Y-57081985D01*
X145888479Y-56978121D01*
X145903005Y-56950945D01*
X145939643Y-56882400D01*
X146008499Y-56798499D01*
X146092400Y-56729643D01*
X146160945Y-56693005D01*
X146188121Y-56678479D01*
X146200869Y-56674612D01*
X146223496Y-56665240D01*
X146243870Y-56651626D01*
X146261197Y-56634299D01*
X146274811Y-56613925D01*
X146284188Y-56591286D01*
X146288969Y-56567253D01*
X146288969Y-56542749D01*
X146284189Y-56518715D01*
X146274812Y-56496076D01*
X146261198Y-56475702D01*
X146243871Y-56458375D01*
X146223497Y-56444761D01*
X146200869Y-56435388D01*
X146188121Y-56431521D01*
X146160945Y-56416995D01*
X146092400Y-56380357D01*
X146008499Y-56311501D01*
X145939643Y-56227600D01*
X145888481Y-56131882D01*
X145888479Y-56131879D01*
X145856973Y-56028015D01*
X145846334Y-55920000D01*
X145856973Y-55811985D01*
X145888479Y-55708121D01*
X145903005Y-55680945D01*
X145939643Y-55612400D01*
X146008499Y-55528499D01*
X146092400Y-55459643D01*
X146160945Y-55423005D01*
X146188121Y-55408479D01*
X146291985Y-55376973D01*
X146372933Y-55369000D01*
X146427067Y-55369000D01*
X146508015Y-55376973D01*
X146508015Y-55376973D01*
G37*
M02*
