M48
; DRILL file {KiCad (5.1.0)-1} date 02/05/2019 11:49:31
; FORMAT={-:-/ absolute / metric / decimal}
; #@! TF.CreationDate,2019-05-02T11:49:31+02:00
; #@! TF.GenerationSoftware,Kicad,Pcbnew,(5.1.0)-1
; #@! TF.FileFunction,Plated,1,2,PTH
FMAT,2
METRIC
T1C0.400
T2C1.000
%
G90
G05
T1
X131.5Y-91.25
X135.0Y-70.6
X136.3Y-59.4
X137.4Y-94.8
X140.3Y-94.8
X143.0Y-94.8
X143.75Y-69.75
T2
X126.25Y-60.76
X126.25Y-63.3
X126.25Y-65.84
X126.25Y-68.38
X126.25Y-70.92
X126.25Y-73.46
X126.25Y-76.0
X126.25Y-78.54
X126.25Y-81.08
X126.25Y-83.62
X126.25Y-86.16
X126.25Y-88.7
X126.25Y-91.24
X126.25Y-93.78
X126.25Y-96.32
X126.25Y-98.86
X126.25Y-101.4
X126.25Y-103.94
X138.0Y-103.75
X140.54Y-103.75
X151.75Y-55.75
X151.75Y-58.29
X151.75Y-60.83
X151.75Y-63.37
X151.75Y-65.91
X151.75Y-68.45
X151.75Y-70.99
X151.75Y-73.53
X151.75Y-76.07
X151.75Y-78.61
X151.75Y-81.15
X151.75Y-83.69
X151.75Y-86.23
X151.75Y-88.77
X151.75Y-91.31
X151.75Y-93.85
X151.75Y-96.39
X151.75Y-98.93
X151.75Y-101.47
X151.75Y-104.01
T0
M30
