G04 #@! TF.GenerationSoftware,KiCad,Pcbnew,(5.1.0)-1*
G04 #@! TF.CreationDate,2019-05-02T11:49:30+02:00*
G04 #@! TF.ProjectId,expansion,65787061-6e73-4696-9f6e-2e6b69636164,rev?*
G04 #@! TF.SameCoordinates,Original*
G04 #@! TF.FileFunction,Copper,L2,Bot*
G04 #@! TF.FilePolarity,Positive*
%FSLAX46Y46*%
G04 Gerber Fmt 4.6, Leading zero omitted, Abs format (unit mm)*
G04 Created by KiCad (PCBNEW (5.1.0)-1) date 2019-05-02 11:49:30*
%MOMM*%
%LPD*%
G04 APERTURE LIST*
%ADD10R,2.500000X5.100000*%
%ADD11C,10.200000*%
%ADD12R,1.700000X1.700000*%
%ADD13O,1.700000X1.700000*%
%ADD14C,0.500000*%
%ADD15C,0.100000*%
%ADD16C,0.800000*%
%ADD17C,0.250000*%
%ADD18C,0.254000*%
G04 APERTURE END LIST*
D10*
X131400000Y-65000000D03*
X146700000Y-65000000D03*
D11*
X139100000Y-65000000D03*
D12*
X138000000Y-103750000D03*
D13*
X140540000Y-103750000D03*
D12*
X151750000Y-55750000D03*
D13*
X151750000Y-58290000D03*
X151750000Y-60830000D03*
X151750000Y-63370000D03*
X151750000Y-65910000D03*
X151750000Y-68450000D03*
X151750000Y-70990000D03*
X151750000Y-73530000D03*
X151750000Y-76070000D03*
X151750000Y-78610000D03*
X151750000Y-81150000D03*
X151750000Y-83690000D03*
X151750000Y-86230000D03*
X151750000Y-88770000D03*
X151750000Y-91310000D03*
X151750000Y-93850000D03*
X151750000Y-96390000D03*
X151750000Y-98930000D03*
X151750000Y-101470000D03*
X151750000Y-104010000D03*
D12*
X126250000Y-103940000D03*
D13*
X126250000Y-101400000D03*
X126250000Y-98860000D03*
X126250000Y-96320000D03*
X126250000Y-93780000D03*
X126250000Y-91240000D03*
X126250000Y-88700000D03*
X126250000Y-86160000D03*
X126250000Y-83620000D03*
X126250000Y-81080000D03*
X126250000Y-78540000D03*
X126250000Y-76000000D03*
X126250000Y-73460000D03*
X126250000Y-70920000D03*
X126250000Y-68380000D03*
X126250000Y-65840000D03*
X126250000Y-63300000D03*
X126250000Y-60760000D03*
D14*
X131500000Y-87600000D03*
D15*
G36*
X130750000Y-88100000D02*
G01*
X130750000Y-87600000D01*
X130750602Y-87600000D01*
X130750602Y-87575466D01*
X130755412Y-87526635D01*
X130764984Y-87478510D01*
X130779228Y-87431555D01*
X130798005Y-87386222D01*
X130821136Y-87342949D01*
X130848396Y-87302150D01*
X130879524Y-87264221D01*
X130914221Y-87229524D01*
X130952150Y-87198396D01*
X130992949Y-87171136D01*
X131036222Y-87148005D01*
X131081555Y-87129228D01*
X131128510Y-87114984D01*
X131176635Y-87105412D01*
X131225466Y-87100602D01*
X131250000Y-87100602D01*
X131250000Y-87100000D01*
X131750000Y-87100000D01*
X131750000Y-87100602D01*
X131774534Y-87100602D01*
X131823365Y-87105412D01*
X131871490Y-87114984D01*
X131918445Y-87129228D01*
X131963778Y-87148005D01*
X132007051Y-87171136D01*
X132047850Y-87198396D01*
X132085779Y-87229524D01*
X132120476Y-87264221D01*
X132151604Y-87302150D01*
X132178864Y-87342949D01*
X132201995Y-87386222D01*
X132220772Y-87431555D01*
X132235016Y-87478510D01*
X132244588Y-87526635D01*
X132249398Y-87575466D01*
X132249398Y-87600000D01*
X132250000Y-87600000D01*
X132250000Y-88100000D01*
X130750000Y-88100000D01*
X130750000Y-88100000D01*
G37*
D14*
X131500000Y-88900000D03*
D15*
G36*
X132249398Y-88900000D02*
G01*
X132249398Y-88924534D01*
X132244588Y-88973365D01*
X132235016Y-89021490D01*
X132220772Y-89068445D01*
X132201995Y-89113778D01*
X132178864Y-89157051D01*
X132151604Y-89197850D01*
X132120476Y-89235779D01*
X132085779Y-89270476D01*
X132047850Y-89301604D01*
X132007051Y-89328864D01*
X131963778Y-89351995D01*
X131918445Y-89370772D01*
X131871490Y-89385016D01*
X131823365Y-89394588D01*
X131774534Y-89399398D01*
X131750000Y-89399398D01*
X131750000Y-89400000D01*
X131250000Y-89400000D01*
X131250000Y-89399398D01*
X131225466Y-89399398D01*
X131176635Y-89394588D01*
X131128510Y-89385016D01*
X131081555Y-89370772D01*
X131036222Y-89351995D01*
X130992949Y-89328864D01*
X130952150Y-89301604D01*
X130914221Y-89270476D01*
X130879524Y-89235779D01*
X130848396Y-89197850D01*
X130821136Y-89157051D01*
X130798005Y-89113778D01*
X130779228Y-89068445D01*
X130764984Y-89021490D01*
X130755412Y-88973365D01*
X130750602Y-88924534D01*
X130750602Y-88900000D01*
X130750000Y-88900000D01*
X130750000Y-88400000D01*
X132250000Y-88400000D01*
X132250000Y-88900000D01*
X132249398Y-88900000D01*
X132249398Y-88900000D01*
G37*
D16*
X131500000Y-91250000D03*
X137400000Y-94800000D03*
X143000000Y-94800000D03*
X140300000Y-94800000D03*
X135000000Y-70600000D03*
X143750000Y-69750000D03*
X136300000Y-59400000D03*
D17*
X131550000Y-91200000D02*
X131500000Y-91250000D01*
X131500000Y-88900000D02*
X131500000Y-91250000D01*
X138200000Y-103550000D02*
X138000000Y-103750000D01*
X137400000Y-94800000D02*
X140300000Y-94800000D01*
X140300000Y-94800000D02*
X143000000Y-94800000D01*
X136750000Y-91250000D02*
X140300000Y-94800000D01*
X131500000Y-91250000D02*
X136750000Y-91250000D01*
X140300000Y-99600000D02*
X138200000Y-101700000D01*
X140300000Y-94800000D02*
X140300000Y-99600000D01*
X138200000Y-101700000D02*
X138200000Y-103550000D01*
X143750000Y-68500000D02*
X143750000Y-69500000D01*
X143750000Y-69500000D02*
X143750000Y-69750000D01*
X149000000Y-55750000D02*
X151750000Y-55750000D01*
X150440000Y-93850000D02*
X151750000Y-93850000D01*
X140540000Y-103750000D02*
X150440000Y-93850000D01*
X131400000Y-87500000D02*
X131500000Y-87600000D01*
X146700000Y-65000000D02*
X146700000Y-68800000D01*
X143300000Y-72200000D02*
X131400000Y-72200000D01*
X146700000Y-68800000D02*
X143300000Y-72200000D01*
X131400000Y-65000000D02*
X131400000Y-72200000D01*
X131400000Y-72200000D02*
X131400000Y-87500000D01*
D18*
G36*
X153040001Y-54439637D02*
G01*
X152954494Y-54369463D01*
X152844180Y-54310498D01*
X152724482Y-54274188D01*
X152600000Y-54261928D01*
X152035750Y-54265000D01*
X151877000Y-54423750D01*
X151877000Y-55623000D01*
X151897000Y-55623000D01*
X151897000Y-55877000D01*
X151877000Y-55877000D01*
X151877000Y-55897000D01*
X151623000Y-55897000D01*
X151623000Y-55877000D01*
X150423750Y-55877000D01*
X150265000Y-56035750D01*
X150261928Y-56600000D01*
X150274188Y-56724482D01*
X150310498Y-56844180D01*
X150369463Y-56954494D01*
X150448815Y-57051185D01*
X150545506Y-57130537D01*
X150655820Y-57189502D01*
X150724687Y-57210393D01*
X150694866Y-57234866D01*
X150509294Y-57460986D01*
X150371401Y-57718966D01*
X150286487Y-57998889D01*
X150257815Y-58290000D01*
X150286487Y-58581111D01*
X150371401Y-58861034D01*
X150509294Y-59119014D01*
X150694866Y-59345134D01*
X150920986Y-59530706D01*
X150975791Y-59560000D01*
X150920986Y-59589294D01*
X150694866Y-59774866D01*
X150509294Y-60000986D01*
X150371401Y-60258966D01*
X150286487Y-60538889D01*
X150257815Y-60830000D01*
X150286487Y-61121111D01*
X150371401Y-61401034D01*
X150509294Y-61659014D01*
X150694866Y-61885134D01*
X150920986Y-62070706D01*
X150975791Y-62100000D01*
X150920986Y-62129294D01*
X150694866Y-62314866D01*
X150509294Y-62540986D01*
X150371401Y-62798966D01*
X150286487Y-63078889D01*
X150257815Y-63370000D01*
X150286487Y-63661111D01*
X150371401Y-63941034D01*
X150509294Y-64199014D01*
X150694866Y-64425134D01*
X150920986Y-64610706D01*
X150975791Y-64640000D01*
X150920986Y-64669294D01*
X150694866Y-64854866D01*
X150509294Y-65080986D01*
X150371401Y-65338966D01*
X150286487Y-65618889D01*
X150257815Y-65910000D01*
X150286487Y-66201111D01*
X150371401Y-66481034D01*
X150509294Y-66739014D01*
X150694866Y-66965134D01*
X150920986Y-67150706D01*
X150975791Y-67180000D01*
X150920986Y-67209294D01*
X150694866Y-67394866D01*
X150509294Y-67620986D01*
X150371401Y-67878966D01*
X150286487Y-68158889D01*
X150257815Y-68450000D01*
X150286487Y-68741111D01*
X150371401Y-69021034D01*
X150509294Y-69279014D01*
X150694866Y-69505134D01*
X150920986Y-69690706D01*
X150975791Y-69720000D01*
X150920986Y-69749294D01*
X150694866Y-69934866D01*
X150509294Y-70160986D01*
X150371401Y-70418966D01*
X150286487Y-70698889D01*
X150257815Y-70990000D01*
X150286487Y-71281111D01*
X150371401Y-71561034D01*
X150509294Y-71819014D01*
X150694866Y-72045134D01*
X150920986Y-72230706D01*
X150975791Y-72260000D01*
X150920986Y-72289294D01*
X150694866Y-72474866D01*
X150509294Y-72700986D01*
X150371401Y-72958966D01*
X150286487Y-73238889D01*
X150257815Y-73530000D01*
X150286487Y-73821111D01*
X150371401Y-74101034D01*
X150509294Y-74359014D01*
X150694866Y-74585134D01*
X150920986Y-74770706D01*
X150975791Y-74800000D01*
X150920986Y-74829294D01*
X150694866Y-75014866D01*
X150509294Y-75240986D01*
X150371401Y-75498966D01*
X150286487Y-75778889D01*
X150257815Y-76070000D01*
X150286487Y-76361111D01*
X150371401Y-76641034D01*
X150509294Y-76899014D01*
X150694866Y-77125134D01*
X150920986Y-77310706D01*
X150975791Y-77340000D01*
X150920986Y-77369294D01*
X150694866Y-77554866D01*
X150509294Y-77780986D01*
X150371401Y-78038966D01*
X150286487Y-78318889D01*
X150257815Y-78610000D01*
X150286487Y-78901111D01*
X150371401Y-79181034D01*
X150509294Y-79439014D01*
X150694866Y-79665134D01*
X150920986Y-79850706D01*
X150975791Y-79880000D01*
X150920986Y-79909294D01*
X150694866Y-80094866D01*
X150509294Y-80320986D01*
X150371401Y-80578966D01*
X150286487Y-80858889D01*
X150257815Y-81150000D01*
X150286487Y-81441111D01*
X150371401Y-81721034D01*
X150509294Y-81979014D01*
X150694866Y-82205134D01*
X150920986Y-82390706D01*
X150975791Y-82420000D01*
X150920986Y-82449294D01*
X150694866Y-82634866D01*
X150509294Y-82860986D01*
X150371401Y-83118966D01*
X150286487Y-83398889D01*
X150257815Y-83690000D01*
X150286487Y-83981111D01*
X150371401Y-84261034D01*
X150509294Y-84519014D01*
X150694866Y-84745134D01*
X150920986Y-84930706D01*
X150975791Y-84960000D01*
X150920986Y-84989294D01*
X150694866Y-85174866D01*
X150509294Y-85400986D01*
X150371401Y-85658966D01*
X150286487Y-85938889D01*
X150257815Y-86230000D01*
X150286487Y-86521111D01*
X150371401Y-86801034D01*
X150509294Y-87059014D01*
X150694866Y-87285134D01*
X150920986Y-87470706D01*
X150975791Y-87500000D01*
X150920986Y-87529294D01*
X150694866Y-87714866D01*
X150509294Y-87940986D01*
X150371401Y-88198966D01*
X150286487Y-88478889D01*
X150257815Y-88770000D01*
X150286487Y-89061111D01*
X150371401Y-89341034D01*
X150509294Y-89599014D01*
X150694866Y-89825134D01*
X150920986Y-90010706D01*
X150975791Y-90040000D01*
X150920986Y-90069294D01*
X150694866Y-90254866D01*
X150509294Y-90480986D01*
X150371401Y-90738966D01*
X150286487Y-91018889D01*
X150257815Y-91310000D01*
X150286487Y-91601111D01*
X150371401Y-91881034D01*
X150509294Y-92139014D01*
X150694866Y-92365134D01*
X150920986Y-92550706D01*
X150985523Y-92585201D01*
X150868645Y-92654822D01*
X150652412Y-92849731D01*
X150478359Y-93083080D01*
X150353175Y-93345901D01*
X150308524Y-93493110D01*
X150429845Y-93723000D01*
X151623000Y-93723000D01*
X151623000Y-93703000D01*
X151877000Y-93703000D01*
X151877000Y-93723000D01*
X151897000Y-93723000D01*
X151897000Y-93977000D01*
X151877000Y-93977000D01*
X151877000Y-93997000D01*
X151623000Y-93997000D01*
X151623000Y-93977000D01*
X150429845Y-93977000D01*
X150308524Y-94206890D01*
X150353175Y-94354099D01*
X150478359Y-94616920D01*
X150652412Y-94850269D01*
X150868645Y-95045178D01*
X150985523Y-95114799D01*
X150920986Y-95149294D01*
X150694866Y-95334866D01*
X150509294Y-95560986D01*
X150371401Y-95818966D01*
X150286487Y-96098889D01*
X150257815Y-96390000D01*
X150286487Y-96681111D01*
X150371401Y-96961034D01*
X150509294Y-97219014D01*
X150694866Y-97445134D01*
X150920986Y-97630706D01*
X150975791Y-97660000D01*
X150920986Y-97689294D01*
X150694866Y-97874866D01*
X150509294Y-98100986D01*
X150371401Y-98358966D01*
X150286487Y-98638889D01*
X150257815Y-98930000D01*
X150286487Y-99221111D01*
X150371401Y-99501034D01*
X150509294Y-99759014D01*
X150694866Y-99985134D01*
X150920986Y-100170706D01*
X150975791Y-100200000D01*
X150920986Y-100229294D01*
X150694866Y-100414866D01*
X150509294Y-100640986D01*
X150371401Y-100898966D01*
X150286487Y-101178889D01*
X150257815Y-101470000D01*
X150286487Y-101761111D01*
X150371401Y-102041034D01*
X150509294Y-102299014D01*
X150694866Y-102525134D01*
X150920986Y-102710706D01*
X150975791Y-102740000D01*
X150920986Y-102769294D01*
X150694866Y-102954866D01*
X150509294Y-103180986D01*
X150371401Y-103438966D01*
X150286487Y-103718889D01*
X150257815Y-104010000D01*
X150286487Y-104301111D01*
X150371401Y-104581034D01*
X150509294Y-104839014D01*
X150694866Y-105065134D01*
X150920986Y-105250706D01*
X150994500Y-105290000D01*
X127491704Y-105290000D01*
X127551185Y-105241185D01*
X127630537Y-105144494D01*
X127689502Y-105034180D01*
X127725812Y-104914482D01*
X127738072Y-104790000D01*
X127738072Y-103090000D01*
X127725812Y-102965518D01*
X127689502Y-102845820D01*
X127630537Y-102735506D01*
X127551185Y-102638815D01*
X127454494Y-102559463D01*
X127344180Y-102500498D01*
X127275313Y-102479607D01*
X127305134Y-102455134D01*
X127490706Y-102229014D01*
X127628599Y-101971034D01*
X127713513Y-101691111D01*
X127742185Y-101400000D01*
X127713513Y-101108889D01*
X127628599Y-100828966D01*
X127490706Y-100570986D01*
X127305134Y-100344866D01*
X127079014Y-100159294D01*
X127024209Y-100130000D01*
X127079014Y-100100706D01*
X127305134Y-99915134D01*
X127490706Y-99689014D01*
X127628599Y-99431034D01*
X127713513Y-99151111D01*
X127742185Y-98860000D01*
X127713513Y-98568889D01*
X127628599Y-98288966D01*
X127490706Y-98030986D01*
X127305134Y-97804866D01*
X127079014Y-97619294D01*
X127024209Y-97590000D01*
X127079014Y-97560706D01*
X127305134Y-97375134D01*
X127490706Y-97149014D01*
X127628599Y-96891034D01*
X127713513Y-96611111D01*
X127742185Y-96320000D01*
X127713513Y-96028889D01*
X127628599Y-95748966D01*
X127490706Y-95490986D01*
X127305134Y-95264866D01*
X127079014Y-95079294D01*
X127024209Y-95050000D01*
X127079014Y-95020706D01*
X127305134Y-94835134D01*
X127490706Y-94609014D01*
X127628599Y-94351034D01*
X127713513Y-94071111D01*
X127742185Y-93780000D01*
X127713513Y-93488889D01*
X127628599Y-93208966D01*
X127490706Y-92950986D01*
X127305134Y-92724866D01*
X127079014Y-92539294D01*
X127024209Y-92510000D01*
X127079014Y-92480706D01*
X127305134Y-92295134D01*
X127490706Y-92069014D01*
X127628599Y-91811034D01*
X127713513Y-91531111D01*
X127742185Y-91240000D01*
X127713513Y-90948889D01*
X127628599Y-90668966D01*
X127490706Y-90410986D01*
X127305134Y-90184866D01*
X127079014Y-89999294D01*
X127024209Y-89970000D01*
X127079014Y-89940706D01*
X127305134Y-89755134D01*
X127490706Y-89529014D01*
X127628599Y-89271034D01*
X127713513Y-88991111D01*
X127742185Y-88700000D01*
X127713513Y-88408889D01*
X127628599Y-88128966D01*
X127490706Y-87870986D01*
X127305134Y-87644866D01*
X127079014Y-87459294D01*
X127024209Y-87430000D01*
X127079014Y-87400706D01*
X127305134Y-87215134D01*
X127490706Y-86989014D01*
X127628599Y-86731034D01*
X127713513Y-86451111D01*
X127742185Y-86160000D01*
X127713513Y-85868889D01*
X127628599Y-85588966D01*
X127490706Y-85330986D01*
X127305134Y-85104866D01*
X127079014Y-84919294D01*
X127024209Y-84890000D01*
X127079014Y-84860706D01*
X127305134Y-84675134D01*
X127490706Y-84449014D01*
X127628599Y-84191034D01*
X127713513Y-83911111D01*
X127742185Y-83620000D01*
X127713513Y-83328889D01*
X127628599Y-83048966D01*
X127490706Y-82790986D01*
X127305134Y-82564866D01*
X127079014Y-82379294D01*
X127024209Y-82350000D01*
X127079014Y-82320706D01*
X127305134Y-82135134D01*
X127490706Y-81909014D01*
X127628599Y-81651034D01*
X127713513Y-81371111D01*
X127742185Y-81080000D01*
X127713513Y-80788889D01*
X127628599Y-80508966D01*
X127490706Y-80250986D01*
X127305134Y-80024866D01*
X127079014Y-79839294D01*
X127024209Y-79810000D01*
X127079014Y-79780706D01*
X127305134Y-79595134D01*
X127490706Y-79369014D01*
X127628599Y-79111034D01*
X127713513Y-78831111D01*
X127742185Y-78540000D01*
X127713513Y-78248889D01*
X127628599Y-77968966D01*
X127490706Y-77710986D01*
X127305134Y-77484866D01*
X127079014Y-77299294D01*
X127024209Y-77270000D01*
X127079014Y-77240706D01*
X127305134Y-77055134D01*
X127490706Y-76829014D01*
X127628599Y-76571034D01*
X127713513Y-76291111D01*
X127742185Y-76000000D01*
X127713513Y-75708889D01*
X127628599Y-75428966D01*
X127490706Y-75170986D01*
X127305134Y-74944866D01*
X127079014Y-74759294D01*
X127024209Y-74730000D01*
X127079014Y-74700706D01*
X127305134Y-74515134D01*
X127490706Y-74289014D01*
X127628599Y-74031034D01*
X127713513Y-73751111D01*
X127742185Y-73460000D01*
X127713513Y-73168889D01*
X127628599Y-72888966D01*
X127490706Y-72630986D01*
X127305134Y-72404866D01*
X127079014Y-72219294D01*
X127024209Y-72190000D01*
X127079014Y-72160706D01*
X127305134Y-71975134D01*
X127490706Y-71749014D01*
X127628599Y-71491034D01*
X127713513Y-71211111D01*
X127742185Y-70920000D01*
X127713513Y-70628889D01*
X127628599Y-70348966D01*
X127490706Y-70090986D01*
X127305134Y-69864866D01*
X127079014Y-69679294D01*
X127024209Y-69650000D01*
X127079014Y-69620706D01*
X127305134Y-69435134D01*
X127490706Y-69209014D01*
X127628599Y-68951034D01*
X127713513Y-68671111D01*
X127742185Y-68380000D01*
X127713513Y-68088889D01*
X127628599Y-67808966D01*
X127490706Y-67550986D01*
X127305134Y-67324866D01*
X127079014Y-67139294D01*
X127024209Y-67110000D01*
X127079014Y-67080706D01*
X127305134Y-66895134D01*
X127490706Y-66669014D01*
X127628599Y-66411034D01*
X127713513Y-66131111D01*
X127742185Y-65840000D01*
X127713513Y-65548889D01*
X127628599Y-65268966D01*
X127490706Y-65010986D01*
X127305134Y-64784866D01*
X127079014Y-64599294D01*
X127024209Y-64570000D01*
X127079014Y-64540706D01*
X127305134Y-64355134D01*
X127490706Y-64129014D01*
X127628599Y-63871034D01*
X127713513Y-63591111D01*
X127742185Y-63300000D01*
X127713513Y-63008889D01*
X127628599Y-62728966D01*
X127490706Y-62470986D01*
X127473484Y-62450000D01*
X129511928Y-62450000D01*
X129511928Y-67550000D01*
X129524188Y-67674482D01*
X129560498Y-67794180D01*
X129619463Y-67904494D01*
X129698815Y-68001185D01*
X129795506Y-68080537D01*
X129905820Y-68139502D01*
X130025518Y-68175812D01*
X130150000Y-68188072D01*
X130640000Y-68188072D01*
X130640001Y-72162657D01*
X130636323Y-72200000D01*
X130640000Y-72237333D01*
X130640001Y-86641737D01*
X130578309Y-86682958D01*
X130481618Y-86762310D01*
X130412310Y-86831618D01*
X130332958Y-86928309D01*
X130278502Y-87009808D01*
X130219536Y-87120125D01*
X130182027Y-87210681D01*
X130145718Y-87330377D01*
X130126596Y-87426510D01*
X130114336Y-87550991D01*
X130114336Y-87575550D01*
X130111928Y-87600000D01*
X130111928Y-88100000D01*
X130124188Y-88224482D01*
X130131929Y-88250000D01*
X130124188Y-88275518D01*
X130111928Y-88400000D01*
X130111928Y-88900000D01*
X130114336Y-88924450D01*
X130114336Y-88949009D01*
X130126596Y-89073490D01*
X130145718Y-89169623D01*
X130182027Y-89289319D01*
X130219536Y-89379875D01*
X130278502Y-89490192D01*
X130332958Y-89571691D01*
X130412310Y-89668382D01*
X130481618Y-89737690D01*
X130578309Y-89817042D01*
X130659808Y-89871498D01*
X130740000Y-89914362D01*
X130740001Y-90546288D01*
X130696063Y-90590226D01*
X130582795Y-90759744D01*
X130504774Y-90948102D01*
X130465000Y-91148061D01*
X130465000Y-91351939D01*
X130504774Y-91551898D01*
X130582795Y-91740256D01*
X130696063Y-91909774D01*
X130840226Y-92053937D01*
X131009744Y-92167205D01*
X131198102Y-92245226D01*
X131398061Y-92285000D01*
X131601939Y-92285000D01*
X131801898Y-92245226D01*
X131990256Y-92167205D01*
X132159774Y-92053937D01*
X132203711Y-92010000D01*
X136435199Y-92010000D01*
X138465198Y-94040000D01*
X138103711Y-94040000D01*
X138059774Y-93996063D01*
X137890256Y-93882795D01*
X137701898Y-93804774D01*
X137501939Y-93765000D01*
X137298061Y-93765000D01*
X137098102Y-93804774D01*
X136909744Y-93882795D01*
X136740226Y-93996063D01*
X136596063Y-94140226D01*
X136482795Y-94309744D01*
X136404774Y-94498102D01*
X136365000Y-94698061D01*
X136365000Y-94901939D01*
X136404774Y-95101898D01*
X136482795Y-95290256D01*
X136596063Y-95459774D01*
X136740226Y-95603937D01*
X136909744Y-95717205D01*
X137098102Y-95795226D01*
X137298061Y-95835000D01*
X137501939Y-95835000D01*
X137701898Y-95795226D01*
X137890256Y-95717205D01*
X138059774Y-95603937D01*
X138103711Y-95560000D01*
X139540000Y-95560000D01*
X139540001Y-99285196D01*
X137689002Y-101136196D01*
X137659999Y-101159999D01*
X137604871Y-101227174D01*
X137565026Y-101275724D01*
X137498599Y-101400000D01*
X137494454Y-101407754D01*
X137450997Y-101551015D01*
X137440000Y-101662668D01*
X137440000Y-101662678D01*
X137436324Y-101700000D01*
X137440000Y-101737323D01*
X137440000Y-102261928D01*
X137150000Y-102261928D01*
X137025518Y-102274188D01*
X136905820Y-102310498D01*
X136795506Y-102369463D01*
X136698815Y-102448815D01*
X136619463Y-102545506D01*
X136560498Y-102655820D01*
X136524188Y-102775518D01*
X136511928Y-102900000D01*
X136511928Y-104600000D01*
X136524188Y-104724482D01*
X136560498Y-104844180D01*
X136619463Y-104954494D01*
X136698815Y-105051185D01*
X136795506Y-105130537D01*
X136905820Y-105189502D01*
X137025518Y-105225812D01*
X137150000Y-105238072D01*
X138850000Y-105238072D01*
X138974482Y-105225812D01*
X139094180Y-105189502D01*
X139204494Y-105130537D01*
X139301185Y-105051185D01*
X139380537Y-104954494D01*
X139439502Y-104844180D01*
X139463966Y-104763534D01*
X139539731Y-104847588D01*
X139773080Y-105021641D01*
X140035901Y-105146825D01*
X140183110Y-105191476D01*
X140413000Y-105070155D01*
X140413000Y-103877000D01*
X140667000Y-103877000D01*
X140667000Y-105070155D01*
X140896890Y-105191476D01*
X141044099Y-105146825D01*
X141306920Y-105021641D01*
X141540269Y-104847588D01*
X141735178Y-104631355D01*
X141884157Y-104381252D01*
X141981481Y-104106891D01*
X141860814Y-103877000D01*
X140667000Y-103877000D01*
X140413000Y-103877000D01*
X140393000Y-103877000D01*
X140393000Y-103623000D01*
X140413000Y-103623000D01*
X140413000Y-102429845D01*
X140667000Y-102429845D01*
X140667000Y-103623000D01*
X141860814Y-103623000D01*
X141981481Y-103393109D01*
X141884157Y-103118748D01*
X141735178Y-102868645D01*
X141540269Y-102652412D01*
X141306920Y-102478359D01*
X141044099Y-102353175D01*
X140896890Y-102308524D01*
X140667000Y-102429845D01*
X140413000Y-102429845D01*
X140183110Y-102308524D01*
X140035901Y-102353175D01*
X139773080Y-102478359D01*
X139539731Y-102652412D01*
X139463966Y-102736466D01*
X139439502Y-102655820D01*
X139380537Y-102545506D01*
X139301185Y-102448815D01*
X139204494Y-102369463D01*
X139094180Y-102310498D01*
X138974482Y-102274188D01*
X138960000Y-102272762D01*
X138960000Y-102014801D01*
X140811008Y-100163795D01*
X140840001Y-100140001D01*
X140863795Y-100111008D01*
X140863799Y-100111004D01*
X140934973Y-100024277D01*
X140934974Y-100024276D01*
X141005546Y-99892247D01*
X141049003Y-99748986D01*
X141060000Y-99637333D01*
X141060000Y-99637324D01*
X141063676Y-99600001D01*
X141060000Y-99562678D01*
X141060000Y-95560000D01*
X142296289Y-95560000D01*
X142340226Y-95603937D01*
X142509744Y-95717205D01*
X142698102Y-95795226D01*
X142898061Y-95835000D01*
X143101939Y-95835000D01*
X143301898Y-95795226D01*
X143490256Y-95717205D01*
X143659774Y-95603937D01*
X143803937Y-95459774D01*
X143917205Y-95290256D01*
X143995226Y-95101898D01*
X144035000Y-94901939D01*
X144035000Y-94698061D01*
X143995226Y-94498102D01*
X143917205Y-94309744D01*
X143803937Y-94140226D01*
X143659774Y-93996063D01*
X143490256Y-93882795D01*
X143301898Y-93804774D01*
X143101939Y-93765000D01*
X142898061Y-93765000D01*
X142698102Y-93804774D01*
X142509744Y-93882795D01*
X142340226Y-93996063D01*
X142296289Y-94040000D01*
X141003711Y-94040000D01*
X140959774Y-93996063D01*
X140790256Y-93882795D01*
X140601898Y-93804774D01*
X140401939Y-93765000D01*
X140339802Y-93765000D01*
X137313804Y-90739003D01*
X137290001Y-90709999D01*
X137174276Y-90615026D01*
X137042247Y-90544454D01*
X136898986Y-90500997D01*
X136787333Y-90490000D01*
X136787322Y-90490000D01*
X136750000Y-90486324D01*
X136712678Y-90490000D01*
X132260000Y-90490000D01*
X132260000Y-89914362D01*
X132340192Y-89871498D01*
X132421691Y-89817042D01*
X132518382Y-89737690D01*
X132587690Y-89668382D01*
X132667042Y-89571691D01*
X132721498Y-89490192D01*
X132780464Y-89379875D01*
X132817973Y-89289319D01*
X132854282Y-89169623D01*
X132873404Y-89073490D01*
X132885664Y-88949009D01*
X132885664Y-88924450D01*
X132888072Y-88900000D01*
X132888072Y-88400000D01*
X132875812Y-88275518D01*
X132868071Y-88250000D01*
X132875812Y-88224482D01*
X132888072Y-88100000D01*
X132888072Y-87600000D01*
X132885664Y-87575550D01*
X132885664Y-87550991D01*
X132873404Y-87426510D01*
X132854282Y-87330377D01*
X132817973Y-87210681D01*
X132780464Y-87120125D01*
X132721498Y-87009808D01*
X132667042Y-86928309D01*
X132587690Y-86831618D01*
X132518382Y-86762310D01*
X132421691Y-86682958D01*
X132340192Y-86628502D01*
X132229875Y-86569536D01*
X132160000Y-86540593D01*
X132160000Y-72960000D01*
X143262678Y-72960000D01*
X143300000Y-72963676D01*
X143337322Y-72960000D01*
X143337333Y-72960000D01*
X143448986Y-72949003D01*
X143592247Y-72905546D01*
X143724276Y-72834974D01*
X143840001Y-72740001D01*
X143863804Y-72710997D01*
X147211003Y-69363799D01*
X147240001Y-69340001D01*
X147290052Y-69279014D01*
X147334974Y-69224277D01*
X147405546Y-69092247D01*
X147427148Y-69021034D01*
X147449003Y-68948986D01*
X147460000Y-68837333D01*
X147460000Y-68837324D01*
X147463676Y-68800001D01*
X147460000Y-68762678D01*
X147460000Y-68188072D01*
X147950000Y-68188072D01*
X148074482Y-68175812D01*
X148194180Y-68139502D01*
X148304494Y-68080537D01*
X148401185Y-68001185D01*
X148480537Y-67904494D01*
X148539502Y-67794180D01*
X148575812Y-67674482D01*
X148588072Y-67550000D01*
X148588072Y-62450000D01*
X148575812Y-62325518D01*
X148539502Y-62205820D01*
X148480537Y-62095506D01*
X148401185Y-61998815D01*
X148304494Y-61919463D01*
X148194180Y-61860498D01*
X148074482Y-61824188D01*
X147950000Y-61811928D01*
X145450000Y-61811928D01*
X145325518Y-61824188D01*
X145205820Y-61860498D01*
X145095506Y-61919463D01*
X144998815Y-61998815D01*
X144919463Y-62095506D01*
X144860498Y-62205820D01*
X144824188Y-62325518D01*
X144811928Y-62450000D01*
X144811928Y-64483375D01*
X144770549Y-63973290D01*
X144461289Y-62886749D01*
X143945999Y-61881419D01*
X143835678Y-61716309D01*
X143151411Y-61128194D01*
X139279605Y-65000000D01*
X143151411Y-68871806D01*
X143835678Y-68283691D01*
X144385299Y-67296711D01*
X144731809Y-66221470D01*
X144811928Y-65530311D01*
X144811928Y-67550000D01*
X144824188Y-67674482D01*
X144860498Y-67794180D01*
X144919463Y-67904494D01*
X144998815Y-68001185D01*
X145095506Y-68080537D01*
X145205820Y-68139502D01*
X145325518Y-68175812D01*
X145450000Y-68188072D01*
X145940001Y-68188072D01*
X145940001Y-68485197D01*
X142985199Y-71440000D01*
X132160000Y-71440000D01*
X132160000Y-69051411D01*
X135228194Y-69051411D01*
X135816309Y-69735678D01*
X136803289Y-70285299D01*
X137878530Y-70631809D01*
X139000712Y-70761892D01*
X140126710Y-70670549D01*
X141213251Y-70361289D01*
X142218581Y-69845999D01*
X142383691Y-69735678D01*
X142971806Y-69051411D01*
X139100000Y-65179605D01*
X135228194Y-69051411D01*
X132160000Y-69051411D01*
X132160000Y-68188072D01*
X132650000Y-68188072D01*
X132774482Y-68175812D01*
X132894180Y-68139502D01*
X133004494Y-68080537D01*
X133101185Y-68001185D01*
X133180537Y-67904494D01*
X133239502Y-67794180D01*
X133275812Y-67674482D01*
X133288072Y-67550000D01*
X133288072Y-64900712D01*
X133338108Y-64900712D01*
X133429451Y-66026710D01*
X133738711Y-67113251D01*
X134254001Y-68118581D01*
X134364322Y-68283691D01*
X135048589Y-68871806D01*
X138920395Y-65000000D01*
X135048589Y-61128194D01*
X134364322Y-61716309D01*
X133814701Y-62703289D01*
X133468191Y-63778530D01*
X133338108Y-64900712D01*
X133288072Y-64900712D01*
X133288072Y-62450000D01*
X133275812Y-62325518D01*
X133239502Y-62205820D01*
X133180537Y-62095506D01*
X133101185Y-61998815D01*
X133004494Y-61919463D01*
X132894180Y-61860498D01*
X132774482Y-61824188D01*
X132650000Y-61811928D01*
X130150000Y-61811928D01*
X130025518Y-61824188D01*
X129905820Y-61860498D01*
X129795506Y-61919463D01*
X129698815Y-61998815D01*
X129619463Y-62095506D01*
X129560498Y-62205820D01*
X129524188Y-62325518D01*
X129511928Y-62450000D01*
X127473484Y-62450000D01*
X127305134Y-62244866D01*
X127079014Y-62059294D01*
X127014477Y-62024799D01*
X127131355Y-61955178D01*
X127347588Y-61760269D01*
X127521641Y-61526920D01*
X127646825Y-61264099D01*
X127691476Y-61116890D01*
X127602658Y-60948589D01*
X135228194Y-60948589D01*
X139100000Y-64820395D01*
X142971806Y-60948589D01*
X142383691Y-60264322D01*
X141396711Y-59714701D01*
X140321470Y-59368191D01*
X139199288Y-59238108D01*
X138073290Y-59329451D01*
X136986749Y-59638711D01*
X135981419Y-60154001D01*
X135816309Y-60264322D01*
X135228194Y-60948589D01*
X127602658Y-60948589D01*
X127570155Y-60887000D01*
X126377000Y-60887000D01*
X126377000Y-60907000D01*
X126123000Y-60907000D01*
X126123000Y-60887000D01*
X126103000Y-60887000D01*
X126103000Y-60633000D01*
X126123000Y-60633000D01*
X126123000Y-59439186D01*
X126377000Y-59439186D01*
X126377000Y-60633000D01*
X127570155Y-60633000D01*
X127691476Y-60403110D01*
X127646825Y-60255901D01*
X127521641Y-59993080D01*
X127347588Y-59759731D01*
X127131355Y-59564822D01*
X126881252Y-59415843D01*
X126606891Y-59318519D01*
X126377000Y-59439186D01*
X126123000Y-59439186D01*
X125893109Y-59318519D01*
X125618748Y-59415843D01*
X125368645Y-59564822D01*
X125152412Y-59759731D01*
X124978359Y-59993080D01*
X124960000Y-60031624D01*
X124960000Y-59127000D01*
X143750000Y-59127000D01*
X143774776Y-59124560D01*
X143798601Y-59117333D01*
X143820557Y-59105597D01*
X143839803Y-59089803D01*
X143855597Y-59070557D01*
X143867333Y-59048601D01*
X143874560Y-59024776D01*
X143877000Y-59000000D01*
X143877000Y-54900000D01*
X150261928Y-54900000D01*
X150265000Y-55464250D01*
X150423750Y-55623000D01*
X151623000Y-55623000D01*
X151623000Y-54423750D01*
X151464250Y-54265000D01*
X150900000Y-54261928D01*
X150775518Y-54274188D01*
X150655820Y-54310498D01*
X150545506Y-54369463D01*
X150448815Y-54448815D01*
X150369463Y-54545506D01*
X150310498Y-54655820D01*
X150274188Y-54775518D01*
X150261928Y-54900000D01*
X143877000Y-54900000D01*
X143877000Y-54210000D01*
X153040001Y-54210000D01*
X153040001Y-54439637D01*
X153040001Y-54439637D01*
G37*
X153040001Y-54439637D02*
X152954494Y-54369463D01*
X152844180Y-54310498D01*
X152724482Y-54274188D01*
X152600000Y-54261928D01*
X152035750Y-54265000D01*
X151877000Y-54423750D01*
X151877000Y-55623000D01*
X151897000Y-55623000D01*
X151897000Y-55877000D01*
X151877000Y-55877000D01*
X151877000Y-55897000D01*
X151623000Y-55897000D01*
X151623000Y-55877000D01*
X150423750Y-55877000D01*
X150265000Y-56035750D01*
X150261928Y-56600000D01*
X150274188Y-56724482D01*
X150310498Y-56844180D01*
X150369463Y-56954494D01*
X150448815Y-57051185D01*
X150545506Y-57130537D01*
X150655820Y-57189502D01*
X150724687Y-57210393D01*
X150694866Y-57234866D01*
X150509294Y-57460986D01*
X150371401Y-57718966D01*
X150286487Y-57998889D01*
X150257815Y-58290000D01*
X150286487Y-58581111D01*
X150371401Y-58861034D01*
X150509294Y-59119014D01*
X150694866Y-59345134D01*
X150920986Y-59530706D01*
X150975791Y-59560000D01*
X150920986Y-59589294D01*
X150694866Y-59774866D01*
X150509294Y-60000986D01*
X150371401Y-60258966D01*
X150286487Y-60538889D01*
X150257815Y-60830000D01*
X150286487Y-61121111D01*
X150371401Y-61401034D01*
X150509294Y-61659014D01*
X150694866Y-61885134D01*
X150920986Y-62070706D01*
X150975791Y-62100000D01*
X150920986Y-62129294D01*
X150694866Y-62314866D01*
X150509294Y-62540986D01*
X150371401Y-62798966D01*
X150286487Y-63078889D01*
X150257815Y-63370000D01*
X150286487Y-63661111D01*
X150371401Y-63941034D01*
X150509294Y-64199014D01*
X150694866Y-64425134D01*
X150920986Y-64610706D01*
X150975791Y-64640000D01*
X150920986Y-64669294D01*
X150694866Y-64854866D01*
X150509294Y-65080986D01*
X150371401Y-65338966D01*
X150286487Y-65618889D01*
X150257815Y-65910000D01*
X150286487Y-66201111D01*
X150371401Y-66481034D01*
X150509294Y-66739014D01*
X150694866Y-66965134D01*
X150920986Y-67150706D01*
X150975791Y-67180000D01*
X150920986Y-67209294D01*
X150694866Y-67394866D01*
X150509294Y-67620986D01*
X150371401Y-67878966D01*
X150286487Y-68158889D01*
X150257815Y-68450000D01*
X150286487Y-68741111D01*
X150371401Y-69021034D01*
X150509294Y-69279014D01*
X150694866Y-69505134D01*
X150920986Y-69690706D01*
X150975791Y-69720000D01*
X150920986Y-69749294D01*
X150694866Y-69934866D01*
X150509294Y-70160986D01*
X150371401Y-70418966D01*
X150286487Y-70698889D01*
X150257815Y-70990000D01*
X150286487Y-71281111D01*
X150371401Y-71561034D01*
X150509294Y-71819014D01*
X150694866Y-72045134D01*
X150920986Y-72230706D01*
X150975791Y-72260000D01*
X150920986Y-72289294D01*
X150694866Y-72474866D01*
X150509294Y-72700986D01*
X150371401Y-72958966D01*
X150286487Y-73238889D01*
X150257815Y-73530000D01*
X150286487Y-73821111D01*
X150371401Y-74101034D01*
X150509294Y-74359014D01*
X150694866Y-74585134D01*
X150920986Y-74770706D01*
X150975791Y-74800000D01*
X150920986Y-74829294D01*
X150694866Y-75014866D01*
X150509294Y-75240986D01*
X150371401Y-75498966D01*
X150286487Y-75778889D01*
X150257815Y-76070000D01*
X150286487Y-76361111D01*
X150371401Y-76641034D01*
X150509294Y-76899014D01*
X150694866Y-77125134D01*
X150920986Y-77310706D01*
X150975791Y-77340000D01*
X150920986Y-77369294D01*
X150694866Y-77554866D01*
X150509294Y-77780986D01*
X150371401Y-78038966D01*
X150286487Y-78318889D01*
X150257815Y-78610000D01*
X150286487Y-78901111D01*
X150371401Y-79181034D01*
X150509294Y-79439014D01*
X150694866Y-79665134D01*
X150920986Y-79850706D01*
X150975791Y-79880000D01*
X150920986Y-79909294D01*
X150694866Y-80094866D01*
X150509294Y-80320986D01*
X150371401Y-80578966D01*
X150286487Y-80858889D01*
X150257815Y-81150000D01*
X150286487Y-81441111D01*
X150371401Y-81721034D01*
X150509294Y-81979014D01*
X150694866Y-82205134D01*
X150920986Y-82390706D01*
X150975791Y-82420000D01*
X150920986Y-82449294D01*
X150694866Y-82634866D01*
X150509294Y-82860986D01*
X150371401Y-83118966D01*
X150286487Y-83398889D01*
X150257815Y-83690000D01*
X150286487Y-83981111D01*
X150371401Y-84261034D01*
X150509294Y-84519014D01*
X150694866Y-84745134D01*
X150920986Y-84930706D01*
X150975791Y-84960000D01*
X150920986Y-84989294D01*
X150694866Y-85174866D01*
X150509294Y-85400986D01*
X150371401Y-85658966D01*
X150286487Y-85938889D01*
X150257815Y-86230000D01*
X150286487Y-86521111D01*
X150371401Y-86801034D01*
X150509294Y-87059014D01*
X150694866Y-87285134D01*
X150920986Y-87470706D01*
X150975791Y-87500000D01*
X150920986Y-87529294D01*
X150694866Y-87714866D01*
X150509294Y-87940986D01*
X150371401Y-88198966D01*
X150286487Y-88478889D01*
X150257815Y-88770000D01*
X150286487Y-89061111D01*
X150371401Y-89341034D01*
X150509294Y-89599014D01*
X150694866Y-89825134D01*
X150920986Y-90010706D01*
X150975791Y-90040000D01*
X150920986Y-90069294D01*
X150694866Y-90254866D01*
X150509294Y-90480986D01*
X150371401Y-90738966D01*
X150286487Y-91018889D01*
X150257815Y-91310000D01*
X150286487Y-91601111D01*
X150371401Y-91881034D01*
X150509294Y-92139014D01*
X150694866Y-92365134D01*
X150920986Y-92550706D01*
X150985523Y-92585201D01*
X150868645Y-92654822D01*
X150652412Y-92849731D01*
X150478359Y-93083080D01*
X150353175Y-93345901D01*
X150308524Y-93493110D01*
X150429845Y-93723000D01*
X151623000Y-93723000D01*
X151623000Y-93703000D01*
X151877000Y-93703000D01*
X151877000Y-93723000D01*
X151897000Y-93723000D01*
X151897000Y-93977000D01*
X151877000Y-93977000D01*
X151877000Y-93997000D01*
X151623000Y-93997000D01*
X151623000Y-93977000D01*
X150429845Y-93977000D01*
X150308524Y-94206890D01*
X150353175Y-94354099D01*
X150478359Y-94616920D01*
X150652412Y-94850269D01*
X150868645Y-95045178D01*
X150985523Y-95114799D01*
X150920986Y-95149294D01*
X150694866Y-95334866D01*
X150509294Y-95560986D01*
X150371401Y-95818966D01*
X150286487Y-96098889D01*
X150257815Y-96390000D01*
X150286487Y-96681111D01*
X150371401Y-96961034D01*
X150509294Y-97219014D01*
X150694866Y-97445134D01*
X150920986Y-97630706D01*
X150975791Y-97660000D01*
X150920986Y-97689294D01*
X150694866Y-97874866D01*
X150509294Y-98100986D01*
X150371401Y-98358966D01*
X150286487Y-98638889D01*
X150257815Y-98930000D01*
X150286487Y-99221111D01*
X150371401Y-99501034D01*
X150509294Y-99759014D01*
X150694866Y-99985134D01*
X150920986Y-100170706D01*
X150975791Y-100200000D01*
X150920986Y-100229294D01*
X150694866Y-100414866D01*
X150509294Y-100640986D01*
X150371401Y-100898966D01*
X150286487Y-101178889D01*
X150257815Y-101470000D01*
X150286487Y-101761111D01*
X150371401Y-102041034D01*
X150509294Y-102299014D01*
X150694866Y-102525134D01*
X150920986Y-102710706D01*
X150975791Y-102740000D01*
X150920986Y-102769294D01*
X150694866Y-102954866D01*
X150509294Y-103180986D01*
X150371401Y-103438966D01*
X150286487Y-103718889D01*
X150257815Y-104010000D01*
X150286487Y-104301111D01*
X150371401Y-104581034D01*
X150509294Y-104839014D01*
X150694866Y-105065134D01*
X150920986Y-105250706D01*
X150994500Y-105290000D01*
X127491704Y-105290000D01*
X127551185Y-105241185D01*
X127630537Y-105144494D01*
X127689502Y-105034180D01*
X127725812Y-104914482D01*
X127738072Y-104790000D01*
X127738072Y-103090000D01*
X127725812Y-102965518D01*
X127689502Y-102845820D01*
X127630537Y-102735506D01*
X127551185Y-102638815D01*
X127454494Y-102559463D01*
X127344180Y-102500498D01*
X127275313Y-102479607D01*
X127305134Y-102455134D01*
X127490706Y-102229014D01*
X127628599Y-101971034D01*
X127713513Y-101691111D01*
X127742185Y-101400000D01*
X127713513Y-101108889D01*
X127628599Y-100828966D01*
X127490706Y-100570986D01*
X127305134Y-100344866D01*
X127079014Y-100159294D01*
X127024209Y-100130000D01*
X127079014Y-100100706D01*
X127305134Y-99915134D01*
X127490706Y-99689014D01*
X127628599Y-99431034D01*
X127713513Y-99151111D01*
X127742185Y-98860000D01*
X127713513Y-98568889D01*
X127628599Y-98288966D01*
X127490706Y-98030986D01*
X127305134Y-97804866D01*
X127079014Y-97619294D01*
X127024209Y-97590000D01*
X127079014Y-97560706D01*
X127305134Y-97375134D01*
X127490706Y-97149014D01*
X127628599Y-96891034D01*
X127713513Y-96611111D01*
X127742185Y-96320000D01*
X127713513Y-96028889D01*
X127628599Y-95748966D01*
X127490706Y-95490986D01*
X127305134Y-95264866D01*
X127079014Y-95079294D01*
X127024209Y-95050000D01*
X127079014Y-95020706D01*
X127305134Y-94835134D01*
X127490706Y-94609014D01*
X127628599Y-94351034D01*
X127713513Y-94071111D01*
X127742185Y-93780000D01*
X127713513Y-93488889D01*
X127628599Y-93208966D01*
X127490706Y-92950986D01*
X127305134Y-92724866D01*
X127079014Y-92539294D01*
X127024209Y-92510000D01*
X127079014Y-92480706D01*
X127305134Y-92295134D01*
X127490706Y-92069014D01*
X127628599Y-91811034D01*
X127713513Y-91531111D01*
X127742185Y-91240000D01*
X127713513Y-90948889D01*
X127628599Y-90668966D01*
X127490706Y-90410986D01*
X127305134Y-90184866D01*
X127079014Y-89999294D01*
X127024209Y-89970000D01*
X127079014Y-89940706D01*
X127305134Y-89755134D01*
X127490706Y-89529014D01*
X127628599Y-89271034D01*
X127713513Y-88991111D01*
X127742185Y-88700000D01*
X127713513Y-88408889D01*
X127628599Y-88128966D01*
X127490706Y-87870986D01*
X127305134Y-87644866D01*
X127079014Y-87459294D01*
X127024209Y-87430000D01*
X127079014Y-87400706D01*
X127305134Y-87215134D01*
X127490706Y-86989014D01*
X127628599Y-86731034D01*
X127713513Y-86451111D01*
X127742185Y-86160000D01*
X127713513Y-85868889D01*
X127628599Y-85588966D01*
X127490706Y-85330986D01*
X127305134Y-85104866D01*
X127079014Y-84919294D01*
X127024209Y-84890000D01*
X127079014Y-84860706D01*
X127305134Y-84675134D01*
X127490706Y-84449014D01*
X127628599Y-84191034D01*
X127713513Y-83911111D01*
X127742185Y-83620000D01*
X127713513Y-83328889D01*
X127628599Y-83048966D01*
X127490706Y-82790986D01*
X127305134Y-82564866D01*
X127079014Y-82379294D01*
X127024209Y-82350000D01*
X127079014Y-82320706D01*
X127305134Y-82135134D01*
X127490706Y-81909014D01*
X127628599Y-81651034D01*
X127713513Y-81371111D01*
X127742185Y-81080000D01*
X127713513Y-80788889D01*
X127628599Y-80508966D01*
X127490706Y-80250986D01*
X127305134Y-80024866D01*
X127079014Y-79839294D01*
X127024209Y-79810000D01*
X127079014Y-79780706D01*
X127305134Y-79595134D01*
X127490706Y-79369014D01*
X127628599Y-79111034D01*
X127713513Y-78831111D01*
X127742185Y-78540000D01*
X127713513Y-78248889D01*
X127628599Y-77968966D01*
X127490706Y-77710986D01*
X127305134Y-77484866D01*
X127079014Y-77299294D01*
X127024209Y-77270000D01*
X127079014Y-77240706D01*
X127305134Y-77055134D01*
X127490706Y-76829014D01*
X127628599Y-76571034D01*
X127713513Y-76291111D01*
X127742185Y-76000000D01*
X127713513Y-75708889D01*
X127628599Y-75428966D01*
X127490706Y-75170986D01*
X127305134Y-74944866D01*
X127079014Y-74759294D01*
X127024209Y-74730000D01*
X127079014Y-74700706D01*
X127305134Y-74515134D01*
X127490706Y-74289014D01*
X127628599Y-74031034D01*
X127713513Y-73751111D01*
X127742185Y-73460000D01*
X127713513Y-73168889D01*
X127628599Y-72888966D01*
X127490706Y-72630986D01*
X127305134Y-72404866D01*
X127079014Y-72219294D01*
X127024209Y-72190000D01*
X127079014Y-72160706D01*
X127305134Y-71975134D01*
X127490706Y-71749014D01*
X127628599Y-71491034D01*
X127713513Y-71211111D01*
X127742185Y-70920000D01*
X127713513Y-70628889D01*
X127628599Y-70348966D01*
X127490706Y-70090986D01*
X127305134Y-69864866D01*
X127079014Y-69679294D01*
X127024209Y-69650000D01*
X127079014Y-69620706D01*
X127305134Y-69435134D01*
X127490706Y-69209014D01*
X127628599Y-68951034D01*
X127713513Y-68671111D01*
X127742185Y-68380000D01*
X127713513Y-68088889D01*
X127628599Y-67808966D01*
X127490706Y-67550986D01*
X127305134Y-67324866D01*
X127079014Y-67139294D01*
X127024209Y-67110000D01*
X127079014Y-67080706D01*
X127305134Y-66895134D01*
X127490706Y-66669014D01*
X127628599Y-66411034D01*
X127713513Y-66131111D01*
X127742185Y-65840000D01*
X127713513Y-65548889D01*
X127628599Y-65268966D01*
X127490706Y-65010986D01*
X127305134Y-64784866D01*
X127079014Y-64599294D01*
X127024209Y-64570000D01*
X127079014Y-64540706D01*
X127305134Y-64355134D01*
X127490706Y-64129014D01*
X127628599Y-63871034D01*
X127713513Y-63591111D01*
X127742185Y-63300000D01*
X127713513Y-63008889D01*
X127628599Y-62728966D01*
X127490706Y-62470986D01*
X127473484Y-62450000D01*
X129511928Y-62450000D01*
X129511928Y-67550000D01*
X129524188Y-67674482D01*
X129560498Y-67794180D01*
X129619463Y-67904494D01*
X129698815Y-68001185D01*
X129795506Y-68080537D01*
X129905820Y-68139502D01*
X130025518Y-68175812D01*
X130150000Y-68188072D01*
X130640000Y-68188072D01*
X130640001Y-72162657D01*
X130636323Y-72200000D01*
X130640000Y-72237333D01*
X130640001Y-86641737D01*
X130578309Y-86682958D01*
X130481618Y-86762310D01*
X130412310Y-86831618D01*
X130332958Y-86928309D01*
X130278502Y-87009808D01*
X130219536Y-87120125D01*
X130182027Y-87210681D01*
X130145718Y-87330377D01*
X130126596Y-87426510D01*
X130114336Y-87550991D01*
X130114336Y-87575550D01*
X130111928Y-87600000D01*
X130111928Y-88100000D01*
X130124188Y-88224482D01*
X130131929Y-88250000D01*
X130124188Y-88275518D01*
X130111928Y-88400000D01*
X130111928Y-88900000D01*
X130114336Y-88924450D01*
X130114336Y-88949009D01*
X130126596Y-89073490D01*
X130145718Y-89169623D01*
X130182027Y-89289319D01*
X130219536Y-89379875D01*
X130278502Y-89490192D01*
X130332958Y-89571691D01*
X130412310Y-89668382D01*
X130481618Y-89737690D01*
X130578309Y-89817042D01*
X130659808Y-89871498D01*
X130740000Y-89914362D01*
X130740001Y-90546288D01*
X130696063Y-90590226D01*
X130582795Y-90759744D01*
X130504774Y-90948102D01*
X130465000Y-91148061D01*
X130465000Y-91351939D01*
X130504774Y-91551898D01*
X130582795Y-91740256D01*
X130696063Y-91909774D01*
X130840226Y-92053937D01*
X131009744Y-92167205D01*
X131198102Y-92245226D01*
X131398061Y-92285000D01*
X131601939Y-92285000D01*
X131801898Y-92245226D01*
X131990256Y-92167205D01*
X132159774Y-92053937D01*
X132203711Y-92010000D01*
X136435199Y-92010000D01*
X138465198Y-94040000D01*
X138103711Y-94040000D01*
X138059774Y-93996063D01*
X137890256Y-93882795D01*
X137701898Y-93804774D01*
X137501939Y-93765000D01*
X137298061Y-93765000D01*
X137098102Y-93804774D01*
X136909744Y-93882795D01*
X136740226Y-93996063D01*
X136596063Y-94140226D01*
X136482795Y-94309744D01*
X136404774Y-94498102D01*
X136365000Y-94698061D01*
X136365000Y-94901939D01*
X136404774Y-95101898D01*
X136482795Y-95290256D01*
X136596063Y-95459774D01*
X136740226Y-95603937D01*
X136909744Y-95717205D01*
X137098102Y-95795226D01*
X137298061Y-95835000D01*
X137501939Y-95835000D01*
X137701898Y-95795226D01*
X137890256Y-95717205D01*
X138059774Y-95603937D01*
X138103711Y-95560000D01*
X139540000Y-95560000D01*
X139540001Y-99285196D01*
X137689002Y-101136196D01*
X137659999Y-101159999D01*
X137604871Y-101227174D01*
X137565026Y-101275724D01*
X137498599Y-101400000D01*
X137494454Y-101407754D01*
X137450997Y-101551015D01*
X137440000Y-101662668D01*
X137440000Y-101662678D01*
X137436324Y-101700000D01*
X137440000Y-101737323D01*
X137440000Y-102261928D01*
X137150000Y-102261928D01*
X137025518Y-102274188D01*
X136905820Y-102310498D01*
X136795506Y-102369463D01*
X136698815Y-102448815D01*
X136619463Y-102545506D01*
X136560498Y-102655820D01*
X136524188Y-102775518D01*
X136511928Y-102900000D01*
X136511928Y-104600000D01*
X136524188Y-104724482D01*
X136560498Y-104844180D01*
X136619463Y-104954494D01*
X136698815Y-105051185D01*
X136795506Y-105130537D01*
X136905820Y-105189502D01*
X137025518Y-105225812D01*
X137150000Y-105238072D01*
X138850000Y-105238072D01*
X138974482Y-105225812D01*
X139094180Y-105189502D01*
X139204494Y-105130537D01*
X139301185Y-105051185D01*
X139380537Y-104954494D01*
X139439502Y-104844180D01*
X139463966Y-104763534D01*
X139539731Y-104847588D01*
X139773080Y-105021641D01*
X140035901Y-105146825D01*
X140183110Y-105191476D01*
X140413000Y-105070155D01*
X140413000Y-103877000D01*
X140667000Y-103877000D01*
X140667000Y-105070155D01*
X140896890Y-105191476D01*
X141044099Y-105146825D01*
X141306920Y-105021641D01*
X141540269Y-104847588D01*
X141735178Y-104631355D01*
X141884157Y-104381252D01*
X141981481Y-104106891D01*
X141860814Y-103877000D01*
X140667000Y-103877000D01*
X140413000Y-103877000D01*
X140393000Y-103877000D01*
X140393000Y-103623000D01*
X140413000Y-103623000D01*
X140413000Y-102429845D01*
X140667000Y-102429845D01*
X140667000Y-103623000D01*
X141860814Y-103623000D01*
X141981481Y-103393109D01*
X141884157Y-103118748D01*
X141735178Y-102868645D01*
X141540269Y-102652412D01*
X141306920Y-102478359D01*
X141044099Y-102353175D01*
X140896890Y-102308524D01*
X140667000Y-102429845D01*
X140413000Y-102429845D01*
X140183110Y-102308524D01*
X140035901Y-102353175D01*
X139773080Y-102478359D01*
X139539731Y-102652412D01*
X139463966Y-102736466D01*
X139439502Y-102655820D01*
X139380537Y-102545506D01*
X139301185Y-102448815D01*
X139204494Y-102369463D01*
X139094180Y-102310498D01*
X138974482Y-102274188D01*
X138960000Y-102272762D01*
X138960000Y-102014801D01*
X140811008Y-100163795D01*
X140840001Y-100140001D01*
X140863795Y-100111008D01*
X140863799Y-100111004D01*
X140934973Y-100024277D01*
X140934974Y-100024276D01*
X141005546Y-99892247D01*
X141049003Y-99748986D01*
X141060000Y-99637333D01*
X141060000Y-99637324D01*
X141063676Y-99600001D01*
X141060000Y-99562678D01*
X141060000Y-95560000D01*
X142296289Y-95560000D01*
X142340226Y-95603937D01*
X142509744Y-95717205D01*
X142698102Y-95795226D01*
X142898061Y-95835000D01*
X143101939Y-95835000D01*
X143301898Y-95795226D01*
X143490256Y-95717205D01*
X143659774Y-95603937D01*
X143803937Y-95459774D01*
X143917205Y-95290256D01*
X143995226Y-95101898D01*
X144035000Y-94901939D01*
X144035000Y-94698061D01*
X143995226Y-94498102D01*
X143917205Y-94309744D01*
X143803937Y-94140226D01*
X143659774Y-93996063D01*
X143490256Y-93882795D01*
X143301898Y-93804774D01*
X143101939Y-93765000D01*
X142898061Y-93765000D01*
X142698102Y-93804774D01*
X142509744Y-93882795D01*
X142340226Y-93996063D01*
X142296289Y-94040000D01*
X141003711Y-94040000D01*
X140959774Y-93996063D01*
X140790256Y-93882795D01*
X140601898Y-93804774D01*
X140401939Y-93765000D01*
X140339802Y-93765000D01*
X137313804Y-90739003D01*
X137290001Y-90709999D01*
X137174276Y-90615026D01*
X137042247Y-90544454D01*
X136898986Y-90500997D01*
X136787333Y-90490000D01*
X136787322Y-90490000D01*
X136750000Y-90486324D01*
X136712678Y-90490000D01*
X132260000Y-90490000D01*
X132260000Y-89914362D01*
X132340192Y-89871498D01*
X132421691Y-89817042D01*
X132518382Y-89737690D01*
X132587690Y-89668382D01*
X132667042Y-89571691D01*
X132721498Y-89490192D01*
X132780464Y-89379875D01*
X132817973Y-89289319D01*
X132854282Y-89169623D01*
X132873404Y-89073490D01*
X132885664Y-88949009D01*
X132885664Y-88924450D01*
X132888072Y-88900000D01*
X132888072Y-88400000D01*
X132875812Y-88275518D01*
X132868071Y-88250000D01*
X132875812Y-88224482D01*
X132888072Y-88100000D01*
X132888072Y-87600000D01*
X132885664Y-87575550D01*
X132885664Y-87550991D01*
X132873404Y-87426510D01*
X132854282Y-87330377D01*
X132817973Y-87210681D01*
X132780464Y-87120125D01*
X132721498Y-87009808D01*
X132667042Y-86928309D01*
X132587690Y-86831618D01*
X132518382Y-86762310D01*
X132421691Y-86682958D01*
X132340192Y-86628502D01*
X132229875Y-86569536D01*
X132160000Y-86540593D01*
X132160000Y-72960000D01*
X143262678Y-72960000D01*
X143300000Y-72963676D01*
X143337322Y-72960000D01*
X143337333Y-72960000D01*
X143448986Y-72949003D01*
X143592247Y-72905546D01*
X143724276Y-72834974D01*
X143840001Y-72740001D01*
X143863804Y-72710997D01*
X147211003Y-69363799D01*
X147240001Y-69340001D01*
X147290052Y-69279014D01*
X147334974Y-69224277D01*
X147405546Y-69092247D01*
X147427148Y-69021034D01*
X147449003Y-68948986D01*
X147460000Y-68837333D01*
X147460000Y-68837324D01*
X147463676Y-68800001D01*
X147460000Y-68762678D01*
X147460000Y-68188072D01*
X147950000Y-68188072D01*
X148074482Y-68175812D01*
X148194180Y-68139502D01*
X148304494Y-68080537D01*
X148401185Y-68001185D01*
X148480537Y-67904494D01*
X148539502Y-67794180D01*
X148575812Y-67674482D01*
X148588072Y-67550000D01*
X148588072Y-62450000D01*
X148575812Y-62325518D01*
X148539502Y-62205820D01*
X148480537Y-62095506D01*
X148401185Y-61998815D01*
X148304494Y-61919463D01*
X148194180Y-61860498D01*
X148074482Y-61824188D01*
X147950000Y-61811928D01*
X145450000Y-61811928D01*
X145325518Y-61824188D01*
X145205820Y-61860498D01*
X145095506Y-61919463D01*
X144998815Y-61998815D01*
X144919463Y-62095506D01*
X144860498Y-62205820D01*
X144824188Y-62325518D01*
X144811928Y-62450000D01*
X144811928Y-64483375D01*
X144770549Y-63973290D01*
X144461289Y-62886749D01*
X143945999Y-61881419D01*
X143835678Y-61716309D01*
X143151411Y-61128194D01*
X139279605Y-65000000D01*
X143151411Y-68871806D01*
X143835678Y-68283691D01*
X144385299Y-67296711D01*
X144731809Y-66221470D01*
X144811928Y-65530311D01*
X144811928Y-67550000D01*
X144824188Y-67674482D01*
X144860498Y-67794180D01*
X144919463Y-67904494D01*
X144998815Y-68001185D01*
X145095506Y-68080537D01*
X145205820Y-68139502D01*
X145325518Y-68175812D01*
X145450000Y-68188072D01*
X145940001Y-68188072D01*
X145940001Y-68485197D01*
X142985199Y-71440000D01*
X132160000Y-71440000D01*
X132160000Y-69051411D01*
X135228194Y-69051411D01*
X135816309Y-69735678D01*
X136803289Y-70285299D01*
X137878530Y-70631809D01*
X139000712Y-70761892D01*
X140126710Y-70670549D01*
X141213251Y-70361289D01*
X142218581Y-69845999D01*
X142383691Y-69735678D01*
X142971806Y-69051411D01*
X139100000Y-65179605D01*
X135228194Y-69051411D01*
X132160000Y-69051411D01*
X132160000Y-68188072D01*
X132650000Y-68188072D01*
X132774482Y-68175812D01*
X132894180Y-68139502D01*
X133004494Y-68080537D01*
X133101185Y-68001185D01*
X133180537Y-67904494D01*
X133239502Y-67794180D01*
X133275812Y-67674482D01*
X133288072Y-67550000D01*
X133288072Y-64900712D01*
X133338108Y-64900712D01*
X133429451Y-66026710D01*
X133738711Y-67113251D01*
X134254001Y-68118581D01*
X134364322Y-68283691D01*
X135048589Y-68871806D01*
X138920395Y-65000000D01*
X135048589Y-61128194D01*
X134364322Y-61716309D01*
X133814701Y-62703289D01*
X133468191Y-63778530D01*
X133338108Y-64900712D01*
X133288072Y-64900712D01*
X133288072Y-62450000D01*
X133275812Y-62325518D01*
X133239502Y-62205820D01*
X133180537Y-62095506D01*
X133101185Y-61998815D01*
X133004494Y-61919463D01*
X132894180Y-61860498D01*
X132774482Y-61824188D01*
X132650000Y-61811928D01*
X130150000Y-61811928D01*
X130025518Y-61824188D01*
X129905820Y-61860498D01*
X129795506Y-61919463D01*
X129698815Y-61998815D01*
X129619463Y-62095506D01*
X129560498Y-62205820D01*
X129524188Y-62325518D01*
X129511928Y-62450000D01*
X127473484Y-62450000D01*
X127305134Y-62244866D01*
X127079014Y-62059294D01*
X127014477Y-62024799D01*
X127131355Y-61955178D01*
X127347588Y-61760269D01*
X127521641Y-61526920D01*
X127646825Y-61264099D01*
X127691476Y-61116890D01*
X127602658Y-60948589D01*
X135228194Y-60948589D01*
X139100000Y-64820395D01*
X142971806Y-60948589D01*
X142383691Y-60264322D01*
X141396711Y-59714701D01*
X140321470Y-59368191D01*
X139199288Y-59238108D01*
X138073290Y-59329451D01*
X136986749Y-59638711D01*
X135981419Y-60154001D01*
X135816309Y-60264322D01*
X135228194Y-60948589D01*
X127602658Y-60948589D01*
X127570155Y-60887000D01*
X126377000Y-60887000D01*
X126377000Y-60907000D01*
X126123000Y-60907000D01*
X126123000Y-60887000D01*
X126103000Y-60887000D01*
X126103000Y-60633000D01*
X126123000Y-60633000D01*
X126123000Y-59439186D01*
X126377000Y-59439186D01*
X126377000Y-60633000D01*
X127570155Y-60633000D01*
X127691476Y-60403110D01*
X127646825Y-60255901D01*
X127521641Y-59993080D01*
X127347588Y-59759731D01*
X127131355Y-59564822D01*
X126881252Y-59415843D01*
X126606891Y-59318519D01*
X126377000Y-59439186D01*
X126123000Y-59439186D01*
X125893109Y-59318519D01*
X125618748Y-59415843D01*
X125368645Y-59564822D01*
X125152412Y-59759731D01*
X124978359Y-59993080D01*
X124960000Y-60031624D01*
X124960000Y-59127000D01*
X143750000Y-59127000D01*
X143774776Y-59124560D01*
X143798601Y-59117333D01*
X143820557Y-59105597D01*
X143839803Y-59089803D01*
X143855597Y-59070557D01*
X143867333Y-59048601D01*
X143874560Y-59024776D01*
X143877000Y-59000000D01*
X143877000Y-54900000D01*
X150261928Y-54900000D01*
X150265000Y-55464250D01*
X150423750Y-55623000D01*
X151623000Y-55623000D01*
X151623000Y-54423750D01*
X151464250Y-54265000D01*
X150900000Y-54261928D01*
X150775518Y-54274188D01*
X150655820Y-54310498D01*
X150545506Y-54369463D01*
X150448815Y-54448815D01*
X150369463Y-54545506D01*
X150310498Y-54655820D01*
X150274188Y-54775518D01*
X150261928Y-54900000D01*
X143877000Y-54900000D01*
X143877000Y-54210000D01*
X153040001Y-54210000D01*
X153040001Y-54439637D01*
M02*
